<svg viewBox="0 0 130 24" fill="none" xmlns="http://www.w3.org/2000/svg">
    <path d="M10.032 23.7774C9.75576 23.9217 9.43254 23.9183 9.15896 23.769C7.28644 22.7475 0.000658516 18.4929 0.000206855 14.138C-0.00020288 10.1913 3.59278e-05 5.73621 0.000152424 4.03769C0.000182979 3.6118 0.269962 3.23525 0.672321 3.09563L9.26566 0.113753C9.478 0.0400725 9.70897 0.0400726 9.92131 0.113753L18.5146 3.09561C18.917 3.23524 19.1868 3.61289 19.1868 4.03882C19.1868 5.70214 19.1868 10.0225 19.1868 14.138C19.1867 18.7002 11.9109 22.7958 10.032 23.7774Z" fill="#0075FF"/>
    <path d="M5.67828 13.5361L5.80216 13.9162C5.9902 14.4933 6.61011 14.8085 7.18677 14.6203C7.70015 14.4528 8.00617 13.9428 7.93447 13.4257C8.19276 13.5705 8.50845 13.6111 8.81215 13.512C9.18482 13.3904 9.44822 13.0883 9.53719 12.734L10.8316 13.4684C10.9572 13.5397 11.0349 13.673 11.0349 13.8176L11.0349 14.0472C11.0349 14.1421 11.1117 14.219 11.2065 14.219C11.3022 14.219 11.3794 14.1406 11.3781 14.0449L11.3734 13.7016C11.371 13.5233 11.2758 13.3592 11.1223 13.2687L10.2826 12.7738C9.78827 12.4823 9.48105 11.9545 9.47164 11.3804L9.4631 10.8592C9.46279 10.8402 9.48141 10.8266 9.4994 10.8327L11.4374 11.4925C11.4478 11.496 11.4571 11.4989 11.4676 11.5021C11.6458 11.5559 13.4035 12.1152 13.4647 13.2611C13.5425 14.7161 13.554 16.2732 12.7072 17.4584C12.1018 18.3058 11.2074 18.8985 9.89784 18.9686C7.69575 19.0864 5.75109 17.8698 5.72516 15.3261C5.71698 14.5243 5.69903 13.9486 5.67828 13.5361Z" fill="white"/>
    <path d="M6.94498 10.267C6.81335 9.86302 7.03388 9.42879 7.43754 9.29707C7.8412 9.16535 8.27514 9.38603 8.40677 9.78996L9.20113 12.2277C9.33276 12.6316 9.11223 13.0659 8.70857 13.1976C8.30491 13.3293 7.87098 13.1086 7.73935 12.7047L6.94498 10.267Z" fill="white"/>
    <path d="M5.39429 11.6046C5.26266 11.2007 5.48318 10.7664 5.88684 10.6347C6.2905 10.503 6.72444 10.7237 6.85607 11.1276L7.57573 13.3361C7.70736 13.74 7.48683 14.1742 7.08317 14.3059C6.67951 14.4377 6.24557 14.217 6.11394 13.8131L5.39429 11.6046Z" fill="white"/>
    <path d="M7.58034 6.19205C7.4299 5.7304 7.68193 5.23413 8.14326 5.0836C8.60458 4.93306 9.10051 5.18526 9.25095 5.64691L10.9057 10.7251C10.9319 10.8053 11.0472 10.7991 11.0646 10.7166L12.0748 5.93604C12.1752 5.46098 12.6414 5.1573 13.1162 5.25775C13.5909 5.3582 13.8944 5.82475 13.794 6.29982L12.6556 11.6873C12.1526 11.3783 11.6414 11.2166 11.5425 11.1868C11.5345 11.1843 11.5291 11.1826 11.5234 11.1807L9.5853 10.5209C9.35144 10.4413 9.10942 10.6177 9.11347 10.8649L9.11402 10.8986L7.58034 6.19205Z" fill="white"/>
    <path d="M36.469 13.8389L34.9741 9.74702C34.9005 9.56554 34.824 9.35003 34.7448 9.10049C34.6655 8.85095 34.5862 8.58156 34.5069 8.29232C34.4333 8.58156 34.3569 8.85378 34.2776 9.109C34.1983 9.35854 34.1219 9.57688 34.0483 9.76404L32.5619 13.8389H36.469ZM40.5036 18.4838H38.7368C38.5387 18.4838 38.3773 18.4356 38.2527 18.3392C38.1281 18.2371 38.0347 18.1123 37.9724 17.9648L37.0551 15.4553H31.9673L31.05 17.9648C31.0047 18.0953 30.9169 18.2144 30.7866 18.3221C30.6564 18.4299 30.495 18.4838 30.3025 18.4838H28.5188L33.3518 6.18257H35.6791L40.5036 18.4838Z" fill="black"/>
    <path d="M46.7311 11.9844C46.4933 11.6951 46.2328 11.491 45.9497 11.3719C45.6722 11.2528 45.3721 11.1932 45.0493 11.1932C44.7322 11.1932 44.4463 11.2528 44.1915 11.3719C43.9367 11.491 43.7186 11.6725 43.5374 11.9163C43.3562 12.1545 43.2175 12.4608 43.1212 12.8351C43.025 13.2037 42.9769 13.6404 42.9769 14.1452C42.9769 14.6556 43.0165 15.0895 43.0958 15.4468C43.1807 15.7984 43.2996 16.0876 43.4525 16.3145C43.6054 16.5357 43.7923 16.6973 44.0131 16.7994C44.2339 16.8958 44.4803 16.944 44.7521 16.944C45.1881 16.944 45.559 16.8533 45.8647 16.6718C46.1705 16.4903 46.4593 16.2322 46.7311 15.8976V11.9844ZM48.8291 5.84229V18.4838H47.5465C47.2691 18.4838 47.0935 18.3562 47.0199 18.101L46.8415 17.2588C46.4905 17.6614 46.0856 17.9875 45.6269 18.2371C45.1739 18.4866 44.6445 18.6114 44.0386 18.6114C43.5629 18.6114 43.1269 18.5121 42.7305 18.3136C42.3342 18.1151 41.9916 17.8287 41.7028 17.4544C41.4197 17.0744 41.1988 16.6065 41.0403 16.0508C40.8874 15.495 40.8109 14.8598 40.8109 14.1452C40.8109 13.4986 40.8987 12.8975 41.0742 12.3417C41.2498 11.7859 41.5018 11.3038 41.8302 10.8955C42.1586 10.4871 42.5522 10.1695 43.0108 9.94269C43.4695 9.71016 43.9848 9.5939 44.5567 9.5939C45.0437 9.5939 45.4599 9.67046 45.8053 9.82359C46.1507 9.97672 46.4593 10.1837 46.7311 10.4446V5.84229H48.8291Z" fill="black"/>
    <path d="M55.6901 17.1737C56.1601 17.1737 56.565 17.1198 56.9047 17.0121C57.2445 16.9043 57.5219 16.754 57.7371 16.5612C57.9579 16.3627 58.1193 16.1302 58.2212 15.8636C58.3232 15.5914 58.3741 15.2936 58.3741 14.9704C58.3741 14.3408 58.1505 13.8446 57.7031 13.4816C57.2558 13.113 56.5848 12.9287 55.6901 12.9287H53.057V17.1737H55.6901ZM53.057 7.59474V11.7547H55.2314C55.6958 11.7547 56.0978 11.7036 56.4375 11.6016C56.783 11.4995 57.0661 11.3577 57.2869 11.1762C57.5134 10.9947 57.6805 10.7764 57.7881 10.5212C57.8956 10.2603 57.9494 9.97672 57.9494 9.67046C57.9494 8.9502 57.7343 8.42559 57.3039 8.09666C56.8736 7.76204 56.2054 7.59474 55.2994 7.59474H53.057ZM55.2994 6.29316C56.0468 6.29316 56.6895 6.36689 57.2275 6.51434C57.7711 6.6618 58.2156 6.87164 58.561 7.14386C58.9121 7.41609 59.1697 7.7507 59.3339 8.1477C59.4981 8.53902 59.5803 8.98139 59.5803 9.4748C59.5803 9.77538 59.5321 10.0646 59.4359 10.3425C59.3453 10.6147 59.2065 10.87 59.0197 11.1082C58.8328 11.3464 58.595 11.5619 58.3062 11.7547C58.0231 11.9418 57.689 12.095 57.3039 12.2141C58.1986 12.3842 58.8696 12.7046 59.3169 13.1754C59.7699 13.6404 59.9964 14.2529 59.9964 15.0129C59.9964 15.529 59.9002 15.9997 59.7077 16.4251C59.5208 16.8504 59.2433 17.2162 58.8753 17.5225C58.5129 17.8287 58.0655 18.0669 57.5332 18.2371C57.001 18.4015 56.3951 18.4838 55.7156 18.4838H51.4177V6.29316H55.2994Z" fill="black"/>
    <path d="M63.4402 5.95288V18.4838H61.9283V5.95288H63.4402Z" fill="black"/>
    <path d="M69.5188 9.73001C70.1473 9.73001 70.7136 9.83493 71.2176 10.0448C71.7215 10.2546 72.1519 10.5524 72.5086 10.938C72.8654 11.3237 73.1372 11.7916 73.324 12.3417C73.5166 12.8861 73.6128 13.4958 73.6128 14.1707C73.6128 14.8513 73.5166 15.4638 73.324 16.0082C73.1372 16.5527 72.8654 17.0177 72.5086 17.4034C72.1519 17.789 71.7215 18.0868 71.2176 18.2966C70.7136 18.5008 70.1473 18.6029 69.5188 18.6029C68.8846 18.6029 68.3127 18.5008 67.8031 18.2966C67.2991 18.0868 66.8687 17.789 66.512 17.4034C66.1553 17.0177 65.8806 16.5527 65.6881 16.0082C65.5012 15.4638 65.4078 14.8513 65.4078 14.1707C65.4078 13.4958 65.5012 12.8861 65.6881 12.3417C65.8806 11.7916 66.1553 11.3237 66.512 10.938C66.8687 10.5524 67.2991 10.2546 67.8031 10.0448C68.3127 9.83493 68.8846 9.73001 69.5188 9.73001ZM69.5188 17.4204C70.3682 17.4204 71.0024 17.1368 71.4214 16.5697C71.8404 15.9969 72.05 15.2 72.05 14.1792C72.05 13.1527 71.8404 12.353 71.4214 11.7802C71.0024 11.2074 70.3682 10.921 69.5188 10.921C69.0885 10.921 68.7119 10.9947 68.3891 11.1422C68.072 11.2896 67.8059 11.5023 67.5907 11.7802C67.3812 12.0581 67.2226 12.4012 67.1151 12.8096C67.0131 13.2122 66.9622 13.6688 66.9622 14.1792C66.9622 15.2 67.1717 15.9969 67.5907 16.5697C68.0154 17.1368 68.6581 17.4204 69.5188 17.4204Z" fill="black"/>
    <path d="M81.5186 11.3974C81.4733 11.4598 81.428 11.508 81.3827 11.542C81.3374 11.576 81.2751 11.5931 81.1958 11.5931C81.1109 11.5931 81.0174 11.559 80.9155 11.491C80.8136 11.4172 80.6862 11.3378 80.5333 11.2528C80.3861 11.1677 80.202 11.0911 79.9812 11.0231C79.766 10.9494 79.4999 10.9125 79.1828 10.9125C78.7581 10.9125 78.3843 10.9891 78.0616 11.1422C77.7388 11.2896 77.467 11.5051 77.2462 11.7887C77.031 12.0723 76.8668 12.4154 76.7535 12.8181C76.6459 13.2207 76.5922 13.6716 76.5922 14.1707C76.5922 14.6925 76.6516 15.1575 76.7705 15.5659C76.8894 15.9685 77.0565 16.3088 77.2717 16.5867C77.4925 16.8589 77.7558 17.0688 78.0616 17.2162C78.373 17.358 78.7213 17.4289 79.1063 17.4289C79.4744 17.4289 79.7773 17.3864 80.0152 17.3013C80.253 17.2105 80.4483 17.1113 80.6012 17.0035C80.7598 16.8958 80.89 16.7994 80.9919 16.7143C81.0995 16.6236 81.2043 16.5782 81.3062 16.5782C81.4308 16.5782 81.5271 16.6264 81.595 16.7228L82.0197 17.2758C81.8328 17.5083 81.6205 17.7068 81.3827 17.8713C81.1448 18.0357 80.8872 18.1747 80.6097 18.2881C80.3379 18.3959 80.052 18.4753 79.7519 18.5263C79.4517 18.5774 79.146 18.6029 78.8345 18.6029C78.2966 18.6029 77.7954 18.5036 77.3311 18.3051C76.8725 18.1066 76.4732 17.8202 76.1335 17.4459C75.7937 17.0659 75.5276 16.6009 75.3351 16.0508C75.1425 15.5006 75.0463 14.8739 75.0463 14.1707C75.0463 13.5298 75.134 12.9372 75.3096 12.3927C75.4908 11.8483 75.7513 11.3804 76.091 10.9891C76.4364 10.5921 76.8583 10.283 77.3566 10.0618C77.8606 9.8406 78.4381 9.73001 79.0893 9.73001C79.6952 9.73001 80.2275 9.82926 80.6862 10.0278C81.1505 10.2206 81.561 10.4956 81.9178 10.8529L81.5186 11.3974Z" fill="black"/>
    <path d="M85.1631 5.95288V13.3285H85.5538C85.667 13.3285 85.7605 13.3143 85.8341 13.286C85.9134 13.2519 85.9955 13.1867 86.0804 13.0903L88.7984 10.1724C88.8777 10.076 88.9598 10.0022 89.0447 9.95119C89.1353 9.89448 89.2543 9.86612 89.4015 9.86612H90.769L87.6008 13.2434C87.4479 13.4363 87.2837 13.5865 87.1082 13.6943C87.2101 13.7624 87.3007 13.8418 87.38 13.9325C87.4649 14.0176 87.5442 14.1168 87.6178 14.2302L90.9813 18.4838H89.6308C89.5006 18.4838 89.3873 18.4639 89.2911 18.4242C89.2005 18.3789 89.1212 18.2995 89.0532 18.186L86.2248 14.6556C86.1399 14.5365 86.0549 14.4599 85.97 14.4259C85.8907 14.3862 85.7661 14.3664 85.5963 14.3664H85.1631V18.4838H83.6427V5.95288H85.1631Z" fill="black"/>
    <path d="M106.861 6.95361L101.901 19.2548H99.8369L94.8765 6.95361H96.7111C96.9093 6.95361 97.0707 7.00182 97.1953 7.09823C97.3199 7.19465 97.4133 7.31942 97.4756 7.47254L100.372 14.9758C100.468 15.2196 100.559 15.489 100.644 15.7839C100.734 16.0732 100.819 16.3766 100.899 16.6942C100.967 16.3766 101.04 16.0732 101.119 15.7839C101.199 15.489 101.286 15.2196 101.383 14.9758L104.262 7.47254C104.307 7.3421 104.395 7.223 104.525 7.11525C104.661 7.00749 104.826 6.95361 105.018 6.95361H106.861Z" fill="#0055B7"/>
    <path d="M112.125 13.1382C112.544 13.1382 112.909 13.0872 113.22 12.9851C113.532 12.8774 113.789 12.7271 113.993 12.5342C114.203 12.3357 114.358 12.0975 114.46 11.8197C114.562 11.5361 114.613 11.2213 114.613 10.8754C114.613 10.5464 114.562 10.2487 114.46 9.98213C114.358 9.71557 114.206 9.48872 114.002 9.30156C113.798 9.11441 113.54 8.97262 113.229 8.87621C112.917 8.77412 112.549 8.72308 112.125 8.72308H110.417V13.1382H112.125ZM112.125 6.95361C112.946 6.95361 113.656 7.05003 114.257 7.24285C114.857 7.43568 115.352 7.70507 115.743 8.05102C116.134 8.39698 116.422 8.81099 116.609 9.29306C116.802 9.77512 116.898 10.3026 116.898 10.8754C116.898 11.4709 116.799 12.0181 116.601 12.5172C116.403 13.0106 116.105 13.436 115.709 13.7933C115.313 14.1506 114.814 14.4285 114.214 14.627C113.62 14.8255 112.923 14.9247 112.125 14.9247H110.417V19.2548H108.133V6.95361H112.125Z" fill="#0055B7"/>
    <path d="M129.004 6.95361V19.2548H127.832C127.651 19.2548 127.498 19.2265 127.373 19.1698C127.254 19.1074 127.138 19.0053 127.025 18.8635L120.612 10.6627C120.646 11.037 120.663 11.383 120.663 11.7006V19.2548H118.65V6.95361H119.848C119.944 6.95361 120.026 6.95928 120.094 6.97063C120.168 6.9763 120.23 6.99331 120.281 7.02167C120.338 7.04436 120.391 7.08122 120.442 7.13226C120.493 7.17763 120.55 7.24002 120.612 7.31942L127.051 15.5543C127.034 15.3558 127.019 15.1601 127.008 14.9673C126.997 14.7744 126.991 14.5958 126.991 14.4313V6.95361H129.004Z" fill="#0055B7"/>
</svg>
