<svg viewBox="0 0 123 123" fill="none" xmlns="http://www.w3.org/2000/svg">
<path d="M62.5844 120.763C82.9426 120.23 99.4462 115.097 99.4462 109.298C99.4462 103.499 82.9426 99.2302 62.5844 99.7633C42.2262 100.296 25.7227 105.429 25.7227 111.228C25.7227 117.027 42.2262 121.296 62.5844 120.763Z" fill="black" fill-opacity="0.1"/>
<path fill-rule="evenodd" clip-rule="evenodd" d="M37.4362 22.466L17.738 53.6049C16.6252 55.3641 16 57.2318 16 58.7971V86.5098C16 88.0754 16.6252 89.2099 17.7382 89.6645C17.7382 89.6645 27.2147 95.3136 30.1479 96.5123C33.7808 97.9961 37.4363 97.7124 37.4363 97.7124C38.5492 98.1677 40.0587 97.9047 41.6326 96.9823L69.4945 80.6529C71.0684 79.7305 72.5779 78.2239 73.6908 76.4646L93.3889 45.3278C94.5021 43.5686 95.1269 41.7008 95.1269 40.1352L102.744 21.9615C102.744 21.5041 106.064 16.7379 105.961 16.3602C105.711 15.4455 94.1765 9.58959 93.3889 9.26771L73.6908 1.21808C72.5779 0.763271 71.0683 1.02602 69.4943 1.94851L41.6328 18.2775C40.0588 19.2 38.5492 20.7066 37.4362 22.466Z" fill="#F06A21"/>
<path fill-rule="evenodd" clip-rule="evenodd" d="M49.3088 29.1432L29.6106 60.2821C28.4977 62.0414 27.8726 63.909 27.8726 65.4744V93.1871C27.8726 94.7526 28.4978 95.8872 29.6108 96.3417L49.3089 104.39C50.4218 104.845 51.9313 104.582 53.5052 103.66L81.367 87.3301C82.941 86.4078 84.4504 84.9012 85.5634 83.1419L105.261 52.0051C106.375 50.2459 107 48.378 107 46.8125V19.1001C107 17.5346 106.375 16.3997 105.261 15.945L85.5634 7.89532C84.4504 7.44052 82.9409 7.70327 81.3669 8.62578L53.5054 24.9547C51.9313 25.8772 50.4218 27.3839 49.3088 29.1432Z" fill="#FFA841"/>
<g opacity="0.1">
<path d="M75.3294 25.532C73.2608 24.7655 72.8861 22.0003 74.6762 20.7111L81.6607 15.6806C82.8958 14.7909 84.6183 15.0711 85.508 16.3063L91.2187 24.2355C92.1087 25.4707 91.8287 27.1932 90.5933 28.0828L88.9384 29.2748C88.1936 29.8112 87.2306 29.9417 86.3699 29.6228L75.3294 25.532Z" fill="black"/>
<path d="M77.0871 23.2575C75.696 22.1487 75.7041 20.0321 77.1036 18.9339L82.3497 14.8173C83.6862 13.7687 85.6439 14.1669 86.4644 15.6543L90.7374 23.3998C91.6988 25.1425 90.5532 27.2985 88.5706 27.4763L84.1066 27.877C83.4003 27.9403 82.6968 27.7291 82.1423 27.2871L77.0871 23.2575Z" fill="black"/>
<path d="M63.3632 95.0778C61.6606 96.0694 59.5403 94.7595 59.6665 92.7925L60.3881 81.5508C60.4752 80.1945 61.6459 79.1646 63.0028 79.2523L75.012 80.0229C76.3689 80.1098 77.3983 81.2805 77.3112 82.6375L77.1077 85.8069C77.0552 86.6254 76.5988 87.3636 75.8905 87.7769L63.3632 95.0778Z" fill="black"/>
<path d="M66.7082 91.2077C65.3896 91.7322 63.9021 91.036 63.4597 89.6878L61.029 82.2801C60.4989 80.6644 61.727 79.0105 63.4268 79.051L75.6579 79.3413C77.2172 79.3789 78.3494 80.8376 77.9981 82.3574L77.1777 85.9062C76.9957 86.693 76.4391 87.3414 75.6882 87.6397L66.7082 91.2077Z" fill="black"/>
<path d="M88.5708 35.2163C87.9323 33.3521 89.6337 31.5305 91.537 32.0406L102.418 34.9561C103.731 35.308 104.511 36.658 104.159 37.9713L99.8155 48.9528C99.4633 50.2662 99.3425 51.688 98.029 51.3361L94.9612 50.514C94.1693 50.3018 93.535 49.7093 93.269 48.9337L88.5708 35.2163Z" fill="black"/>
<path d="M79.0625 59.8015C77.5567 57.5537 79.1677 54.5352 81.8733 54.5352H89.0676C90.0871 54.5352 91.0007 54.986 91.621 55.6991C92.6745 56.9104 92.2192 58.7001 91.7624 60.2392L90.7082 63.7924C90.2514 65.3315 90.2433 67.1212 89.1899 68.3325C88.5696 69.0456 87.6556 69.4964 86.6362 69.4964H85.4176C84.2891 69.4964 84.2152 69.1309 83.587 68.1934L79.0625 59.8015Z" fill="black"/>
<path d="M79.4548 59.7075C77.8231 57.2085 79.9909 53.9747 82.9224 54.5346L86.1566 55.1524C87.6988 55.447 88.8357 56.7639 88.902 58.3327L89.1521 64.251C89.21 65.6213 88.3405 66.8596 87.032 67.2704C85.7367 67.6771 84.3289 67.1727 83.5867 66.0358L79.4548 59.7075Z" fill="black"/>
<path d="M72.5717 50.1936C69.7632 50.9318 67.2495 48.2724 68.1444 45.51L70.5914 37.9567C71.2267 35.9961 73.3505 34.9419 75.2962 35.6216L84.7129 38.9112C86.6238 39.5787 87.6343 41.6666 86.9722 43.5794L86.5361 44.8394C86.1354 45.9969 85.1839 46.8785 83.9993 47.1899L72.5717 50.1936Z" fill="black"/>
<path d="M75.0632 45.9649C73.1129 46.1159 71.3865 44.7117 71.1372 42.7715L70.64 38.9029C70.3484 36.6341 72.1794 34.6537 74.464 34.7668L83.553 35.2167C85.4658 35.3115 86.9846 36.8601 87.0422 38.7743L87.1248 41.521C87.1837 43.4809 85.6926 45.1415 83.7376 45.2929L75.0632 45.9649Z" fill="black"/>
<path d="M49.9555 33.8666C51.057 32.2338 53.5348 32.4914 54.2769 34.3158L58.441 44.552C58.9534 45.8115 58.3477 47.2478 57.0883 47.7602L46.1003 52.2301C44.8408 52.7425 43.4044 52.1368 42.8921 50.8774L41.7269 48.0131C41.4177 47.253 41.5075 46.3888 41.9665 45.7085L49.9555 33.8666Z" fill="black"/>
<path d="M50.3199 33.1355C51.4759 31.4078 54.1205 31.8021 54.7225 33.7919L56.7865 40.6146C57.0651 41.5357 56.7816 42.5347 56.0607 43.172L51.111 47.5478C50.1978 48.3551 48.8312 48.3728 47.8976 47.5891L44.9467 45.1125C43.9843 44.3047 43.7845 42.9018 44.4833 41.8575L50.3199 33.1355Z" fill="black"/>
<path d="M42.0962 73.7315C40.1564 75.0713 37.5072 73.7035 37.4757 71.3464L37.3577 62.5353C37.3351 60.8482 38.7312 59.4866 40.4172 59.5515L50.1859 59.9273C51.5825 59.981 52.7492 61.0085 52.9791 62.3871L53.2438 63.9757C53.4317 65.1023 52.9515 66.2359 52.0117 66.8849L42.0962 73.7315Z" fill="black"/>
<path d="M43.903 70.936C42.347 71.7504 40.4287 71.0314 39.7912 69.3951L38.1092 65.0782C37.4914 63.4923 38.3418 61.7143 39.9642 61.1999L46.3903 59.1623C47.3607 58.8546 48.4212 59.0696 49.1951 59.7309L52.0048 62.132C53.5905 63.487 53.3049 66.0154 51.4569 66.9826L43.903 70.936Z" fill="black"/>
<path d="M53.2634 98.3655C53.2647 100.335 51.0674 101.509 49.4311 100.413L43.2052 96.2415C42.0756 95.4849 41.7733 93.9554 42.5301 92.826L47.2995 85.7064C48.0564 84.577 49.5857 84.2749 50.7153 85.0315L52.1649 86.0025C52.8467 86.4593 53.256 87.2262 53.2566 88.0469L53.2634 98.3655Z" fill="black"/>
<path d="M53.0107 94.623C52.9059 96.7359 50.3602 97.7416 48.8397 96.2703L46.7446 94.2429C46.1561 93.6734 45.8894 92.8482 46.0327 92.0423L46.9891 86.6627C47.2852 84.997 49.1346 84.1188 50.6122 84.9432L52.0777 85.7602C52.8956 86.217 53.3839 87.0974 53.3375 88.033L53.0107 94.623Z" fill="black"/>
<path d="M43.2058 85.7376C45.4244 87.7798 44.4659 91.4715 41.5341 92.1759L35.5035 93.6257C33.4795 94.112 31.4444 92.8654 30.9578 90.8416L29.0325 82.8313C28.546 80.8075 29.7924 78.7719 31.8164 78.2857L32.4727 78.128C33.6942 77.8341 34.9817 78.1686 35.9061 79.0195L43.2058 85.7376Z" fill="black"/>
<path d="M39.9643 84.4962C41.9223 86.8353 39.5249 90.2581 36.6578 89.2178C36.373 89.1139 36.1056 88.9681 35.8649 88.7839L31.46 85.4208C29.2244 83.7145 29.7211 80.218 32.3435 79.2014C33.7821 78.6437 35.4162 79.0636 36.4067 80.2468L39.9643 84.4962Z" fill="black"/>
</g>
<path d="M82.9137 25.1657C78.5996 23.5672 77.8183 17.8004 81.5515 15.1116C84.1274 13.2563 87.7196 13.8405 89.5749 16.4164L92.7599 20.8384C94.0786 22.6699 93.6639 25.2239 91.8324 26.543C90.728 27.3384 89.2999 27.5319 88.0237 27.059L82.9137 25.1657Z" fill="#660000"/>
<path d="M82.1067 23.0941C79.3364 20.8859 79.3525 16.6706 82.1396 14.4837C84.8011 12.3952 88.7 13.1883 90.334 16.1505L91.3389 17.9719C93.1092 21.1801 90.9993 25.1493 87.3497 25.4767C86.0494 25.5934 84.7542 25.2045 83.7333 24.3907L82.1067 23.0941Z" fill="#78223D"/>
<path d="M72.0323 89.0597C67.6221 91.6301 62.1298 88.2353 62.4568 83.1408C62.6824 79.6259 65.7147 76.9597 69.2296 77.1852L75.2634 77.5727C77.7625 77.7333 79.6584 79.8889 79.4979 82.3879C79.4012 83.8945 78.5607 85.2545 77.2561 86.0148L72.0323 89.0597Z" fill="#660000"/>
<path d="M72.136 87.6554C69.1329 88.8488 65.7451 87.2634 64.7376 84.1928C63.5303 80.5136 66.3273 76.7475 70.1985 76.8395L75.4265 76.9633C78.3029 77.0318 80.3917 79.7238 79.7436 82.527C79.4078 83.9791 78.3809 85.1741 76.9959 85.7244L72.136 87.6554Z" fill="#78223D"/>
<path d="M93.1206 38.7125C93.3682 34.6238 98.0795 32.4683 101.335 34.9545C103.581 36.67 104.012 39.8816 102.297 42.1279L99.3511 45.9838C98.1318 47.5809 95.848 47.8868 94.2508 46.6671C93.2879 45.9316 92.7545 44.765 92.8274 43.5556L93.1206 38.7125Z" fill="#660000"/>
<path d="M96.3182 38.6001C96.9466 36.8396 98.7958 35.8306 100.616 36.2546C103.058 36.8231 104.227 39.6141 102.921 41.7534L99.9046 46.6905C98.9549 48.2451 96.8715 48.6409 95.4179 47.543C94.3438 46.7315 93.9209 45.3166 94.3733 44.0487L96.3182 38.6001Z" fill="#78223D"/>
<path d="M82.4655 60.8064C79.8452 56.8952 82.6484 51.6431 87.3562 51.6431C90.6075 51.6431 93.2427 54.2787 93.2427 57.5299V63.1513C93.2427 65.4587 91.3729 67.3292 89.0652 67.3292C87.6717 67.3292 86.3698 66.6344 85.5943 65.4766L82.4655 60.8064Z" fill="#660000"/>
<path d="M84.0247 59.6031C81.8882 56.331 84.7267 52.0966 88.5652 52.8298C90.5844 53.2156 92.0733 54.94 92.1603 56.9941L92.3754 62.084C92.4329 63.4542 91.5635 64.6926 90.2551 65.1034C88.9598 65.5101 87.5521 65.0056 86.8098 63.8688L84.0247 59.6031Z" fill="#78223D"/>
<path d="M69.9876 36.2239C65.9799 37.2773 62.3927 33.4823 63.6698 29.5402C64.5762 26.7423 67.6072 25.2379 70.3838 26.2078L75.1802 27.8834C77.0993 28.5539 78.1141 30.6506 77.4491 32.5716C77.0467 33.7342 76.0912 34.6196 74.9014 34.9323L69.9876 36.2239Z" fill="#660000"/>
<path d="M69.4126 33.7329C67.0457 33.9162 64.9506 32.212 64.648 29.8575C64.2941 27.1042 66.5162 24.7009 69.2887 24.8381L73.8097 25.0619C75.9813 25.1694 77.7058 26.9276 77.7711 29.1009C77.8381 31.3261 76.1451 33.2113 73.9256 33.3833L69.4126 33.7329Z" fill="#78223D"/>
<path d="M48.2448 37.5235C51.0661 33.3416 57.4119 34.0012 59.3128 38.674C60.6251 41.8997 59.0738 45.5786 55.8481 46.8908L50.2884 49.1525C47.9972 50.0845 45.3843 48.9827 44.4522 46.6916C43.8897 45.3088 44.0532 43.7367 44.888 42.4991L48.2448 37.5235Z" fill="#660000"/>
<path d="M49.5999 35.363C51.9706 31.8202 57.3935 32.6286 58.6278 36.7088C59.1992 38.5975 58.6178 40.646 57.1394 41.953L54.8467 43.9799C53.1207 45.5057 50.5382 45.5389 48.7737 44.0579C46.9547 42.5314 46.5773 39.8799 47.898 37.9064L49.5999 35.363Z" fill="#78223D"/>
<path d="M47.6322 69.9308C43.7115 72.6382 38.3568 69.874 38.293 65.1097C38.2474 61.6996 41.0691 58.9477 44.4771 59.0787L50.1745 59.2979C52.0976 59.3719 53.7043 60.7867 54.0207 62.6852C54.2794 64.2365 53.6182 65.7975 52.324 66.6911L47.6322 69.9308Z" fill="#660000"/>
<path d="M46.8435 67.3796C44.1673 68.7802 40.8679 67.5437 39.7713 64.7292C38.7086 62.0015 40.1713 58.9433 42.9618 58.0585L46.2688 57.0099C47.8375 56.5126 49.5519 56.8602 50.803 57.9293C53.3665 60.1199 52.9048 64.2073 49.9172 65.7709L46.8435 67.3796Z" fill="#78223D"/>
<path d="M55.5813 91.1607C55.584 95.2156 51.0605 97.632 47.6918 95.3747C45.3662 93.8166 44.744 90.6685 46.302 88.3427L48.9873 84.3349C50.0939 82.6832 52.33 82.2412 53.9818 83.3477C54.9787 84.016 55.5774 85.1365 55.5781 86.3359L55.5813 91.1607Z" fill="#660000"/>
<path d="M55.4476 89.9591C55.2976 92.987 51.6506 94.4273 49.4722 92.3188C48.6293 91.5032 48.2471 90.3223 48.4525 89.1671L49.1061 85.4901C49.5019 83.2637 51.9738 82.0909 53.9488 83.1923C55.042 83.8023 55.6946 84.9788 55.6326 86.229L55.4476 89.9591Z" fill="#78223D"/>
<path d="M41.4406 82.1635C44.9291 85.3741 43.4221 91.178 38.8121 92.286C35.6297 93.0515 32.4298 91.0911 31.6648 87.9092L30.3465 82.4243C29.8032 80.1633 31.1952 77.8905 33.4556 77.3475C34.8198 77.0197 36.2576 77.3932 37.2899 78.3429L41.4406 82.1635Z" fill="#660000"/>
<path d="M41.1752 83.6617C43.1332 86.0008 40.7359 89.4236 37.8687 88.3834C37.584 88.2795 37.3166 88.1336 37.0758 87.9494L32.671 84.5863C30.4354 82.88 30.932 79.3836 33.5544 78.3669C34.993 77.8092 36.6271 78.2291 37.6176 79.4123L41.1752 83.6617Z" fill="#78223D"/>
<path opacity="0.1" fill-rule="evenodd" clip-rule="evenodd" d="M66.897 85.2244C80.4484 77.7062 83.6639 64.218 83.6639 64.218L91.4418 38.8608C91.4418 38.8608 92.1439 36.2868 92.015 36.334C84.7723 39.0783 83.2322 44.7382 83.2322 44.7382C83.2322 44.7382 80.4484 53.0904 80.0167 53.3299C79.5849 53.5695 79.5334 53.0945 79.5334 53.0945V28.6365C79.5334 28.6365 79.6687 25.4063 76.2277 27.3155C72.7867 29.2246 72.9606 32.2892 72.9606 32.2892L72.9671 50.3546C72.9671 50.3546 73.0122 51.0577 72.3678 51.4152C71.7943 51.7334 71.8265 51.0117 71.8265 51.0117V29.2416C71.8265 29.2416 72.0392 25.5681 68.5595 27.4987C65.0798 29.4293 65.2667 32.9054 65.2667 32.9054L65.2345 54.4021C65.2345 54.4021 65.2796 55.0385 64.706 55.3567C64.1712 55.6534 64.1905 54.9873 64.1905 54.9873V36.9791C64.1905 36.9791 64.3838 33.2071 60.8397 35.1734C57.36 37.104 57.5469 40.7318 57.5469 40.7318L57.5147 59.7652C57.5147 59.7652 57.5791 60.2816 57.0314 60.5855C56.4514 60.9072 56.4643 60.348 56.4643 60.348L56.4386 48.8644C56.4386 48.8644 56.4708 45.6671 53.5453 47.2903C50.4328 49.0171 50.4909 52.1643 50.4909 52.1643V76.9805C50.5102 76.9635 49.7047 94.7635 66.897 85.2244Z" fill="black"/>
<path d="M74.5349 91.7584L74.5857 91.7429L74.6321 91.7171C81.565 87.8707 85.3266 80.9683 87.3551 75.0922C88.3717 72.1474 88.9596 69.4421 89.2935 67.4727C89.4605 66.4875 89.5643 65.6853 89.6264 65.1279C89.6574 64.8491 89.6783 64.6315 89.6908 64.4828C89.6945 64.4406 89.6975 64.404 89.7004 64.3732L103.536 41.0045L103.756 40.6332L103.423 40.359L103.103 40.7478C103.423 40.359 103.423 40.359 103.423 40.359L103.423 40.3587L103.422 40.3582L103.419 40.3557L103.407 40.3461L103.362 40.3087L103.19 40.167C103.041 40.045 102.829 39.8707 102.574 39.6618C102.063 39.2439 101.382 38.6871 100.696 38.1316C100.01 37.5765 99.3183 37.0212 98.7894 36.6069C98.5249 36.4003 98.298 36.2259 98.1307 36.1035C98.0482 36.0432 97.9738 35.9905 97.9141 35.952C97.8854 35.9338 97.8493 35.9114 97.8117 35.8924C97.794 35.8835 97.7609 35.8675 97.7189 35.8543C97.6975 35.8476 97.6614 35.8376 97.6158 35.8327C97.576 35.8284 97.4876 35.8232 97.3844 35.8609L97.3793 35.8628C93.6559 37.2736 91.3846 39.4408 90.0445 41.267C89.3751 42.1786 88.939 43.0034 88.6691 43.6045C88.5341 43.9051 88.4405 44.1501 88.3799 44.3226C88.3496 44.4088 88.3275 44.4769 88.3127 44.5248C88.3053 44.5488 88.2997 44.5677 88.2957 44.5813L88.2934 44.5897L88.289 44.6025L88.2657 44.6721C88.2453 44.7331 88.2153 44.8227 88.1769 44.9369C88.1001 45.1653 87.9899 45.4919 87.8563 45.8846C87.5889 46.6702 87.2281 47.7196 86.8541 48.776C86.4797 49.8335 86.0936 50.8934 85.7752 51.7017C85.7061 51.8772 85.6407 52.0393 85.5799 52.1861V28.6441L85.58 28.6398C85.5802 28.6307 85.5805 28.6187 85.5805 28.6039C85.5807 28.5743 85.5804 28.5334 85.5786 28.4834C85.5751 28.3838 85.5656 28.2456 85.5416 28.0866C85.4951 27.7775 85.388 27.3468 85.127 26.972C84.852 26.5772 84.4144 26.2605 83.7752 26.2139C83.1657 26.1695 82.4276 26.3747 81.526 26.8749C79.6921 27.8924 78.8011 29.2333 78.3763 30.3373C78.1654 30.8853 78.0711 31.3701 78.0296 31.7214C78.0089 31.8973 78.0012 32.0404 77.9989 32.1425C77.9978 32.1934 77.998 32.2342 77.9986 32.2638C77.9988 32.2786 77.9992 32.2905 77.9995 32.2996L78.006 50.3547V50.3707L78.0067 50.3809C78.0067 50.3818 78.0067 50.3832 78.0067 50.3848C78.0067 50.3927 78.0064 50.408 78.0047 50.4289C78.0012 50.4717 77.9923 50.5326 77.9712 50.5997C77.951 50.6642 77.9206 50.7319 77.873 50.7963V29.2535V29.2527C77.8735 29.2432 77.8739 29.2303 77.8743 29.2142C77.8752 29.1822 77.8759 29.1374 77.8753 29.0823C77.8742 28.9725 77.8682 28.8196 77.8489 28.6428C77.8111 28.2981 77.7182 27.8222 77.4794 27.3986C77.2318 26.9595 76.8144 26.5606 76.158 26.4586C75.5306 26.3612 74.7733 26.5501 73.8578 27.058C71.9907 28.0939 71.0965 29.5551 70.6753 30.7596C70.4659 31.3588 70.3735 31.8931 70.3334 32.2801C70.3134 32.4739 70.3064 32.6318 70.3045 32.7435C70.3035 32.7995 70.3038 32.844 70.3045 32.8759C70.3047 32.8918 70.3052 32.9046 70.3055 32.914L70.3056 32.9156L70.2734 54.4013V54.4194L70.2742 54.4312C70.2742 54.4318 70.2742 54.4324 70.2742 54.4332C70.2742 54.4393 70.2741 54.4519 70.2728 54.4696C70.2701 54.5058 70.263 54.5572 70.246 54.6135C70.2432 54.6226 70.2402 54.6317 70.237 54.6408V36.9893L70.2371 36.9865C70.2375 36.9769 70.2378 36.9637 70.2382 36.9474C70.2389 36.9146 70.2392 36.8688 70.2383 36.8125C70.2364 36.7001 70.2294 36.5436 70.2085 36.3626C70.1678 36.0094 70.0702 35.5232 69.8253 35.0906C69.5721 34.6433 69.1477 34.2356 68.481 34.1285C67.8421 34.026 67.0705 34.2154 66.138 34.7328C64.2658 35.7716 63.3731 37.2753 62.9539 38.5152C62.7452 39.1325 62.6533 39.6849 62.6134 40.0848C62.5936 40.2852 62.5866 40.4484 62.5846 40.5638C62.5837 40.6216 62.584 40.6675 62.5846 40.7002C62.585 40.7166 62.5854 40.7296 62.5857 40.7393L62.5858 40.7416L62.5536 59.7642L62.5535 59.796L62.556 59.8151C62.556 59.8177 62.5559 59.8216 62.5557 59.8267C62.5548 59.8457 62.5513 59.8759 62.5404 59.9106C62.5342 59.9306 62.525 59.9542 62.51 59.98L62.485 48.865V48.8634V48.8528C62.485 48.8442 62.4849 48.8326 62.4846 48.8183C62.484 48.7897 62.4827 48.75 62.4799 48.7012C62.4743 48.604 62.4627 48.4689 62.4384 48.3126C62.391 48.0078 62.2899 47.5867 62.0637 47.2094C61.8307 46.8208 61.4493 46.4581 60.8611 46.3551C60.2938 46.2558 59.6263 46.4153 58.8436 46.8496C57.1622 47.7825 56.3293 49.1072 55.9217 50.1984C55.7188 50.7416 55.621 51.2267 55.5738 51.5784C55.5502 51.7547 55.5391 51.8983 55.534 52.0003C55.5314 52.0513 55.5304 52.092 55.5299 52.1212C55.5297 52.1358 55.5297 52.1475 55.5297 52.1563L55.5298 52.1671V76.9782L55.5282 77.0121C55.5263 77.0504 55.5234 77.1086 55.5204 77.1845C55.5142 77.3363 55.5075 77.5573 55.5058 77.8365C55.5024 78.3935 55.5192 79.1825 55.6024 80.1093C55.7683 81.957 56.2006 84.3823 57.2831 86.6264C58.369 88.8778 60.1199 90.9664 62.9202 92.0803C65.7142 93.1913 69.4781 93.3033 74.5349 91.7584Z" fill="#C6C6C6"/>
<path d="M103.423 40.359L103.756 40.6332L103.536 41.0045L89.7004 64.3732C89.6975 64.404 89.6945 64.4406 89.6908 64.4828C89.6783 64.6315 89.6574 64.8491 89.6264 65.1279C89.5643 65.6853 89.4605 66.4875 89.2935 67.4727C88.9596 69.4421 88.3717 72.1474 87.3551 75.0922C85.3266 80.9683 81.565 87.8707 74.6321 91.7171L74.5857 91.7429L74.5349 91.7584C69.4781 93.3033 65.7142 93.1913 62.9202 92.0803C60.1199 90.9664 58.369 88.8778 57.2831 86.6264C56.2006 84.3823 55.7683 81.957 55.6024 80.1093C55.5192 79.1825 55.5024 78.3935 55.5058 77.8365C55.5075 77.5573 55.5142 77.3363 55.5204 77.1845C55.5234 77.1086 55.5263 77.0504 55.5282 77.0121L55.5298 76.9782V52.1671L55.5297 52.1563C55.5297 52.1475 55.5297 52.1358 55.5299 52.1212C55.5304 52.092 55.5314 52.0513 55.534 52.0003C55.5391 51.8983 55.5502 51.7547 55.5738 51.5784C55.621 51.2267 55.7188 50.7416 55.9217 50.1984C56.3293 49.1072 57.1622 47.7825 58.8436 46.8496C59.6263 46.4153 60.2938 46.2558 60.8611 46.3551C61.4493 46.4581 61.8307 46.8208 62.0637 47.2094C62.2899 47.5867 62.391 48.0078 62.4384 48.3126C62.4627 48.4689 62.4743 48.604 62.4799 48.7012C62.4827 48.75 62.484 48.7897 62.4846 48.8183C62.4849 48.8326 62.485 48.8442 62.485 48.8528V48.8634V48.865L62.51 59.98C62.525 59.9542 62.5342 59.9306 62.5404 59.9106C62.5513 59.8759 62.5548 59.8457 62.5557 59.8267C62.5559 59.8216 62.556 59.8177 62.556 59.8151L62.5535 59.796L62.5536 59.7642L62.5858 40.7416L62.5857 40.7393C62.5854 40.7296 62.585 40.7166 62.5846 40.7002C62.584 40.6675 62.5837 40.6216 62.5846 40.5638C62.5866 40.4484 62.5936 40.2852 62.6134 40.0848C62.6533 39.6849 62.7452 39.1325 62.9539 38.5152C63.3731 37.2753 64.2658 35.7716 66.138 34.7328C67.0705 34.2154 67.8421 34.026 68.481 34.1285C69.1477 34.2356 69.5721 34.6433 69.8253 35.0906C70.0702 35.5232 70.1678 36.0094 70.2085 36.3626C70.2294 36.5436 70.2364 36.7001 70.2383 36.8125C70.2392 36.8688 70.2389 36.9146 70.2382 36.9474C70.2378 36.9637 70.2375 36.9769 70.2371 36.9865L70.237 36.9893V54.6408C70.2402 54.6317 70.2432 54.6226 70.246 54.6135C70.263 54.5572 70.2701 54.5058 70.2728 54.4696C70.2741 54.4519 70.2742 54.4393 70.2742 54.4332C70.2742 54.4324 70.2742 54.4318 70.2742 54.4312L70.2734 54.4194V54.4013L70.3056 32.9156L70.3055 32.914C70.3052 32.9046 70.3047 32.8918 70.3045 32.8759C70.3038 32.844 70.3035 32.7995 70.3045 32.7435C70.3064 32.6318 70.3134 32.4739 70.3334 32.2801C70.3735 31.8931 70.4659 31.3588 70.6753 30.7596C71.0965 29.5551 71.9907 28.0939 73.8578 27.058C74.7733 26.5501 75.5306 26.3612 76.158 26.4586C76.8144 26.5606 77.2318 26.9595 77.4794 27.3986C77.7182 27.8222 77.8111 28.2981 77.8489 28.6428C77.8682 28.8196 77.8742 28.9725 77.8753 29.0823C77.8759 29.1374 77.8752 29.1822 77.8743 29.2142C77.8739 29.2303 77.8735 29.2432 77.873 29.2527V29.2535V50.7963C77.9206 50.7319 77.951 50.6642 77.9712 50.5997C77.9923 50.5326 78.0012 50.4717 78.0047 50.4289C78.0064 50.408 78.0067 50.3927 78.0067 50.3848C78.0067 50.3832 78.0067 50.3818 78.0067 50.3809L78.006 50.3707V50.3547L77.9995 32.2996C77.9992 32.2905 77.9988 32.2786 77.9986 32.2638C77.998 32.2342 77.9978 32.1934 77.9989 32.1425C78.0012 32.0404 78.0089 31.8973 78.0296 31.7214C78.0711 31.3701 78.1654 30.8853 78.3763 30.3373C78.8011 29.2333 79.6921 27.8924 81.526 26.8749C82.4276 26.3747 83.1657 26.1695 83.7752 26.2139C84.4144 26.2605 84.852 26.5772 85.127 26.972C85.388 27.3468 85.4951 27.7775 85.5416 28.0866C85.5656 28.2456 85.5751 28.3838 85.5786 28.4834C85.5804 28.5334 85.5807 28.5743 85.5805 28.6039C85.5805 28.6187 85.5802 28.6307 85.58 28.6398L85.5799 28.6441V52.1861C85.6407 52.0393 85.7061 51.8772 85.7752 51.7017C86.0936 50.8934 86.4797 49.8335 86.8541 48.776C87.2281 47.7196 87.5889 46.6702 87.8563 45.8846C87.9899 45.4919 88.1001 45.1653 88.1769 44.9369C88.2153 44.8227 88.2453 44.7331 88.2657 44.6721L88.289 44.6025L88.2934 44.5897L88.2957 44.5813C88.2997 44.5677 88.3053 44.5488 88.3127 44.5248C88.3275 44.4769 88.3496 44.4088 88.3799 44.3226C88.4405 44.1501 88.5341 43.9051 88.6691 43.6045C88.939 43.0034 89.3751 42.1786 90.0445 41.267C91.3846 39.4408 93.6559 37.2736 97.3793 35.8628L97.3844 35.8609C97.4876 35.8232 97.576 35.8284 97.6158 35.8327C97.6614 35.8376 97.6975 35.8476 97.7189 35.8543C97.7609 35.8675 97.794 35.8835 97.8117 35.8924C97.8493 35.9114 97.8854 35.9338 97.9141 35.952C97.9738 35.9905 98.0482 36.0432 98.1307 36.1035C98.298 36.2259 98.5249 36.4003 98.7894 36.6069C99.3183 37.0212 100.01 37.5765 100.696 38.1316C101.382 38.6871 102.063 39.2439 102.574 39.6618C102.829 39.8707 103.041 40.045 103.19 40.167L103.362 40.3087L103.407 40.3461L103.419 40.3557L103.422 40.3582L103.423 40.3587L103.423 40.359ZM103.423 40.359L103.103 40.7478C103.423 40.359 103.423 40.359 103.423 40.359ZM69.9667 54.9339C69.9667 54.9338 69.9675 54.9335 69.9692 54.933M77.6197 50.9963C77.6197 50.9962 77.6207 50.9959 77.6225 50.9954" stroke="#C6C6C6" stroke-width="1.00755"/>
<path d="M69.3021 34.5002L68.9221 34.1538L68.5836 34.5408L66.1296 37.3458L65.9453 37.5565L66.0269 37.8244L70.1258 51.2724L71.1086 51.1789L72.5405 37.7308L72.5676 37.4771L72.379 37.3052L69.3021 34.5002Z" fill="#C6C6C6" stroke="#C6C6C6" stroke-width="1.00755"/>
<path d="M77.3011 27.1633L76.9211 26.8169L76.5826 27.2039L74.1287 30.0089L73.9429 30.2214L74.027 30.4908L78.189 43.8198L79.171 43.7211L80.5398 30.3921L80.5657 30.1394L80.378 29.9683L77.3011 27.1633Z" fill="#C6C6C6" stroke="#C6C6C6" stroke-width="1.00755"/>
<path d="M61.9106 47.1233L61.5491 46.7979L61.2113 47.1476L58.7477 49.6982L58.5132 49.9409L58.6485 50.2501L64.1913 62.9142L65.1566 62.7122V50.2691V50.0447L64.9898 49.8946L61.9106 47.1233Z" fill="#C6C6C6" stroke="#C6C6C6" stroke-width="1.00755"/>
<path d="M84.9879 26.7836L84.6494 26.5068L84.3278 26.8029L81.5565 29.3535L81.2612 29.6252L81.46 29.9736L87.6018 40.7448L88.2448 41.8723L88.5308 40.6063L90.5462 31.6895L90.6147 31.3857L90.3738 31.1885L84.9879 26.7836Z" fill="#C6C6C6" stroke="#C6C6C6" stroke-width="1.00755"/>
<path d="M102.955 43.4717L102.956 43.4698L102.957 43.4641L102.963 43.4422L102.985 43.3598C103.005 43.289 103.032 43.188 103.064 43.0669C103.128 42.8251 103.212 42.5023 103.293 42.1803C103.373 41.8602 103.451 41.5339 103.501 41.2877C103.525 41.1679 103.547 41.0512 103.556 40.9597C103.56 40.9223 103.567 40.8494 103.558 40.7735V40.7723C103.555 40.7456 103.542 40.6351 103.465 40.5257C103.418 40.4595 103.335 40.3752 103.203 40.3328C103.071 40.2898 102.951 40.3096 102.87 40.3394L102.865 40.3413C99.1404 41.7522 96.8699 43.9193 95.529 45.7456C94.8601 46.6571 94.424 47.4819 94.1543 48.083C94.0195 48.3836 93.9252 48.6287 93.8648 48.8011C93.8346 48.8873 93.8125 48.9555 93.7977 49.0033C93.7904 49.0273 93.7845 49.0462 93.7808 49.0598L93.7786 49.0681L93.7742 49.081L93.7506 49.1506C93.7307 49.2116 93.7005 49.3012 93.6622 49.4154C93.5848 49.6438 93.4751 49.9704 93.341 50.3631C93.0743 51.1488 92.7133 52.1981 92.339 53.2545C91.9648 54.312 91.5787 55.3719 91.2605 56.1802C91.1912 56.3556 91.1256 56.5178 91.0652 56.6646V33.1226V33.1183C91.0652 33.1092 91.0652 33.0972 91.0652 33.0824C91.066 33.0528 91.0652 33.0119 91.0638 32.9619C91.0601 32.8623 91.0505 32.7241 91.0269 32.5651C90.9805 32.256 90.873 31.8253 90.6122 31.4505C90.3366 31.0557 89.8997 30.7391 89.2602 30.6924C88.6507 30.648 87.9126 30.8532 87.011 31.3534C85.1771 32.3709 84.2861 33.7118 83.8614 34.8158C83.6504 35.3638 83.5561 35.8486 83.5146 36.1999C83.4939 36.3758 83.4862 36.5189 83.4839 36.621C83.4828 36.672 83.483 36.7128 83.4836 36.7423C83.4839 36.7571 83.4842 36.7691 83.4846 36.7781L83.491 54.8332V54.8492L83.4917 54.8594C83.4917 54.8604 83.4917 54.8616 83.4917 54.8633C83.4917 54.8712 83.4914 54.8865 83.4897 54.9074C83.4862 54.9502 83.4773 55.0111 83.4562 55.0782C83.436 55.1427 83.4056 55.2105 83.358 55.2748V33.732V33.7312C83.3585 33.7217 83.3589 33.7088 83.3593 33.6927C83.3602 33.6607 83.3609 33.6159 83.3603 33.5608C83.3592 33.451 83.3532 33.2981 83.3339 33.1213C83.2961 32.7766 83.2032 32.3007 82.9644 31.8771C82.7168 31.438 82.2994 31.0391 81.643 30.9372C81.0156 30.8397 80.2583 31.0287 79.3428 31.5366C77.4757 32.5725 76.5815 34.0336 76.1603 35.2381C75.9509 35.8373 75.8585 36.3717 75.8185 36.7587C75.7984 36.9524 75.7914 37.1103 75.7895 37.2221C75.7885 37.278 75.7888 37.3226 75.7895 37.3544C75.7897 37.3703 75.7902 37.3831 75.7905 37.3925L75.7906 37.3941L75.7584 58.8798V58.898L75.7592 58.9098C75.7592 58.9103 75.7592 58.9109 75.7592 58.9117C75.7592 58.9178 75.7591 58.9305 75.7578 58.9481C75.7552 58.9843 75.7481 59.0357 75.731 59.092C75.7282 59.1011 75.7253 59.1102 75.722 59.1194V41.4679L75.7221 41.4651C75.7225 41.4554 75.7229 41.4422 75.7232 41.4259C75.7239 41.3931 75.7243 41.3473 75.7234 41.291C75.7215 41.1786 75.7144 41.0221 75.6935 40.8411C75.6528 40.4879 75.5552 40.0017 75.3103 39.5691C75.0571 39.1218 74.6327 38.7141 73.9661 38.607C73.3271 38.5045 72.5555 38.694 71.623 39.2114C69.7508 40.2501 68.8581 41.7539 68.4389 42.9937C68.2302 43.611 68.1383 44.1634 68.0985 44.5633C68.0786 44.7637 68.0716 44.9269 68.0696 45.0424C68.0688 45.1001 68.0691 45.146 68.0697 45.1787C68.07 45.1951 68.0704 45.2081 68.0707 45.2178L68.0708 45.2201L68.0386 64.2427L68.0386 64.2745L68.041 64.2936C68.041 64.2962 68.0409 64.3001 68.0407 64.3052C68.0398 64.3242 68.0363 64.3544 68.0254 64.3891C68.0192 64.4091 68.01 64.4327 67.995 64.4585L67.97 53.3435V53.3419V53.3313C67.97 53.3227 67.9699 53.3111 67.9696 53.2968C67.969 53.2682 67.9677 53.2285 67.9649 53.1797C67.9593 53.0825 67.9477 52.9474 67.9234 52.7911C67.876 52.4863 67.775 52.0652 67.5487 51.688C67.3157 51.2993 66.9343 50.9366 66.3461 50.8337C65.7788 50.7344 65.1113 50.8939 64.3286 51.3281C62.6472 52.261 61.8144 53.5858 61.4067 54.6769C61.2038 55.2201 61.106 55.7052 61.0589 56.0569C61.0352 56.2332 61.0242 56.3768 61.019 56.4788C61.0165 56.5298 61.0154 56.5705 61.0149 56.5997C61.0147 56.6144 61.0147 56.6261 61.0147 56.6348L61.0148 56.6457V81.4589V81.5024V81.5053C61.0144 81.5377 61.0137 81.5871 61.0134 81.6504C61.013 81.7307 61.0131 81.8331 61.0148 81.9554V82.5632L61.0329 82.5478C61.0534 82.9869 61.0939 83.5335 61.1729 84.1457C61.3728 85.6943 61.8236 87.6974 62.8496 89.4103C63.8852 91.1394 65.5168 92.5834 68.0413 92.9355C70.5375 93.284 73.8254 92.5539 78.1691 90.1434C85.0442 86.3294 89.2952 81.0014 91.8255 76.6326C93.0912 74.4483 93.9281 72.5007 94.4497 71.0968C94.7105 70.3946 94.8925 69.8278 95.0096 69.4346C95.0686 69.238 95.1106 69.0848 95.1386 68.9796C95.1533 68.927 95.1636 68.8865 95.1702 68.8586L95.1776 68.8302L102.951 43.4869L102.953 43.4794L102.955 43.4717Z" fill="white"/>
<path d="M102.47 43.3391L102.955 43.4717M102.955 43.4717L102.956 43.4698L102.957 43.4641L102.963 43.4422L102.985 43.3598C103.005 43.289 103.032 43.188 103.064 43.0669C103.128 42.8251 103.212 42.5023 103.293 42.1803C103.373 41.8602 103.451 41.5339 103.501 41.2877C103.525 41.1679 103.547 41.0512 103.556 40.9597C103.56 40.9223 103.567 40.8494 103.558 40.7735V40.7723C103.555 40.7456 103.542 40.6351 103.465 40.5257C103.418 40.4595 103.335 40.3752 103.203 40.3328C103.071 40.2898 102.951 40.3096 102.87 40.3394L102.865 40.3413C99.1404 41.7522 96.8699 43.9193 95.529 45.7456C94.8601 46.6571 94.424 47.4819 94.1543 48.083C94.0195 48.3836 93.9252 48.6287 93.8648 48.8011C93.8346 48.8873 93.8125 48.9555 93.7977 49.0033C93.7904 49.0273 93.7845 49.0462 93.7808 49.0598L93.7786 49.0681L93.7742 49.081L93.7506 49.1506C93.7307 49.2116 93.7005 49.3012 93.6622 49.4154C93.5848 49.6438 93.4751 49.9704 93.341 50.3631C93.0743 51.1488 92.7133 52.1981 92.339 53.2545C91.9648 54.312 91.5787 55.3719 91.2605 56.1802C91.1912 56.3556 91.1256 56.5178 91.0652 56.6646V33.1226V33.1183C91.0652 33.1092 91.0652 33.0972 91.0652 33.0824C91.066 33.0528 91.0652 33.0119 91.0638 32.9619C91.0601 32.8623 91.0505 32.7241 91.0269 32.5651C90.9805 32.256 90.873 31.8253 90.6122 31.4505C90.3366 31.0557 89.8997 30.7391 89.2602 30.6924C88.6507 30.648 87.9126 30.8532 87.011 31.3534C85.1771 32.3709 84.2861 33.7118 83.8614 34.8158C83.6504 35.3638 83.5561 35.8486 83.5146 36.1999C83.4939 36.3758 83.4862 36.5189 83.4839 36.621C83.4828 36.672 83.483 36.7128 83.4836 36.7423C83.4839 36.7571 83.4842 36.7691 83.4846 36.7781L83.491 54.8332V54.8492L83.4917 54.8594C83.4917 54.8604 83.4917 54.8616 83.4917 54.8633C83.4917 54.8712 83.4914 54.8865 83.4897 54.9074C83.4862 54.9502 83.4773 55.0111 83.4562 55.0782C83.436 55.1427 83.4056 55.2105 83.358 55.2748V33.732V33.7312C83.3585 33.7217 83.3589 33.7088 83.3593 33.6927C83.3602 33.6607 83.3609 33.6159 83.3603 33.5608C83.3592 33.451 83.3532 33.2981 83.3339 33.1213C83.2961 32.7766 83.2032 32.3007 82.9644 31.8771C82.7168 31.438 82.2994 31.0391 81.643 30.9372C81.0156 30.8397 80.2583 31.0287 79.3428 31.5366C77.4757 32.5725 76.5815 34.0336 76.1603 35.2381C75.9509 35.8373 75.8585 36.3717 75.8185 36.7587C75.7984 36.9524 75.7914 37.1103 75.7895 37.2221C75.7885 37.278 75.7888 37.3226 75.7895 37.3544C75.7897 37.3703 75.7902 37.3831 75.7905 37.3925L75.7906 37.3941L75.7584 58.8798V58.898L75.7592 58.9098C75.7592 58.9103 75.7592 58.9109 75.7592 58.9117C75.7592 58.9178 75.7591 58.9305 75.7578 58.9481C75.7552 58.9843 75.7481 59.0357 75.731 59.092C75.7282 59.1011 75.7253 59.1102 75.722 59.1194V41.4679L75.7221 41.4651C75.7225 41.4554 75.7229 41.4422 75.7232 41.4259C75.7239 41.3931 75.7243 41.3473 75.7234 41.291C75.7215 41.1786 75.7144 41.0221 75.6935 40.8411C75.6528 40.4879 75.5552 40.0017 75.3103 39.5691C75.0571 39.1218 74.6327 38.7141 73.9661 38.607C73.3271 38.5045 72.5555 38.694 71.623 39.2114C69.7508 40.2501 68.8581 41.7539 68.4389 42.9937C68.2302 43.611 68.1383 44.1634 68.0985 44.5633C68.0786 44.7637 68.0716 44.9269 68.0696 45.0424C68.0688 45.1001 68.0691 45.146 68.0697 45.1787C68.07 45.1951 68.0704 45.2081 68.0707 45.2178L68.0708 45.2201L68.0386 64.2427L68.0386 64.2745L68.041 64.2936C68.041 64.2962 68.0409 64.3001 68.0407 64.3052C68.0398 64.3242 68.0363 64.3544 68.0254 64.3891C68.0192 64.4091 68.01 64.4327 67.995 64.4585L67.97 53.3435V53.3419V53.3313C67.97 53.3227 67.9699 53.3111 67.9696 53.2968C67.969 53.2682 67.9677 53.2285 67.9649 53.1797C67.9593 53.0825 67.9477 52.9474 67.9234 52.7911C67.876 52.4863 67.775 52.0652 67.5487 51.688C67.3157 51.2993 66.9343 50.9366 66.3461 50.8337C65.7788 50.7344 65.1113 50.8939 64.3286 51.3281C62.6472 52.261 61.8144 53.5858 61.4067 54.6769C61.2038 55.2201 61.106 55.7052 61.0589 56.0569C61.0352 56.2332 61.0242 56.3768 61.019 56.4788C61.0165 56.5298 61.0154 56.5705 61.0149 56.5997C61.0147 56.6144 61.0147 56.6261 61.0147 56.6348L61.0148 56.6457V81.4589V81.5024V81.5053C61.0144 81.5377 61.0137 81.5871 61.0134 81.6504C61.013 81.7307 61.0131 81.8331 61.0148 81.9554V82.5632L61.0329 82.5478C61.0534 82.9869 61.0939 83.5335 61.1729 84.1457C61.3728 85.6943 61.8236 87.6974 62.8496 89.4103C63.8852 91.1394 65.5168 92.5834 68.0413 92.9355C70.5375 93.284 73.8254 92.5539 78.1691 90.1434C85.0442 86.3294 89.2952 81.0014 91.8255 76.6326C93.0912 74.4483 93.9281 72.5007 94.4497 71.0968C94.7105 70.3946 94.8925 69.8278 95.0096 69.4346C95.0686 69.238 95.1106 69.0848 95.1386 68.9796C95.1533 68.927 95.1636 68.8865 95.1702 68.8586L95.1776 68.8302L102.951 43.4869L102.953 43.4794L102.955 43.4717ZM102.555 40.8425C102.555 40.8424 102.555 40.8437 102.555 40.8467M75.4517 59.4124C75.4517 59.4123 75.4526 59.412 75.4543 59.4115M83.1047 55.4748C83.1047 55.4747 83.1057 55.4744 83.1076 55.4739" stroke="#C6C6C6" stroke-width="1.00755"/>
</svg>
