<svg width="122" height="123" viewBox="0 0 122 123" fill="none" xmlns="http://www.w3.org/2000/svg">
<path fill-rule="evenodd" clip-rule="evenodd" d="M13.5869 101.499C9.94752 100.065 9.61958 95.0417 13.0416 93.1465L23.2545 87.4902L23.2695 97.4422C23.2704 97.9371 23.5345 98.3943 23.9635 98.6418L63.4677 121.156L13.5869 101.499Z" fill="#333333" fill-opacity="0.2"/>
<path fill-rule="evenodd" clip-rule="evenodd" d="M25.5096 46.0256L74.9312 17.7416C75.8192 17.2334 76.9717 16.9914 77.9689 17.2207C79.3696 17.5432 80.6829 17.9836 80.6797 19.2087L80.7548 65.1005L76.4066 67.6672C77.8296 68.3592 121.212 89.454 121.283 89.5059L121.388 91.2764C121.388 92.0403 120.984 92.7445 120.322 93.1275C112.937 97.4006 69.679 122.383 69.679 122.383C68.2556 123.205 66.5015 123.205 65.0785 122.383L23.9632 98.6417C23.5343 98.3942 23.2702 97.937 23.2692 97.442L23.1978 49.9989C23.2019 48.3566 24.0834 46.8417 25.5096 46.0256Z" fill="#C6C6C6"/>
<path fill-rule="evenodd" clip-rule="evenodd" d="M24.6538 97.2861L80.7979 65.2827L80.9136 19.4918C80.9172 18.1689 79.4864 17.3382 78.3376 17.9956L26.5641 47.6257C25.4366 48.2708 24.7403 49.4681 24.7367 50.7656L24.6538 97.2861Z" fill="#666666"/>
<path fill-rule="evenodd" clip-rule="evenodd" d="M78.6038 20.6548L27.2042 50.1289L27.0972 93.238L78.6038 63.6993V20.6548Z" fill="#03BCFC"/>
<path fill-rule="evenodd" clip-rule="evenodd" d="M24.6865 97.2828L80.801 64.9526L120.485 87.8663C121.632 88.5286 121.631 90.1814 120.485 90.8428L68.824 120.669C67.6993 121.318 66.3132 121.318 65.188 120.669L24.6865 97.2828Z" fill="#F4F4F4"/>
<path fill-rule="evenodd" clip-rule="evenodd" d="M40.2169 98.278C39.0994 98.919 38.5407 99.2397 37.4233 99.8812C36.293 99.2425 35.7284 98.9236 34.5986 98.2858C35.7161 97.6448 36.2748 97.3241 37.3923 96.6826C38.522 97.3213 39.0872 97.6402 40.2169 98.278Z" fill="#C6C6C6"/>
<path fill-rule="evenodd" clip-rule="evenodd" d="M44.3404 95.9123C43.223 96.5533 42.6643 96.874 41.5468 97.515C40.417 96.8768 39.8519 96.5579 38.7222 95.92C39.8396 95.2786 40.3984 94.9579 41.5158 94.3169C42.646 94.9552 43.2107 95.2741 44.3404 95.9123Z" fill="#C6C6C6"/>
<path fill-rule="evenodd" clip-rule="evenodd" d="M48.4649 93.5461C47.3475 94.1871 46.7887 94.5078 45.6708 95.1488C44.5411 94.511 43.9759 94.1921 42.8462 93.5539C43.9641 92.9124 44.5228 92.5922 45.6403 91.9512C46.7701 92.589 47.3352 92.9083 48.4649 93.5461Z" fill="#C6C6C6"/>
<path fill-rule="evenodd" clip-rule="evenodd" d="M52.5894 91.1804C51.4715 91.8214 50.9128 92.1421 49.7953 92.7831C48.6656 92.1453 48.1005 91.8259 46.9707 91.1877C48.0882 90.5467 48.6469 90.2259 49.7648 89.585C50.8946 90.2228 51.4597 90.5417 52.5894 91.1804Z" fill="#C6C6C6"/>
<path fill-rule="evenodd" clip-rule="evenodd" d="M56.7135 88.8142C55.596 89.4556 55.0368 89.7764 53.9193 90.4174C52.7891 89.7795 52.2245 89.4602 51.0947 88.8224C52.2122 88.1809 52.7709 87.8607 53.8884 87.2192C55.0186 87.8575 55.5837 88.1764 56.7135 88.8142Z" fill="#C6C6C6"/>
<path fill-rule="evenodd" clip-rule="evenodd" d="M60.838 86.448C59.7201 87.0894 59.1613 87.4102 58.0439 88.0511C56.9141 87.4129 56.349 87.094 55.2192 86.4562C56.3367 85.8152 56.8959 85.4945 58.0133 84.853C59.1431 85.4913 59.7082 85.8102 60.838 86.448Z" fill="#C6C6C6"/>
<path fill-rule="evenodd" clip-rule="evenodd" d="M64.962 84.0822C63.8441 84.7232 63.2853 85.0439 62.1679 85.6854C61.0381 85.0471 60.473 84.7278 59.3433 84.09C60.4607 83.449 61.0195 83.1278 62.1374 82.4868C63.2671 83.1251 63.8318 83.444 64.962 84.0822Z" fill="#C6C6C6"/>
<path fill-rule="evenodd" clip-rule="evenodd" d="M69.086 81.716C67.9681 82.357 67.4094 82.6777 66.2919 83.3187C65.1621 82.6809 64.597 82.362 63.4673 81.7238C64.5847 81.0823 65.1435 80.762 66.2614 80.1206C67.3912 80.7589 67.9563 81.0782 69.086 81.716Z" fill="#C6C6C6"/>
<path fill-rule="evenodd" clip-rule="evenodd" d="M73.2105 79.3503C72.0931 79.9918 71.5339 80.312 70.4164 80.953C69.2862 80.3152 68.7216 79.9963 67.5918 79.3581C68.7093 78.7171 69.268 78.3964 70.3859 77.7554C71.5157 78.3932 72.0808 78.7121 73.2105 79.3503Z" fill="#C6C6C6"/>
<path fill-rule="evenodd" clip-rule="evenodd" d="M77.3341 76.9851C76.2166 77.6261 75.6579 77.9468 74.5404 78.5878C73.4107 77.95 72.8455 77.6306 71.7153 76.9923C72.8333 76.3514 73.392 76.0306 74.5094 75.3896C75.6397 76.0279 76.2043 76.3468 77.3341 76.9851Z" fill="#C6C6C6"/>
<path fill-rule="evenodd" clip-rule="evenodd" d="M81.4581 74.6189C80.3407 75.2599 79.7824 75.5806 78.6645 76.222C77.5347 75.5833 76.9696 75.2644 75.8398 74.6266C76.9578 73.9852 77.5165 73.6649 78.634 73.0239C79.7637 73.6617 80.3284 73.9811 81.4581 74.6189Z" fill="#C6C6C6"/>
<path fill-rule="evenodd" clip-rule="evenodd" d="M85.5821 72.2531C84.4647 72.8941 83.9055 73.2144 82.788 73.8558C81.6582 73.2176 81.0936 72.8987 79.9634 72.2604C81.0808 71.6194 81.64 71.2992 82.7575 70.6577C83.8868 71.296 84.4524 71.6149 85.5821 72.2531Z" fill="#C6C6C6"/>
<path fill-rule="evenodd" clip-rule="evenodd" d="M44.1817 100.517C43.0643 101.158 42.5055 101.479 41.3876 102.12C40.2579 101.481 39.6927 101.162 38.563 100.525C39.6805 99.8836 40.2392 99.5624 41.3566 98.9214C42.4864 99.5596 43.052 99.879 44.1817 100.517Z" fill="#C6C6C6"/>
<path fill-rule="evenodd" clip-rule="evenodd" d="M48.3057 98.1516C47.1883 98.7926 46.6296 99.1128 45.5116 99.7543C44.3819 99.116 43.8168 98.7971 42.687 98.1589C43.8045 97.5174 44.3632 97.1971 45.4811 96.5562C46.6109 97.194 47.176 97.5133 48.3057 98.1516Z" fill="#C6C6C6"/>
<path fill-rule="evenodd" clip-rule="evenodd" d="M52.4297 95.7854C51.3118 96.4264 50.7531 96.7471 49.6356 97.3881C48.5059 96.7503 47.9403 96.4314 46.8105 95.7926C47.9285 95.1517 48.4872 94.8309 49.6047 94.1899C50.7349 94.8282 51.2995 95.1471 52.4297 95.7854Z" fill="#C6C6C6"/>
<path fill-rule="evenodd" clip-rule="evenodd" d="M56.5542 93.4196C55.4363 94.0606 54.8776 94.3814 53.7601 95.0223C52.6299 94.3841 52.0648 94.0647 50.9351 93.4269C52.0525 92.7859 52.6113 92.4652 53.7292 91.8242C54.8589 92.462 55.424 92.7809 56.5542 93.4196Z" fill="#C6C6C6"/>
<path fill-rule="evenodd" clip-rule="evenodd" d="M60.6783 91.053C59.5604 91.6944 59.0016 92.0151 57.8837 92.6561C56.7539 92.0179 56.1888 91.699 55.0591 91.0607C56.1765 90.4197 56.7353 90.099 57.8532 89.458C58.983 90.0958 59.5481 90.4152 60.6783 91.053Z" fill="#C6C6C6"/>
<path fill-rule="evenodd" clip-rule="evenodd" d="M64.8028 88.6872C63.6849 89.3287 63.1261 89.6489 62.0087 90.2904C60.8785 89.6521 60.3134 89.3332 59.1836 88.6954C60.3015 88.054 60.8602 87.7337 61.9777 87.0918C63.1079 87.7305 63.6726 88.0494 64.8028 88.6872Z" fill="#C6C6C6"/>
<path fill-rule="evenodd" clip-rule="evenodd" d="M68.9263 86.322C67.8089 86.963 67.2502 87.2837 66.1327 87.9247C65.0025 87.2864 64.4374 86.9675 63.3076 86.3297C64.4251 85.6878 64.9843 85.3676 66.1017 84.7266C67.2315 85.3644 67.7966 85.6837 68.9263 86.322Z" fill="#C6C6C6"/>
<path fill-rule="evenodd" clip-rule="evenodd" d="M73.0513 83.9558C71.9334 84.5968 71.3747 84.9175 70.2572 85.5585C69.127 84.9207 68.5619 84.6013 67.4321 83.963C68.5496 83.3221 69.1088 83.0013 70.2262 82.3604C71.356 82.9982 71.9211 83.3175 73.0513 83.9558Z" fill="#C6C6C6"/>
<path fill-rule="evenodd" clip-rule="evenodd" d="M77.1753 81.5896C76.0574 82.231 75.4987 82.5513 74.3808 83.1923C73.251 82.5545 72.6859 82.2356 71.5562 81.5968C72.6736 80.9559 73.2323 80.6356 74.3503 79.9941C75.4805 80.6324 76.0451 80.9513 77.1753 81.5896Z" fill="#C6C6C6"/>
<path fill-rule="evenodd" clip-rule="evenodd" d="M81.2989 79.2234C80.1814 79.8648 79.6222 80.1855 78.5052 80.8265C77.375 80.1883 76.8099 79.8689 75.6797 79.2311C76.7976 78.5901 77.3563 78.2694 78.4738 77.6284C79.604 78.2662 80.1687 78.5856 81.2989 79.2234Z" fill="#C6C6C6"/>
<path fill-rule="evenodd" clip-rule="evenodd" d="M85.423 76.8576C84.3055 77.4986 83.7468 77.8193 82.6293 78.4603C81.4991 77.8221 80.9344 77.5032 79.8047 76.8649C80.9222 76.2239 81.4804 75.9037 82.5979 75.2622C83.7281 75.9005 84.2932 76.2194 85.423 76.8576Z" fill="#C6C6C6"/>
<path fill-rule="evenodd" clip-rule="evenodd" d="M89.5465 74.4924C87.6732 75.5669 86.736 76.1046 84.8627 77.1792C83.7325 76.5414 83.1674 76.2225 82.0376 75.5842C83.9114 74.5092 84.8481 73.972 86.7219 72.897C87.8517 73.5352 88.4168 73.8541 89.5465 74.4924Z" fill="#C6C6C6"/>
<path fill-rule="evenodd" clip-rule="evenodd" d="M49.9926 101.697C48.1365 102.762 47.2085 103.294 45.3525 104.359C44.2227 103.72 43.6576 103.402 42.5278 102.764C44.3834 101.699 45.3115 101.167 47.1675 100.102C48.2973 100.74 48.8624 101.059 49.9926 101.697Z" fill="#C6C6C6"/>
<path fill-rule="evenodd" clip-rule="evenodd" d="M52.2706 100.39C51.1531 101.031 50.5944 101.352 49.4769 101.993C48.3467 101.355 47.7816 101.036 46.6519 100.398C47.7693 99.7562 48.328 99.4359 49.4455 98.7949C50.5757 99.4327 51.1408 99.7516 52.2706 100.39Z" fill="#C6C6C6"/>
<path fill-rule="evenodd" clip-rule="evenodd" d="M56.3946 98.0241C55.2767 98.6656 54.7179 98.9858 53.6005 99.6268C52.4703 98.989 51.9056 98.6701 50.7754 98.0314C51.8929 97.3904 52.452 97.0702 53.5695 96.4287C54.6993 97.067 55.2644 97.3859 56.3946 98.0241Z" fill="#C6C6C6"/>
<path fill-rule="evenodd" clip-rule="evenodd" d="M60.5191 95.6589C59.4012 96.3004 58.8424 96.6211 57.7245 97.2621C56.5948 96.6238 56.0297 96.3045 54.8999 95.6667C56.0174 95.0257 56.5761 94.705 57.694 94.064C58.8238 94.7018 59.3889 95.0207 60.5191 95.6589Z" fill="#C6C6C6"/>
<path fill-rule="evenodd" clip-rule="evenodd" d="M64.6431 93.2922C63.5252 93.9336 62.9665 94.2539 61.8485 94.8954C60.7188 94.2571 60.1537 93.9382 59.0239 93.2999C60.1414 92.6589 60.7001 92.3382 61.818 91.6968C62.9478 92.335 63.5129 92.6544 64.6431 93.2922Z" fill="#C6C6C6"/>
<path fill-rule="evenodd" clip-rule="evenodd" d="M68.7676 90.9265C67.6497 91.5679 67.0909 91.8882 65.9735 92.5296C64.8433 91.8914 64.2782 91.5725 63.1479 90.9342C64.2659 90.2928 64.8246 89.9725 65.9425 89.3311C67.0723 89.9698 67.6374 90.2887 68.7676 90.9265Z" fill="#C6C6C6"/>
<path fill-rule="evenodd" clip-rule="evenodd" d="M72.8912 88.5608C71.7737 89.2017 71.215 89.5225 70.0971 90.1635C68.9673 89.5256 68.4022 89.2063 67.2725 88.568C68.3899 87.927 68.9487 87.6063 70.0666 86.9653C71.1963 87.6031 71.7614 87.9225 72.8912 88.5608Z" fill="#C6C6C6"/>
<path fill-rule="evenodd" clip-rule="evenodd" d="M77.0162 86.1945C75.8982 86.8355 75.3395 87.1563 74.2221 87.7972C73.0918 87.1594 72.5267 86.8405 71.397 86.2018C72.5144 85.5608 73.0732 85.2401 74.1911 84.5991C75.3208 85.2369 75.886 85.5563 77.0162 86.1945Z" fill="#C6C6C6"/>
<path fill-rule="evenodd" clip-rule="evenodd" d="M81.1397 83.8283C80.0223 84.4698 79.4635 84.79 78.3456 85.4315C77.2159 84.7932 76.6508 84.4739 75.521 83.8356C76.6385 83.1946 77.1972 82.8744 78.3151 82.2329C79.4449 82.8712 80.01 83.1901 81.1397 83.8283Z" fill="#C6C6C6"/>
<path fill-rule="evenodd" clip-rule="evenodd" d="M85.2638 81.4626C84.1463 82.1041 83.5871 82.4248 82.4696 83.0658C81.3399 82.4275 80.7748 82.1081 79.645 81.4703C80.7625 80.8294 81.3217 80.5086 82.4391 79.8672C83.5689 80.5054 84.1335 80.8248 85.2638 81.4626Z" fill="#C6C6C6"/>
<path fill-rule="evenodd" clip-rule="evenodd" d="M89.3878 79.0974C88.2703 79.7384 87.7116 80.0586 86.5942 80.7005C85.4639 80.0618 84.8993 79.7429 83.7695 79.1047C84.887 78.4637 85.4453 78.1429 86.5627 77.502C87.6929 78.1402 88.2581 78.4591 89.3878 79.0974Z" fill="#C6C6C6"/>
<path fill-rule="evenodd" clip-rule="evenodd" d="M93.5113 76.7312C92.3939 77.3721 91.8351 77.6924 90.7177 78.3334C89.5879 77.6956 89.0228 77.3767 87.8926 76.7384C89.01 76.097 89.5692 75.7767 90.6867 75.1357C91.8165 75.7735 92.3816 76.0929 93.5113 76.7312Z" fill="#C6C6C6"/>
<path fill-rule="evenodd" clip-rule="evenodd" d="M52.1119 104.995C50.9944 105.636 50.4357 105.957 49.3178 106.598C48.188 105.96 47.6229 105.641 46.4932 105.003C47.6106 104.362 48.1694 104.041 49.2868 103.4C50.4166 104.038 50.9817 104.357 52.1119 104.995Z" fill="#C6C6C6"/>
<path fill-rule="evenodd" clip-rule="evenodd" d="M56.2354 102.63C55.118 103.271 54.5592 103.592 53.4418 104.233C52.3116 103.595 51.7465 103.276 50.6167 102.637C51.7342 101.996 52.2929 101.676 53.4104 101.035C54.5406 101.672 55.1052 101.992 56.2354 102.63Z" fill="#C6C6C6"/>
<path fill-rule="evenodd" clip-rule="evenodd" d="M60.359 100.264C59.2415 100.905 58.6828 101.226 57.5653 101.867C56.4351 101.229 55.8704 100.909 54.7402 100.271C55.8582 99.6302 56.4169 99.3099 57.5343 98.6685C58.6641 99.3067 59.2292 99.6256 60.359 100.264Z" fill="#C6C6C6"/>
<path fill-rule="evenodd" clip-rule="evenodd" d="M64.4839 97.8977C63.366 98.5387 62.8073 98.8598 61.6894 99.5008C60.5596 98.8626 59.9945 98.5432 58.8647 97.9054C59.9822 97.2644 60.5409 96.9437 61.6589 96.3022C62.7886 96.9405 63.3537 97.2599 64.4839 97.8977Z" fill="#C6C6C6"/>
<path fill-rule="evenodd" clip-rule="evenodd" d="M68.608 95.5319C67.4905 96.1734 66.9318 96.4937 65.8139 97.1351C64.6841 96.4968 64.119 96.1779 62.9893 95.5397C64.1067 94.8987 64.6659 94.578 65.7834 93.9365C66.9131 94.5752 67.4782 94.8941 68.608 95.5319Z" fill="#C6C6C6"/>
<path fill-rule="evenodd" clip-rule="evenodd" d="M72.732 93.1653C71.6146 93.8067 71.0558 94.127 69.9379 94.7684C68.8081 94.1302 68.243 93.8113 67.1133 93.1735C68.2307 92.5316 68.7899 92.2113 69.9074 91.5703C71.0372 92.2081 71.6023 92.5275 72.732 93.1653Z" fill="#C6C6C6"/>
<path fill-rule="evenodd" clip-rule="evenodd" d="M76.856 90.8C75.7386 91.441 75.1798 91.7617 74.0619 92.4027C72.9322 91.7649 72.3671 91.4455 71.2373 90.8073C72.3548 90.1663 72.9135 89.8456 74.0314 89.2046C75.1612 89.8424 75.7263 90.1617 76.856 90.8Z" fill="#C6C6C6"/>
<path fill-rule="evenodd" clip-rule="evenodd" d="M80.981 88.4338C79.8635 89.0748 79.3044 89.3955 78.1864 90.0365C77.0567 89.3987 76.4916 89.0793 75.3618 88.4411C76.4793 87.8001 77.038 87.4794 78.1559 86.8384C79.2857 87.4766 79.8508 87.7955 80.981 88.4338Z" fill="#C6C6C6"/>
<path fill-rule="evenodd" clip-rule="evenodd" d="M85.1046 86.0681C83.9871 86.7095 83.4284 87.0298 82.3109 87.6712C81.1807 87.0325 80.6156 86.7136 79.4858 86.0758C80.6033 85.4344 81.162 85.1141 82.28 84.4727C83.4102 85.1109 83.9748 85.4298 85.1046 86.0681Z" fill="#C6C6C6"/>
<path fill-rule="evenodd" clip-rule="evenodd" d="M89.2286 83.7014C88.1111 84.3424 87.552 84.6631 86.4345 85.3045C85.3047 84.6663 84.7396 84.3469 83.6099 83.7091C84.7273 83.0681 85.2861 82.7474 86.404 82.106C87.5337 82.7447 88.0984 83.0636 89.2286 83.7014Z" fill="#C6C6C6"/>
<path fill-rule="evenodd" clip-rule="evenodd" d="M95.1345 80.3137C93.3044 81.3641 92.3891 81.8886 90.559 82.9386C89.4288 82.3003 88.8641 81.9814 87.7344 81.3436C89.564 80.2932 90.4793 79.7682 92.3099 78.7183C93.4396 79.3565 94.0043 79.6759 95.1345 80.3137Z" fill="#C6C6C6"/>
<path fill-rule="evenodd" clip-rule="evenodd" d="M97.4762 78.9704C96.3587 79.6114 95.8004 79.9317 94.682 80.5727C93.5527 79.9349 92.9876 79.616 91.8574 78.9772C92.9749 78.3363 93.5341 78.016 94.6515 77.375C95.7817 78.0128 96.3464 78.3317 97.4762 78.9704Z" fill="#C6C6C6"/>
<path fill-rule="evenodd" clip-rule="evenodd" d="M56.6246 107.544C55.5071 108.185 54.9484 108.505 53.8309 109.146C52.7012 108.508 52.1361 108.189 51.0059 107.551C52.1238 106.91 52.6825 106.59 53.8 105.949C54.9297 106.587 55.4948 106.905 56.6246 107.544Z" fill="#C6C6C6"/>
<path fill-rule="evenodd" clip-rule="evenodd" d="M60.7482 105.178C59.6307 105.819 59.072 106.139 57.9545 106.781C56.8243 106.142 56.2596 105.823 55.1299 105.186C56.2473 104.544 56.8061 104.224 57.9235 103.583C59.0533 104.221 59.6184 104.54 60.7482 105.178Z" fill="#C6C6C6"/>
<path fill-rule="evenodd" clip-rule="evenodd" d="M64.8721 102.812C63.7547 103.453 63.1955 103.774 62.078 104.415C60.9483 103.777 60.3832 103.458 59.2534 102.82C60.3709 102.179 60.9296 101.858 62.0471 101.217C63.1773 101.855 63.7424 102.174 64.8721 102.812Z" fill="#C6C6C6"/>
<path fill-rule="evenodd" clip-rule="evenodd" d="M89.6173 88.6164C81.8124 93.0942 74.0075 97.5716 66.2025 102.049C65.0728 101.411 64.5077 101.092 63.3774 100.454C71.1828 95.9766 78.9878 91.4988 86.7927 87.021C87.9229 87.6593 88.488 87.9786 89.6173 88.6164Z" fill="#C6C6C6"/>
<path fill-rule="evenodd" clip-rule="evenodd" d="M93.7413 86.2507C92.6238 86.8917 92.0646 87.2124 90.9472 87.8534C89.8174 87.2151 89.2528 86.8962 88.1226 86.258C89.24 85.617 89.7992 85.2963 90.9167 84.6553C92.0464 85.2931 92.6115 85.6124 93.7413 86.2507Z" fill="#C6C6C6"/>
<path fill-rule="evenodd" clip-rule="evenodd" d="M97.8658 83.8845C96.7483 84.526 96.1892 84.8462 95.0717 85.4872C93.9415 84.8494 93.3768 84.5301 92.2471 83.8922C93.3645 83.2508 93.9233 82.9305 95.0412 82.2896C96.1709 82.9274 96.7356 83.2463 97.8658 83.8845Z" fill="#C6C6C6"/>
<path fill-rule="evenodd" clip-rule="evenodd" d="M101.989 81.5183C100.871 82.1598 100.313 82.4805 99.1952 83.1215C98.0655 82.4832 97.5004 82.1643 96.3706 81.5261C97.4885 80.8851 98.0468 80.5648 99.1643 79.9238C100.294 80.5616 100.859 80.8805 101.989 81.5183Z" fill="#C6C6C6"/>
<path fill-rule="evenodd" clip-rule="evenodd" d="M70.4844 103.198L89.7385 92.0923L100.741 98.8638L81.4942 109.974L70.4844 103.198Z" fill="#C6C6C6"/>
<path fill-rule="evenodd" clip-rule="evenodd" d="M24.6538 97.2862L24.7367 50.7656C24.7403 49.4682 25.4366 48.2708 26.5641 47.6257L78.3376 17.9956C78.3503 17.9883 78.3631 17.981 78.3758 17.9742C78.639 17.8323 78.9154 17.769 79.1855 17.769C79.2314 17.769 79.277 17.7709 79.3225 17.7745C78.7929 18.5888 77.8904 19.9504 76.6873 21.7528L27.2043 50.1283L27.0973 93.2374L29.2812 91.985C28.1424 93.6668 27.1528 95.128 26.3428 96.3236L24.6538 97.2862Z" fill="#999999"/>
<path fill-rule="evenodd" clip-rule="evenodd" d="M27.1831 49.8886L76.6875 21.7529L29.4139 91.6962L27.1831 93.1065V49.8886Z" fill="#00ACE8"/>
<path d="M22.7158 91.366L22.7433 91.311L22.7158 91.366Z" fill="#EBEBEB"/>
<path d="M40.0663 81.4162C40.0602 81.3922 40.0466 81.3707 40.0276 81.3548C40.0085 81.339 39.985 81.3295 39.9602 81.3278C39.9239 81.3286 39.8886 81.3395 39.8581 81.3592L22.9045 91.148C22.8377 91.1901 22.7824 91.2481 22.7435 91.3169L22.0698 90.9241C22.1055 90.8555 22.1582 90.7973 22.223 90.7552L39.1766 80.9723C39.247 80.9369 39.3246 80.9185 39.4034 80.9185C39.4822 80.9185 39.5599 80.9369 39.6303 80.9723L39.8561 81.1C39.9108 81.1357 39.9576 81.1821 39.9937 81.2365C40.0299 81.2908 40.0545 81.352 40.0663 81.4162Z" fill="#999999"/>
<g opacity="0.9">
<path d="M22.9045 109.979C22.8338 110.014 22.7562 110.032 22.6776 110.032C22.599 110.032 22.5214 110.014 22.4508 109.979L22.2249 109.84C22.1582 109.798 22.1027 109.74 22.0631 109.671C22.0234 109.603 22.0008 109.526 21.9971 109.447V91.1482C22 91.0665 22.0252 90.9871 22.0697 90.9185L22.7454 91.3113C22.7027 91.3804 22.6796 91.4598 22.6786 91.5411V109.856C22.6786 109.981 22.7709 110.058 22.9045 109.979Z" fill="#333333"/>
</g>
<path d="M39.9583 81.3281C39.9227 81.3293 39.8881 81.3402 39.8581 81.3596L22.9046 91.1483C22.8383 91.191 22.7831 91.2489 22.7438 91.3172C22.7045 91.3856 22.6822 91.4624 22.6787 91.5411V109.856C22.6787 109.958 22.7298 110.017 22.8044 110.017C22.84 110.016 22.8747 110.005 22.9046 109.985L39.8581 100.199C39.9241 100.156 39.979 100.098 40.0182 100.029C40.0575 99.9611 40.08 99.8845 40.084 99.8058V81.4853C40.084 81.3831 40.0329 81.3242 39.9583 81.3242V81.3281Z" fill="#FFCA00"/>
<path d="M32.1436 47.3709L32.1711 47.3159L32.1436 47.3709Z" fill="#EBEBEB"/>
<path d="M49.494 21.7091C49.4879 21.6851 49.4743 21.6637 49.4553 21.6478C49.4363 21.6319 49.4127 21.6225 49.388 21.6208C49.3517 21.6216 49.3163 21.6325 49.2858 21.6522L32.3323 31.4409C32.2654 31.4831 32.2101 31.5411 32.1712 31.6099L31.4976 31.217C31.5332 31.1485 31.586 31.0903 31.6508 31.0481L48.6043 21.2653C48.6747 21.2299 48.7524 21.2114 48.8312 21.2114C48.9099 21.2114 48.9876 21.2299 49.058 21.2653L49.2839 21.3929C49.3385 21.4286 49.3853 21.4751 49.4215 21.5294C49.4576 21.5838 49.4823 21.6449 49.494 21.7091Z" fill="#999999"/>
<g opacity="0.9">
<path d="M32.3322 65.9842C32.2615 66.0186 32.1839 66.0365 32.1053 66.0365C32.0267 66.0365 31.9492 66.0186 31.8785 65.9842L31.6526 65.8448C31.586 65.8023 31.5304 65.7445 31.4908 65.6762C31.4511 65.6078 31.4285 65.5309 31.4248 65.452V31.4407C31.4278 31.359 31.4529 31.2795 31.4975 31.2109L32.1731 31.6037C32.1304 31.6729 32.1073 31.7523 32.1063 31.8335V65.8605C32.1063 65.9862 32.1986 66.0628 32.3322 65.9842Z" fill="#333333"/>
</g>
<path d="M49.386 21.6206C49.3504 21.6218 49.3158 21.6327 49.2859 21.6521L40.8091 26.5464L32.3323 31.4408C32.266 31.4835 32.2109 31.5414 32.1716 31.6097C32.1323 31.6781 32.1099 31.7549 32.1064 47.5459V65.8606C32.1064 65.9627 32.1575 66.0216 32.2321 66.0216C32.2678 66.0204 32.3024 66.0096 32.3323 65.9902L49.2859 56.2034C49.3519 56.1604 49.4067 56.1024 49.446 56.0341C49.4852 55.9658 49.5078 55.8892 49.5117 55.8106V21.7778C49.5117 21.6756 49.4607 21.6167 49.386 21.6167V21.6206Z" fill="white"/>
<path d="M67.4766 18.8148C67.4853 18.7871 67.4956 18.7599 67.5074 18.7334C67.4956 18.7599 67.4853 18.7871 67.4766 18.8148Z" fill="#EBEBEB"/>
<path d="M93.8234 3.71533C93.8146 3.67542 93.7927 3.63961 93.7611 3.61365C93.7296 3.58769 93.6902 3.57307 93.6494 3.57214C93.5942 3.57419 93.5407 3.5917 93.4949 3.62268L67.7599 18.478C67.6592 18.5415 67.5762 18.6294 67.5184 18.7335L66.4937 18.1383C66.5501 18.039 66.6301 17.9551 66.7267 17.894L92.4589 3.03869C92.5657 2.98531 92.6835 2.95752 92.8028 2.95752C92.9222 2.95752 93.04 2.98531 93.1468 3.03869L93.4921 3.22961C93.5773 3.28394 93.6506 3.355 93.7076 3.43849C93.7645 3.52199 93.8039 3.61617 93.8234 3.71533Z" fill="#999999"/>
<path opacity="0.9" d="M67.76 37.483C67.6533 37.5349 67.5362 37.5618 67.4175 37.5618C67.2988 37.5618 67.1817 37.5349 67.075 37.483L66.7296 37.2696C66.6306 37.2071 66.5477 37.1222 66.4877 37.0217C66.4277 36.9212 66.3923 36.808 66.3843 36.6912V18.4891C66.3889 18.3645 66.4267 18.2434 66.4938 18.1382L67.5073 18.7334C67.4455 18.8353 67.4107 18.9512 67.4063 19.0703V37.2892C67.4175 37.483 67.5607 37.6037 67.76 37.483Z" fill="#333333"/>
<path d="M93.6466 3.57471C93.5931 3.57627 93.5408 3.59175 93.495 3.61963L67.76 18.4778C67.6605 18.5427 67.5776 18.6302 67.5181 18.7331C67.4586 18.836 67.4241 18.9515 67.4175 19.0702V37.2891C67.4175 37.4435 67.4961 37.5334 67.6084 37.5334C67.6628 37.5316 67.7154 37.514 67.76 37.4828L93.495 22.6303C93.5939 22.5653 93.6763 22.4782 93.7358 22.3759C93.7952 22.2735 93.8301 22.1588 93.8376 22.0407V3.81897C93.8376 3.66455 93.759 3.57471 93.6466 3.57471Z" fill="#2284F7"/>
<path d="M1.15625 74.3362C1.16545 74.3069 1.17637 74.2781 1.18895 74.25C1.1764 74.2781 1.16548 74.3069 1.15625 74.3362Z" fill="#EBEBEB"/>
<path d="M29.0532 58.3488C29.0438 58.3065 29.0206 58.2686 28.9872 58.2411C28.9538 58.2136 28.9121 58.1981 28.8688 58.1972C28.8104 58.1993 28.7538 58.2179 28.7053 58.2507L1.45693 73.9796C1.35031 74.0468 1.26238 74.1399 1.20127 74.2501L0.116211 73.6199C0.175997 73.5147 0.260734 73.4259 0.362951 73.3613L27.6084 57.6323C27.7215 57.5758 27.8461 57.5464 27.9726 57.5464C28.099 57.5464 28.2236 57.5758 28.3367 57.6323L28.7024 57.8345C28.7926 57.892 28.8702 57.9672 28.9305 58.0556C28.9908 58.144 29.0325 58.2438 29.0532 58.3488Z" fill="#999999"/>
<path opacity="0.9" d="M1.45666 94.102C1.34365 94.157 1.21964 94.1855 1.09398 94.1855C0.968323 94.1855 0.844308 94.157 0.731301 94.102L0.365651 93.8761C0.260829 93.81 0.173085 93.7201 0.10955 93.6136C0.0460152 93.5072 0.00848181 93.3873 0 93.2637L0 73.9912C0.00494496 73.8593 0.0449637 73.731 0.115938 73.6196L1.18911 74.2499C1.12361 74.3577 1.08677 74.4805 1.08209 74.6066V93.8969C1.09398 94.102 1.24559 94.2298 1.45666 94.102Z" fill="#333333"/>
<path d="M28.8659 58.2002C28.8091 58.2019 28.7538 58.2182 28.7053 58.2478L1.45692 73.9797C1.35152 74.0485 1.26377 74.1411 1.20077 74.25C1.13777 74.359 1.10128 74.4812 1.09424 74.6069V93.8972C1.09424 94.0607 1.17748 94.1559 1.29639 94.1559C1.35395 94.1539 1.40972 94.1354 1.45692 94.1023L28.7053 78.3764C28.81 78.3075 28.8973 78.2153 28.9602 78.107C29.0232 77.9986 29.0601 77.8771 29.068 77.7521V58.4588C29.068 58.2953 28.9848 58.2002 28.8659 58.2002Z" fill="#E6E6E6"/>
<path d="M45.418 56.3009C45.4246 56.2798 45.4325 56.259 45.4416 56.2388C45.4325 56.259 45.4246 56.2798 45.418 56.3009Z" fill="#EBEBEB"/>
<path d="M65.538 44.7696C65.5312 44.7392 65.5145 44.7118 65.4904 44.692C65.4663 44.6722 65.4362 44.661 65.405 44.6603C65.3629 44.6619 65.322 44.6752 65.2871 44.6989L45.634 56.0435C45.5571 56.092 45.4937 56.1591 45.4496 56.2386L44.667 55.784C44.7101 55.7082 44.7712 55.6441 44.845 55.5975L64.4959 44.2529C64.5775 44.2121 64.6674 44.1909 64.7586 44.1909C64.8497 44.1909 64.9397 44.2121 65.0212 44.2529L65.2849 44.3987C65.35 44.4402 65.406 44.4945 65.4495 44.5582C65.493 44.622 65.5231 44.6939 65.538 44.7696Z" fill="#914AD8"/>
<path opacity="0.9" d="M45.6341 70.5572C45.5526 70.5969 45.4632 70.6175 45.3725 70.6175C45.2819 70.6175 45.1925 70.5969 45.111 70.5572L44.8472 70.3943C44.7716 70.3466 44.7083 70.2817 44.6625 70.205C44.6167 70.1282 44.5896 70.0418 44.5835 69.9526V56.0522C44.5871 55.957 44.6159 55.8645 44.6671 55.7842L45.4411 56.2387C45.3939 56.3165 45.3673 56.4051 45.364 56.496V70.4093C45.3725 70.5572 45.4819 70.6494 45.6341 70.5572Z" fill="#2B0A4C"/>
<path d="M65.403 44.6621C65.3621 44.6633 65.3222 44.6751 65.2872 44.6964L45.6341 56.0431C45.5581 56.0928 45.4948 56.1596 45.4494 56.2382C45.404 56.3167 45.3776 56.4049 45.3726 56.4956V70.4088C45.3726 70.5267 45.4326 70.5954 45.5184 70.5954C45.5599 70.594 45.6001 70.5806 45.6341 70.5568L65.2872 59.2143C65.3627 59.1647 65.4257 59.0981 65.4711 59.02C65.5165 58.9419 65.5431 58.8542 65.5488 58.764V44.8486C65.5488 44.7307 65.4888 44.6621 65.403 44.6621Z" fill="#663399"/>
<path d="M74.1738 52.8709L74.2013 52.8159L74.1738 52.8709Z" fill="#EBEBEB"/>
<path d="M91.5243 42.9211C91.5182 42.897 91.5046 42.8756 91.4856 42.8597C91.4665 42.8438 91.443 42.8344 91.4182 42.8327C91.382 42.8335 91.3466 42.8444 91.3161 42.8641L74.3625 52.6529C74.2957 52.695 74.2404 52.753 74.2015 52.8218L73.5278 52.429C73.5635 52.3604 73.6162 52.3022 73.681 52.2601L90.6346 42.4772C90.705 42.4418 90.7827 42.4233 90.8614 42.4233C90.9402 42.4233 91.0179 42.4418 91.0883 42.4772L91.3141 42.6048C91.3688 42.6405 91.4156 42.687 91.4517 42.7414C91.4879 42.7957 91.5126 42.8569 91.5243 42.9211Z" fill="#999999"/>
<path opacity="0.9" d="M74.3625 72.7963C74.2917 72.8303 74.2141 72.8479 74.1356 72.8479C74.0571 72.8479 73.9796 72.8303 73.9088 72.7963L73.6829 72.6568C73.6161 72.6146 73.5605 72.5568 73.5209 72.4884C73.4812 72.42 73.4586 72.343 73.4551 72.264V52.6531C73.458 52.5714 73.4832 52.4919 73.5277 52.4233L74.2034 52.8161C74.1607 52.8853 74.1376 52.9647 74.1366 53.0459V72.6706C74.1366 72.7963 74.2289 72.8827 74.3625 72.7963Z" fill="#333333"/>
<path d="M91.4163 42.8325C91.3807 42.8337 91.3461 42.8446 91.3162 42.864L74.3626 52.6527C74.2963 52.6954 74.2411 52.7533 74.2018 52.8216C74.1625 52.89 74.1402 52.9668 74.1367 53.0455V72.6702C74.1367 72.7723 74.1878 72.8312 74.2624 72.8312C74.2977 72.8298 74.3321 72.8197 74.3626 72.8018L91.3162 63.013C91.3821 62.97 91.437 62.912 91.4763 62.8437C91.5155 62.7755 91.538 62.6989 91.542 62.6202V42.9897C91.542 42.8875 91.4909 42.8286 91.4163 42.8286V42.8325Z" fill="#CE0707"/>
<path d="M95.1236 1.43061L93.1545 0.290606C92.6169 0.0509405 92.0256 -0.043017 91.4402 0.018173C90.8548 0.0793631 90.2957 0.293546 89.8193 0.639202C88.4443 1.54048 87.3012 2.75323 86.4827 4.17903C85.6642 5.60484 85.1934 7.20352 85.1085 8.84536C85.0459 9.43417 85.1413 10.029 85.3847 10.5688C85.6281 11.1086 86.0108 11.5738 86.4935 11.9168L88.2836 12.9437L88.651 12.2277C89.127 12.1202 89.5842 11.9424 90.0077 11.7001C91.3824 10.7962 92.525 9.58158 93.3434 8.15438C94.1617 6.72718 94.6328 5.12745 94.7185 3.4845C94.7183 3.07529 94.6709 2.66746 94.5772 2.26913L95.1236 1.43061Z" fill="#BA68C8"/>
<path d="M95.1236 1.43061L93.1545 0.290606C92.6169 0.0509405 92.0256 -0.043017 91.4402 0.018173C90.8548 0.0793631 90.2957 0.293546 89.8193 0.639202C88.4443 1.54048 87.3012 2.75323 86.4827 4.17903C85.6642 5.60484 85.1934 7.20352 85.1085 8.84536C85.0459 9.43417 85.1413 10.029 85.3847 10.5688C85.6281 11.1086 86.0108 11.5738 86.4935 11.9168L88.2836 12.9437L88.651 12.2277C89.127 12.1202 89.5842 11.9424 90.0077 11.7001C91.3824 10.7962 92.525 9.58158 93.3434 8.15438C94.1617 6.72718 94.6328 5.12745 94.7185 3.4845C94.7183 3.07529 94.6709 2.66746 94.5772 2.26913L95.1236 1.43061Z" fill="#E40D0D"/>
<path d="M85.2407 7.24316C85.1274 7.76651 85.0674 8.29997 85.0616 8.8354C84.9991 9.42421 85.0944 10.0191 85.3378 10.5589C85.5812 11.0986 85.9639 11.5639 86.4466 11.9068L88.2367 12.9338L88.6512 12.2272C89.1272 12.1197 89.5845 11.9419 90.008 11.6995C90.4715 11.4338 90.9043 11.1178 91.2987 10.7574L85.2407 7.24316Z" fill="#CE0707"/>
<path d="M91.6658 1.70367C90.2907 2.60699 89.1476 3.82149 88.3292 5.24881C87.5108 6.67613 87.04 8.27613 86.9551 9.91925C86.9551 12.9436 89.0749 14.1684 91.6658 12.6515C93.0405 11.7476 94.1832 10.533 95.0015 9.10579C95.8199 7.67859 96.2909 6.07886 96.3766 4.43592C96.4143 1.41161 94.3039 0.186808 91.6658 1.70367Z" fill="#BA68C8"/>
<path d="M91.6658 1.70367C90.2907 2.60699 89.1476 3.82149 88.3292 5.24881C87.5108 6.67613 87.04 8.27613 86.9551 9.91925C86.9551 12.9436 89.0749 14.1684 91.6658 12.6515C93.0405 11.7476 94.1832 10.533 95.0015 9.10579C95.8199 7.67859 96.2909 6.07886 96.3766 4.43592C96.4143 1.41161 94.3039 0.186808 91.6658 1.70367Z" fill="#FF363B"/>
<path d="M92.4201 6.99848L93.6449 4.2945C93.757 4.16316 93.8186 3.99613 93.8186 3.82342C93.8186 3.65072 93.757 3.48368 93.6449 3.35235C93.3905 3.14507 93.1455 3.25813 92.9948 3.57846L91.6664 6.32955L90.385 5.10475C90.2343 4.95401 89.9893 5.10475 89.8386 5.41566C89.7632 5.54425 89.7235 5.69059 89.7235 5.83963C89.7235 5.98867 89.7632 6.13502 89.8386 6.2636L91.1199 7.51666L89.8386 10.2206C89.6878 10.541 89.6219 10.9178 89.8386 11.0874C89.8917 11.1265 89.9533 11.1527 90.0183 11.1638C90.0834 11.1749 90.1501 11.1707 90.2132 11.1515C90.2764 11.1323 90.3341 11.0986 90.3819 11.0531C90.4298 11.0077 90.4663 10.9517 90.4887 10.8896L91.77 8.17617L92.9006 9.26907C92.9392 9.30043 92.9874 9.31756 93.0372 9.31756C93.0869 9.31756 93.1352 9.30043 93.1738 9.26907C93.2968 9.19006 93.3923 9.07485 93.447 8.93931C93.5224 8.81073 93.5621 8.66438 93.5621 8.51535C93.5621 8.36631 93.5224 8.21996 93.447 8.09138L92.4201 6.99848Z" fill="#FAFAFA"/>
<path d="M42.4874 77.4389L40.5183 76.2989C39.9807 76.0592 39.3894 75.9653 38.804 76.0265C38.2185 76.0877 37.6595 76.3018 37.1831 76.6475C35.8081 77.5488 34.665 78.7615 33.8465 80.1873C33.028 81.6131 32.5572 83.2118 32.4723 84.8537C32.4097 85.4425 32.505 86.0373 32.7484 86.5771C32.9918 87.1169 33.3745 87.5821 33.8573 87.9251L35.6473 88.952L36.0148 88.236C36.4907 88.1285 36.948 87.9507 37.3715 87.7084C38.7461 86.8045 39.8888 85.5899 40.7072 84.1627C41.5255 82.7355 41.9966 81.1357 42.0823 79.4928C42.0821 79.0836 42.0347 78.6758 41.9409 78.2774L42.4874 77.4389Z" fill="#BA68C8"/>
<path d="M42.4874 77.4389L40.5183 76.2989C39.9807 76.0592 39.3894 75.9653 38.804 76.0265C38.2185 76.0877 37.6595 76.3018 37.1831 76.6475C35.8081 77.5488 34.665 78.7615 33.8465 80.1873C33.028 81.6131 32.5572 83.2118 32.4723 84.8537C32.4097 85.4425 32.505 86.0373 32.7484 86.5771C32.9918 87.1169 33.3745 87.5821 33.8573 87.9251L35.6473 88.952L36.0148 88.236C36.4907 88.1285 36.948 87.9507 37.3715 87.7084C38.7461 86.8045 39.8888 85.5899 40.7072 84.1627C41.5255 82.7355 41.9966 81.1357 42.0823 79.4928C42.0821 79.0836 42.0347 78.6758 41.9409 78.2774L42.4874 77.4389Z" fill="#E40D0D"/>
<path d="M32.6044 83.2515C32.4912 83.7748 32.4312 84.3083 32.4254 84.8437C32.3628 85.4325 32.4581 86.0274 32.7015 86.5672C32.9449 87.1069 33.3277 87.5722 33.8104 87.9151L35.6005 88.9421L36.015 88.2355C36.491 88.128 36.9482 87.9502 37.3717 87.7078C37.8352 87.4421 38.2681 87.1261 38.6625 86.7657L32.6044 83.2515Z" fill="#CE0707"/>
<path d="M39.0301 77.712C37.6549 78.6153 36.5119 79.8298 35.6935 81.2571C34.875 82.6844 34.4043 84.2844 34.3193 85.9276C34.3193 88.9519 36.4392 90.1767 39.0301 88.6598C40.4047 87.7559 41.5474 86.5413 42.3658 85.1141C43.1841 83.6869 43.6552 82.0872 43.7409 80.4442C43.7786 77.4199 41.6681 76.1951 39.0301 77.712Z" fill="#BA68C8"/>
<path d="M39.0301 77.712C37.6549 78.6153 36.5119 79.8298 35.6935 81.2571C34.875 82.6844 34.4043 84.2844 34.3193 85.9276C34.3193 88.9519 36.4392 90.1767 39.0301 88.6598C40.4047 87.7559 41.5474 86.5413 42.3658 85.1141C43.1841 83.6869 43.6552 82.0872 43.7409 80.4442C43.7786 77.4199 41.6681 76.1951 39.0301 77.712Z" fill="#FF363B"/>
<path d="M39.7839 83.0068L41.0087 80.3028C41.1208 80.1715 41.1824 80.0044 41.1824 79.8317C41.1824 79.659 41.1208 79.492 41.0087 79.3606C40.7543 79.1534 40.5093 79.2664 40.3586 79.5868L39.0301 82.3379L37.7488 81.1131C37.5981 80.9623 37.3531 81.1131 37.2024 81.424C37.127 81.5525 37.0873 81.6989 37.0873 81.8479C37.0873 81.997 37.127 82.1433 37.2024 82.2719L38.4837 83.525L37.2024 86.2289C37.0516 86.5493 36.9857 86.9261 37.2024 87.0957C37.2555 87.1348 37.3171 87.161 37.3821 87.1721C37.4471 87.1832 37.5139 87.179 37.577 87.1598C37.6401 87.1406 37.6979 87.1069 37.7457 87.0614C37.7935 87.016 37.8301 86.96 37.8524 86.8979L39.1338 84.1845L40.2644 85.2774C40.303 85.3087 40.3512 85.3259 40.401 85.3259C40.4507 85.3259 40.499 85.3087 40.5376 85.2774C40.6606 85.1984 40.756 85.0831 40.8108 84.9476C40.8862 84.819 40.9259 84.6727 40.9259 84.5236C40.9259 84.3746 40.8862 84.2283 40.8108 84.0997L39.7839 83.0068Z" fill="#FAFAFA"/>
<path d="M29.7213 56.8164L27.7522 55.6763C27.2145 55.4367 26.6233 55.3427 26.0379 55.4039C25.4524 55.4651 24.8934 55.6793 24.4169 56.0249C23.042 56.9262 21.8989 58.139 21.0804 59.5648C20.2619 60.9906 19.7911 62.5893 19.7062 64.2311C19.6436 64.8199 19.7389 65.4148 19.9823 65.9545C20.2257 66.4943 20.6084 66.9596 21.0911 67.3025L22.8812 68.3295L23.2487 67.6134C23.7246 67.506 24.1819 67.3281 24.6054 67.0858C25.98 66.182 27.1227 64.9673 27.941 63.5401C28.7594 62.1129 29.2305 60.5132 29.3161 58.8702C29.316 58.461 29.2686 58.0532 29.1748 57.6549L29.7213 56.8164Z" fill="#BA68C8"/>
<path d="M29.7213 56.8164L27.7522 55.6763C27.2145 55.4367 26.6233 55.3427 26.0379 55.4039C25.4524 55.4651 24.8934 55.6793 24.4169 56.0249C23.042 56.9262 21.8989 58.139 21.0804 59.5648C20.2619 60.9906 19.7911 62.5893 19.7062 64.2311C19.6436 64.8199 19.7389 65.4148 19.9823 65.9545C20.2257 66.4943 20.6084 66.9596 21.0911 67.3025L22.8812 68.3295L23.2487 67.6134C23.7246 67.506 24.1819 67.3281 24.6054 67.0858C25.98 66.182 27.1227 64.9673 27.941 63.5401C28.7594 62.1129 29.2305 60.5132 29.3161 58.8702C29.316 58.461 29.2686 58.0532 29.1748 57.6549L29.7213 56.8164Z" fill="#E40D0D"/>
<path d="M19.8383 62.6289C19.7251 63.1523 19.6651 63.6857 19.6593 64.2211C19.5967 64.81 19.692 65.4048 19.9354 65.9446C20.1788 66.4844 20.5616 66.9496 21.0443 67.2926L22.8344 68.3195L23.2489 67.6129C23.7248 67.5054 24.1821 67.3276 24.6056 67.0853C25.0691 66.8195 25.502 66.5036 25.8964 66.1431L19.8383 62.6289Z" fill="#CE0707"/>
<path d="M26.264 57.0894C24.8888 57.9927 23.7458 59.2072 22.9273 60.6346C22.1089 62.0619 21.6382 63.6619 21.5532 65.305C21.5532 68.3293 23.6731 69.5541 26.264 68.0372C27.6386 67.1334 28.7813 65.9187 29.5997 64.4915C30.418 63.0643 30.8891 61.4646 30.9748 59.8217C31.0124 56.7973 28.902 55.5726 26.264 57.0894Z" fill="#BA68C8"/>
<path d="M26.264 57.0894C24.8888 57.9927 23.7458 59.2072 22.9273 60.6346C22.1089 62.0619 21.6382 63.6619 21.5532 65.305C21.5532 68.3293 23.6731 69.5541 26.264 68.0372C27.6386 67.1334 28.7813 65.9187 29.5997 64.4915C30.418 63.0643 30.8891 61.4646 30.9748 59.8217C31.0124 56.7973 28.902 55.5726 26.264 57.0894Z" fill="#FF363B"/>
<path d="M27.0177 62.3842L28.2425 59.6802C28.3547 59.5489 28.4163 59.3819 28.4163 59.2092C28.4163 59.0365 28.3547 58.8694 28.2425 58.7381C27.9882 58.5308 27.7432 58.6439 27.5925 58.9642L26.264 61.7153L24.9827 60.4905C24.8319 60.3397 24.587 60.4905 24.4362 60.8014C24.3609 60.93 24.3212 61.0763 24.3212 61.2254C24.3212 61.3744 24.3609 61.5208 24.4362 61.6493L25.7176 62.9024L24.4362 65.6064C24.2855 65.9267 24.2196 66.3036 24.4362 66.4732C24.4894 66.5123 24.5509 66.5384 24.616 66.5495C24.681 66.5607 24.7478 66.5564 24.8109 66.5372C24.874 66.518 24.9318 66.4843 24.9796 66.4389C25.0274 66.3934 25.064 66.3374 25.0863 66.2753L26.3677 63.5619L27.4982 64.6548C27.5369 64.6862 27.5851 64.7033 27.6349 64.7033C27.6846 64.7033 27.7328 64.6862 27.7715 64.6548C27.8945 64.5758 27.9899 64.4606 28.0447 64.3251C28.12 64.1965 28.1598 64.0501 28.1598 63.9011C28.1598 63.752 28.12 63.6057 28.0447 63.4771L27.0177 62.3842Z" fill="#FAFAFA"/>
<path d="M94.5347 40.5151L92.5656 39.3751C92.028 39.1354 91.4368 39.0415 90.8513 39.1026C90.2659 39.1638 89.7069 39.378 89.2304 39.7237C87.8555 40.625 86.7124 41.8377 85.8939 43.2635C85.0754 44.6893 84.6046 46.288 84.5197 47.9298C84.4571 48.5186 84.5524 49.1135 84.7958 49.6533C85.0392 50.1931 85.4219 50.6583 85.9046 51.0012L87.6947 52.0282L88.0622 51.3122C88.5381 51.2047 88.9954 51.0269 89.4189 50.7846C90.7935 49.8807 91.9362 48.6661 92.7545 47.2389C93.5729 45.8116 94.0439 44.2119 94.1296 42.569C94.1295 42.1598 94.082 41.7519 93.9883 41.3536L94.5347 40.5151Z" fill="#BA68C8"/>
<path d="M94.5347 40.5151L92.5656 39.3751C92.028 39.1354 91.4368 39.0415 90.8513 39.1026C90.2659 39.1638 89.7069 39.378 89.2304 39.7237C87.8555 40.625 86.7124 41.8377 85.8939 43.2635C85.0754 44.6893 84.6046 46.288 84.5197 47.9298C84.4571 48.5186 84.5524 49.1135 84.7958 49.6533C85.0392 50.1931 85.4219 50.6583 85.9046 51.0012L87.6947 52.0282L88.0622 51.3122C88.5381 51.2047 88.9954 51.0269 89.4189 50.7846C90.7935 49.8807 91.9362 48.6661 92.7545 47.2389C93.5729 45.8116 94.0439 44.2119 94.1296 42.569C94.1295 42.1598 94.082 41.7519 93.9883 41.3536L94.5347 40.5151Z" fill="#E40D0D"/>
<path d="M84.6513 46.3276C84.538 46.851 84.4781 47.3844 84.4723 47.9199C84.4097 48.5087 84.505 49.1035 84.7484 49.6433C84.9918 50.1831 85.3745 50.6484 85.8573 50.9913L87.6473 52.0182L88.0619 51.3116C88.5378 51.2042 88.9951 51.0263 89.4186 50.784C89.8821 50.5183 90.315 50.2023 90.7093 49.8419L84.6513 46.3276Z" fill="#AF0606"/>
<path d="M91.0765 40.7881C89.7013 41.6915 88.5583 42.906 87.7398 44.3333C86.9214 45.7606 86.4507 47.3606 86.3657 49.0037C86.3657 52.028 88.4856 53.2528 91.0765 51.736C92.4511 50.8321 93.5938 49.6175 94.4122 48.1903C95.2305 46.7631 95.7016 45.1633 95.7873 43.5204C95.8249 40.4961 93.7145 39.2713 91.0765 40.7881Z" fill="#BA68C8"/>
<path d="M91.0765 40.7881C89.7013 41.6915 88.5583 42.906 87.7398 44.3333C86.9214 45.7606 86.4507 47.3606 86.3657 49.0037C86.3657 52.028 88.4856 53.2528 91.0765 51.736C92.4511 50.8321 93.5938 49.6175 94.4122 48.1903C95.2305 46.7631 95.7016 45.1633 95.7873 43.5204C95.8249 40.4961 93.7145 39.2713 91.0765 40.7881Z" fill="#FF363B"/>
<path d="M91.8307 46.083L93.0555 43.379C93.1677 43.2476 93.2293 43.0806 93.2293 42.9079C93.2293 42.7352 93.1677 42.5682 93.0555 42.4368C92.8012 42.2295 92.5562 42.3426 92.4054 42.6629L91.077 45.414L89.7957 44.1892C89.6449 44.0385 89.4 44.1892 89.2492 44.5001C89.1739 44.6287 89.1342 44.7751 89.1342 44.9241C89.1342 45.0731 89.1739 45.2195 89.2492 45.3481L90.5306 46.6011L89.2492 49.3051C89.0985 49.6254 89.0325 50.0023 89.2492 50.1719C89.3024 50.211 89.3639 50.2371 89.429 50.2483C89.494 50.2594 89.5608 50.2552 89.6239 50.236C89.687 50.2167 89.7448 50.1831 89.7926 50.1376C89.8404 50.0921 89.877 50.0361 89.8993 49.974L91.1806 47.2606L92.3112 48.3535C92.3499 48.3849 92.3981 48.402 92.4478 48.402C92.4976 48.402 92.5458 48.3849 92.5845 48.3535C92.7074 48.2745 92.8029 48.1593 92.8577 48.0238C92.933 47.8952 92.9728 47.7489 92.9728 47.5998C92.9728 47.4508 92.933 47.3044 92.8577 47.1758L91.8307 46.083Z" fill="#FAFAFA"/>
<path d="M70.5728 40.3183L68.6037 39.1783C68.0661 38.9386 67.4749 38.8447 66.8894 38.9059C66.304 38.9671 65.745 39.1812 65.2685 39.5269C63.8935 40.4282 62.7504 41.6409 61.932 43.0667C61.1135 44.4925 60.6427 46.0912 60.5577 47.7331C60.4952 48.3219 60.5905 48.9167 60.8339 49.4565C61.0773 49.9963 61.46 50.4615 61.9427 50.8045L63.7328 51.8314L64.1002 51.1154C64.5762 51.0079 65.0334 50.8301 65.4569 50.5878C66.8316 49.6839 67.9743 48.4693 68.7926 47.0421C69.611 45.6149 70.082 44.0151 70.1677 42.3722C70.1676 41.963 70.1201 41.5552 70.0264 41.1568L70.5728 40.3183Z" fill="#BA68C8"/>
<path d="M70.5728 40.3183L68.6037 39.1783C68.0661 38.9386 67.4749 38.8447 66.8894 38.9059C66.304 38.9671 65.745 39.1812 65.2685 39.5269C63.8935 40.4282 62.7504 41.6409 61.932 43.0667C61.1135 44.4925 60.6427 46.0912 60.5577 47.7331C60.4952 48.3219 60.5905 48.9167 60.8339 49.4565C61.0773 49.9963 61.46 50.4615 61.9427 50.8045L63.7328 51.8314L64.1002 51.1154C64.5762 51.0079 65.0334 50.8301 65.4569 50.5878C66.8316 49.6839 67.9743 48.4693 68.7926 47.0421C69.611 45.6149 70.082 44.0151 70.1677 42.3722C70.1676 41.963 70.1201 41.5552 70.0264 41.1568L70.5728 40.3183Z" fill="#E40D0D"/>
<path d="M60.6899 46.1313C60.5766 46.6547 60.5166 47.1882 60.5109 47.7236C60.4483 48.3124 60.5436 48.9072 60.787 49.447C61.0304 49.9868 61.4131 50.4521 61.8958 50.795L63.6859 51.8219L64.1005 51.1153C64.5764 51.0079 65.0337 50.83 65.4572 50.5877C65.9207 50.322 66.3535 50.006 66.7479 49.6456L60.6899 46.1313Z" fill="#CE0707"/>
<path d="M67.1156 40.5914C65.7404 41.4947 64.5973 42.7092 63.7789 44.1365C62.9605 45.5638 62.4897 47.1638 62.4048 48.8069C62.4048 51.8313 64.5246 53.0561 67.1156 51.5392C68.4902 50.6353 69.6329 49.4207 70.4512 47.9935C71.2696 46.5663 71.7406 44.9666 71.8263 43.3236C71.864 40.2993 69.7536 39.0745 67.1156 40.5914Z" fill="#BA68C8"/>
<path d="M67.1156 40.5914C65.7404 41.4947 64.5973 42.7092 63.7789 44.1365C62.9605 45.5638 62.4897 47.1638 62.4048 48.8069C62.4048 51.8313 64.5246 53.0561 67.1156 51.5392C68.4902 50.6353 69.6329 49.4207 70.4512 47.9935C71.2696 46.5663 71.7406 44.9666 71.8263 43.3236C71.864 40.2993 69.7536 39.0745 67.1156 40.5914Z" fill="#FF363B"/>
<path d="M67.8693 45.8862L69.0941 43.1822C69.2063 43.0509 69.2679 42.8838 69.2679 42.7111C69.2679 42.5384 69.2063 42.3714 69.0941 42.24C68.8397 42.0328 68.5948 42.1458 68.444 42.4662L67.1156 45.2172L65.8343 43.9924C65.6835 43.8417 65.4386 43.9924 65.2878 44.3034C65.2125 44.4319 65.1727 44.5783 65.1727 44.7273C65.1727 44.8764 65.2125 45.0227 65.2878 45.1513L66.5691 46.4044L65.2878 49.1083C65.1371 49.4287 65.0711 49.8055 65.2878 49.9751C65.341 50.0142 65.4025 50.0404 65.4676 50.0515C65.5326 50.0626 65.5993 50.0584 65.6625 50.0392C65.7256 50.02 65.7834 49.9863 65.8312 49.9408C65.879 49.8953 65.9155 49.8393 65.9379 49.7773L67.2192 47.0639L68.3498 48.1568C68.3884 48.1881 68.4367 48.2053 68.4864 48.2053C68.5362 48.2053 68.5844 48.1881 68.623 48.1568C68.746 48.0778 68.8415 47.9625 68.8962 47.827C68.9716 47.6984 69.0113 47.5521 69.0113 47.403C69.0113 47.254 68.9716 47.1077 68.8962 46.9791L67.8693 45.8862Z" fill="#FAFAFA"/>
<path d="M53.0933 19.1069L51.1242 17.9669C50.5866 17.7272 49.9954 17.6333 49.4099 17.6944C48.8245 17.7556 48.2655 17.9698 47.789 18.3155C46.4141 19.2168 45.2709 20.4295 44.4525 21.8553C43.634 23.2811 43.1632 24.8798 43.0782 26.5216C43.0157 27.1104 43.111 27.7053 43.3544 28.2451C43.5978 28.7849 43.9805 29.2501 44.4632 29.593L46.2533 30.62L46.6207 29.904C47.0967 29.7965 47.554 29.6187 47.9774 29.3763C49.3521 28.4725 50.4948 27.2579 51.3131 25.8306C52.1315 24.4034 52.6025 22.8037 52.6882 21.1608C52.6881 20.7516 52.6406 20.3437 52.5469 19.9454L53.0933 19.1069Z" fill="#BA68C8"/>
<path d="M53.0933 19.1069L51.1242 17.9669C50.5866 17.7272 49.9954 17.6333 49.4099 17.6944C48.8245 17.7556 48.2655 17.9698 47.789 18.3155C46.4141 19.2168 45.2709 20.4295 44.4525 21.8553C43.634 23.2811 43.1632 24.8798 43.0782 26.5216C43.0157 27.1104 43.111 27.7053 43.3544 28.2451C43.5978 28.7849 43.9805 29.2501 44.4632 29.593L46.2533 30.62L46.6207 29.904C47.0967 29.7965 47.554 29.6187 47.9774 29.3763C49.3521 28.4725 50.4948 27.2579 51.3131 25.8306C52.1315 24.4034 52.6025 22.8037 52.6882 21.1608C52.6881 20.7516 52.6406 20.3437 52.5469 19.9454L53.0933 19.1069Z" fill="#E40D0D"/>
<path d="M43.2104 24.9199C43.0971 25.4433 43.0372 25.9767 43.0314 26.5122C42.9688 27.101 43.0641 27.6958 43.3075 28.2356C43.5509 28.7754 43.9336 29.2407 44.4163 29.5836L46.2064 30.6105L46.621 29.9039C47.0969 29.7964 47.5542 29.6186 47.9777 29.3763C48.4412 29.1105 48.874 28.7946 49.2684 28.4342L43.2104 24.9199Z" fill="#CE0707"/>
<path d="M49.6356 19.3799C48.2604 20.2833 47.1173 21.4978 46.2989 22.9251C45.4805 24.3524 45.0098 25.9524 44.9248 27.5955C44.9248 30.6198 47.0446 31.8446 49.6356 30.3278C51.0102 29.4239 52.1529 28.2093 52.9712 26.7821C53.7896 25.3549 54.2606 23.7551 54.3463 22.1122C54.384 19.0879 52.2736 17.8631 49.6356 19.3799Z" fill="#BA68C8"/>
<path d="M49.6356 19.3799C48.2604 20.2833 47.1173 21.4978 46.2989 22.9251C45.4805 24.3524 45.0098 25.9524 44.9248 27.5955C44.9248 30.6198 47.0446 31.8446 49.6356 30.3278C51.0102 29.4239 52.1529 28.2093 52.9712 26.7821C53.7896 25.3549 54.2606 23.7551 54.3463 22.1122C54.384 19.0879 52.2736 17.8631 49.6356 19.3799Z" fill="#FF363B"/>
<path d="M50.3898 24.6747L51.6146 21.9708C51.7268 21.8394 51.7884 21.6724 51.7884 21.4997C51.7884 21.327 51.7268 21.16 51.6146 21.0286C51.3602 20.8213 51.1153 20.9344 50.9645 21.2547L49.6361 24.0058L48.3548 22.781C48.204 22.6303 47.9591 22.781 47.8083 23.0919C47.733 23.2205 47.6932 23.3669 47.6932 23.5159C47.6932 23.6649 47.733 23.8113 47.8083 23.9399L49.0896 25.1929L47.8083 27.8969C47.6576 28.2172 47.5916 28.5941 47.8083 28.7637C47.8615 28.8028 47.923 28.8289 47.9881 28.8401C48.0531 28.8512 48.1198 28.847 48.183 28.8278C48.2461 28.8085 48.3039 28.7749 48.3517 28.7294C48.3995 28.6839 48.436 28.6279 48.4584 28.5658L49.7397 25.8524L50.8703 26.9453C50.9089 26.9767 50.9572 26.9938 51.0069 26.9938C51.0567 26.9938 51.1049 26.9767 51.1435 26.9453C51.2665 26.8663 51.362 26.7511 51.4168 26.6156C51.4921 26.487 51.5318 26.3407 51.5318 26.1916C51.5318 26.0426 51.4921 25.8962 51.4168 25.7676L50.3898 24.6747Z" fill="#FAFAFA"/>
</svg>
