<svg viewBox="0 0 123 123" fill="none" xmlns="http://www.w3.org/2000/svg">
<path opacity="0.1" d="M64.5021 69.3384L50.1689 61.0625L29.6293 62.2699L0.509038 79.4617C0.352384 79.554 0.222822 79.6862 0.133494 79.845C0.0441656 80.0038 -0.00174804 80.1835 0.000416314 80.3659C0.00258067 80.5483 0.0527416 80.7269 0.145813 80.8835C0.238885 81.0401 0.371547 81.1692 0.530346 81.2577L24.1518 94.3844C24.3981 94.5226 24.6761 94.5934 24.9582 94.5896C25.2402 94.5859 25.5163 94.5077 25.7588 94.363L30.3135 91.6615V91.6765L32.2551 90.5076L37.6751 87.2966H50.6122L46.2515 82.099L64.517 71.1152C64.6711 71.0235 64.7985 70.8928 64.8865 70.7361C64.9745 70.5795 65.02 70.4023 65.0185 70.2225C65.017 70.0426 64.9685 69.8663 64.8779 69.7111C64.7872 69.556 64.6577 69.4275 64.5021 69.3384V69.3384Z" fill="#333333"/>
<path d="M62.2064 81.8962L54.231 86.5201C52.2894 87.6461 49.0817 87.522 47.4108 86.2547L37.6813 78.3341L48.3699 72.1411L61.7503 77.9381C63.9328 78.91 64.1481 80.7702 62.2064 81.8962Z" fill="#C6C6C6"/>
<path d="M62.2066 80.982L54.2311 85.608C52.2895 86.734 49.0819 86.6077 47.4109 85.3426L38.3166 77.9508L48.9988 71.7578L61.7441 77.0325C63.9329 77.9958 64.1482 79.8474 62.2066 80.982Z" fill="#F8FBFF"/>
<path style="mix-blend-mode:multiply" d="M62.2066 80.982L54.2311 85.608C52.2895 86.734 49.0819 86.6077 47.4109 85.3426L38.3166 77.9508L48.9988 71.7578L61.7441 77.0325C63.9329 77.9958 64.1482 79.8474 62.2066 80.982Z" fill="url(#paint0_linear_2215_11331)"/>
<path d="M26.7603 83.6131L24.6822 82.4614V86.1348L26.7603 87.2865V83.6131Z" fill="#E6E6E6"/>
<path d="M26.7602 83.6131V87.2865L75.8809 58.8025V55.127L26.7602 83.6131Z" fill="#F8FBFF"/>
<path d="M26.6473 43.9354L24.5693 42.7837L24.6822 82.4612L26.7603 83.6129L26.6473 43.9354Z" fill="#121C23"/>
<path d="M75.7695 15.4515L73.6894 14.2998L24.5687 42.7837L26.6467 43.9354L75.7695 15.4515Z" fill="#333333"/>
<path d="M26.6472 43.9356L26.7602 83.6132L75.8809 55.1271L75.77 15.4517L26.6472 43.9356Z" fill="#666666"/>
<path d="M28.2777 44.8195L28.3757 81.119L74.2524 54.2449L74.1544 17.9453L28.2777 44.8195Z" fill="#7DC9C6"/>
<path d="M28.2777 44.8194L28.3757 81.119L74.2524 54.2449L74.1544 17.9453L28.2777 44.8194Z" fill="#2284F7"/>
<path d="M61.6285 40.0469C61.3193 39.354 59.2349 39.7187 58.6517 40.5939C58.3431 41.0575 58.2173 41.6158 58.3887 41.986C58.7202 42.6944 58.891 43.5696 58.8911 44.542C58.8911 48.6163 55.8167 53.2347 52.0334 54.8438L53.2049 52.4384C53.2046 51.8847 51.5408 51.8321 51.0613 52.6107L47.8723 57.4013C47.6437 57.7447 47.6437 58.1263 47.8723 58.2753L52.0606 60.9211C52.4152 61.1638 54.3222 59.0156 52.0334 59.5098V57.3057C57.0855 55.1571 61.1779 49.0103 61.1779 43.5695C61.178 42.2894 62.0514 40.9871 61.6285 40.0469ZM54.1669 34.5342C53.8126 34.291 52.0324 34.8537 52.0324 35.4077V37.6108C46.9802 39.7593 42.888 45.9062 42.8879 51.347C42.8879 52.6272 43.1169 53.7613 43.5399 54.7016C43.8489 55.3945 46.0135 55.2146 46.145 54.7305C46.4536 54.2669 45.8485 53.3007 45.6771 52.9305C45.3457 52.2221 45.1738 51.3473 45.1738 50.3749C45.1739 46.3005 48.249 41.6817 52.0324 40.0727V42.2758C52.0324 42.8298 53.4387 42.7966 53.7897 42.5794L56.2053 37.5102C56.4335 37.167 56.4338 36.7851 56.2053 36.6362L54.1669 34.5342Z" fill="#D08002"/>
<path d="M61.7748 40.1846C61.4661 39.4914 60.4826 39.6886 59.8997 40.5643C59.5913 41.0279 59.4654 41.5863 59.6368 41.9564C59.9682 42.6648 60.14 43.5395 60.14 44.5119C60.14 48.5864 57.0651 53.2057 53.2818 54.8152V52.612C53.2818 52.0582 52.6651 52.0496 52.3107 52.5818L49.121 57.3733C48.8927 57.7166 48.8926 58.0984 49.121 58.2473L52.3107 60.3249C52.6651 60.5674 53.2818 60.0339 53.2818 59.4802V57.2771C58.3339 55.1279 62.4257 48.9804 62.4258 43.5395C62.4258 42.2593 62.1977 41.1249 61.7748 40.1846ZM54.2538 34.5335C53.8995 34.2904 53.282 34.8238 53.2818 35.3777V37.5818C48.2297 39.731 44.1378 45.8785 44.1378 51.3193C44.1379 52.5994 44.3669 53.7326 44.7897 54.6728C45.0983 55.3663 46.0809 55.1702 46.6639 54.2945C46.9725 53.8309 47.0982 53.2726 46.9268 52.9024C46.5954 52.1941 46.4236 51.3193 46.4236 50.3469C46.4236 46.2725 49.4985 41.6532 53.2818 40.0437V42.2468C53.2818 42.8006 53.8989 42.8089 54.2647 42.2721L57.4535 37.4809C57.6821 37.1375 57.6821 36.7559 57.4535 36.6069L54.2538 34.5335Z" fill="#FFD600"/>
<path opacity="0.1" d="M112.528 80.8346L100.063 74.194L82.5802 75.8223L58.2454 91.3334C58.1145 91.4166 58.0079 91.5332 57.9363 91.6712C57.8648 91.8093 57.8308 91.9639 57.838 92.1194C57.8452 92.2749 57.8931 92.4257 57.9771 92.5566C58.061 92.6874 58.1779 92.7937 58.316 92.8645L90.6232 105.895C92.3493 106.788 82.7522 101.682 84.0205 100.87L84.0209 100.882L85.6428 99.829L90.1717 96.9324L101.205 96.5554L97.3348 92.2496L112.593 82.3495C112.722 82.2668 112.826 82.1516 112.897 82.0154C112.967 81.8793 113.001 81.7269 112.995 81.5735C112.988 81.4201 112.941 81.2712 112.86 81.1415C112.778 81.0118 112.664 80.906 112.528 80.8346Z" fill="#333333"/>
<g clip-path="url(#clip0_2215_11331)">
<path d="M93.6025 106.025L122.235 89.5846C122.447 89.4876 122.629 89.3369 122.763 89.1476C122.897 88.9584 122.979 88.7373 123 88.5067V87.0945C123 86.6013 122.623 87.4565 121.919 87.0508L105.667 77.7227C104.363 76.9709 102.387 76.8914 101.267 77.5398L72.6298 93.9802C72.2538 94.1989 71.9818 93.2761 71.8818 93.5824C71.8497 93.6778 71.8818 94.9706 71.8818 95.0701C71.8818 95.5753 72.2338 96.1083 72.9578 96.526L89.1903 105.842C90.4944 106.594 92.4705 106.673 93.6025 106.025Z" fill="#333333"/>
<path d="M93.6024 104.648L122.235 88.1999C123.367 87.5436 123.223 86.4178 121.919 85.666L105.667 76.338C104.363 75.5862 102.387 75.5066 101.267 76.155L72.6297 92.5954C71.5016 93.2438 71.6416 94.3775 72.9457 95.1293L89.1902 104.457C90.4943 105.209 92.4704 105.289 93.6024 104.648Z" fill="#E6E6E6"/>
<path d="M93.603 106.025C92.471 106.673 90.4949 106.594 89.2029 105.842V104.458C90.5069 105.209 92.483 105.289 93.603 104.641V106.025Z" fill="#666666"/>
<path d="M93.6027 104.649L122.236 88.2002C122.467 88.0984 122.662 87.9305 122.796 87.718C122.931 87.5055 122.999 87.2579 122.992 87.0068C122.994 87.032 122.994 87.0573 122.992 87.0824V88.4945C122.971 88.7252 122.889 88.9463 122.755 89.1355C122.621 89.3248 122.439 89.4755 122.228 89.5725L93.5947 106.013L93.6027 104.649Z" fill="#666666"/>
<path d="M72.9379 94.8951L89.1905 104.223C90.4945 104.975 92.4706 105.054 93.5906 104.406L122.236 87.9657C122.435 87.873 122.608 87.7338 122.741 87.5599C122.874 87.3861 122.963 87.1827 123 86.9673C123.017 87.2253 122.954 87.4823 122.818 87.7031C122.683 87.9238 122.482 88.0976 122.244 88.2004L93.6026 104.649C92.4706 105.297 90.4945 105.218 89.2025 104.466L72.9499 95.1377C72.1859 94.6962 71.8259 94.1274 71.8819 93.6023C71.9483 93.8831 72.0778 94.1453 72.2607 94.3692C72.4436 94.5932 72.6751 94.7729 72.9379 94.8951V94.8951Z" fill="#E6E6E6"/>
<path opacity="0.3" d="M100.119 98.8963L110.311 93.0449C110.515 92.9295 110.491 92.7227 110.255 92.5874L106.427 90.3917C106.306 90.3247 106.17 90.287 106.031 90.2815C105.892 90.2759 105.754 90.3028 105.627 90.3598L95.4388 96.2112C95.2308 96.3266 95.2588 96.5334 95.4948 96.6687L99.319 98.8644C99.4402 98.9326 99.576 98.971 99.7151 98.9766C99.8542 98.9821 99.9927 98.9546 100.119 98.8963V98.8963Z" fill="white"/>
<path d="M110.255 92.8301L106.427 90.6343C106.305 90.5667 106.17 90.5283 106.031 90.5221C105.892 90.5159 105.754 90.5421 105.627 90.5985L95.4383 96.4499C95.4003 96.4701 95.3675 96.4987 95.3423 96.5334C95.3229 96.5072 95.3099 96.4769 95.3042 96.4448C95.2986 96.4127 95.3005 96.3798 95.3098 96.3486C95.3191 96.3174 95.3355 96.2887 95.3578 96.2649C95.3801 96.2411 95.4077 96.2227 95.4383 96.2112L105.631 90.3598C105.757 90.3028 105.896 90.2759 106.034 90.2815C106.173 90.287 106.309 90.3247 106.431 90.3917L110.259 92.5874C110.447 92.6948 110.499 92.846 110.407 92.9653C110.367 92.9092 110.315 92.8629 110.255 92.8301Z" fill="#C6C6C6"/>
<path opacity="0.5" d="M103.123 78.2675L101.367 79.2779C101.243 79.3392 101.106 79.3711 100.967 79.3711C100.828 79.3711 100.691 79.3392 100.567 79.2779C100.518 79.262 100.475 79.2312 100.445 79.1897C100.415 79.1483 100.398 79.0984 100.398 79.0472C100.398 78.996 100.415 78.9461 100.445 78.9046C100.475 78.8632 100.518 78.8323 100.567 78.8165L102.319 77.8061C102.443 77.7438 102.58 77.7114 102.719 77.7114C102.858 77.7114 102.995 77.7438 103.119 77.8061C103.168 77.8215 103.211 77.852 103.242 77.8932C103.272 77.9344 103.289 77.9841 103.289 78.0354C103.29 78.0866 103.274 78.1366 103.244 78.1783C103.214 78.22 103.172 78.2512 103.123 78.2675V78.2675ZM100.115 79.9859L99.2829 80.4633C99.1589 80.5258 99.0219 80.5584 98.8828 80.5584C98.7438 80.5584 98.6068 80.5258 98.4828 80.4633C98.2628 80.336 98.2628 80.1291 98.4828 79.9979L99.3149 79.5205C99.4392 79.4592 99.5761 79.4273 99.7149 79.4273C99.8537 79.4273 99.9906 79.4592 100.115 79.5205C100.165 79.5354 100.21 79.566 100.241 79.608C100.273 79.6499 100.29 79.7009 100.29 79.7532C100.29 79.8056 100.273 79.8565 100.241 79.8985C100.21 79.9404 100.165 79.9711 100.115 79.9859ZM98.0308 81.1793L97.1988 81.6566C97.0747 81.7189 96.9377 81.7513 96.7988 81.7513C96.6598 81.7513 96.5228 81.7189 96.3988 81.6566C96.3498 81.6408 96.3071 81.6099 96.2769 81.5685C96.2466 81.527 96.2303 81.4771 96.2303 81.4259C96.2303 81.3747 96.2466 81.3248 96.2769 81.2834C96.3071 81.2419 96.3498 81.2111 96.3988 81.1952L97.2308 80.7179C97.3547 80.6553 97.4918 80.6227 97.6308 80.6227C97.7698 80.6227 97.9069 80.6553 98.0308 80.7179C98.0798 80.7337 98.1224 80.7646 98.1527 80.806C98.1829 80.8475 98.1992 80.8974 98.1992 80.9486C98.1992 80.9998 98.1829 81.0497 98.1527 81.0911C98.1224 81.1326 98.0798 81.1634 98.0308 81.1793V81.1793ZM95.9507 82.3726L95.1187 82.854C94.9944 82.9153 94.8575 82.9472 94.7187 82.9472C94.5799 82.9472 94.443 82.9153 94.3187 82.854C94.2697 82.8381 94.2271 82.8072 94.1968 82.7658C94.1666 82.7244 94.1503 82.6745 94.1503 82.6232C94.1503 82.572 94.1666 82.5221 94.1968 82.4807C94.2271 82.4393 94.2697 82.4084 94.3187 82.3925L95.1507 81.9112C95.2748 81.849 95.4118 81.8165 95.5507 81.8165C95.6897 81.8165 95.8267 81.849 95.9507 81.9112C95.9997 81.9271 96.0424 81.9579 96.0726 81.9994C96.1029 82.0408 96.1192 82.0907 96.1192 82.1419C96.1192 82.1931 96.1029 82.243 96.0726 82.2845C96.0424 82.3259 95.9997 82.3568 95.9507 82.3726V82.3726ZM93.8667 83.566L93.0346 84.0433C92.9103 84.1047 92.7734 84.1366 92.6346 84.1366C92.4958 84.1366 92.3589 84.1047 92.2346 84.0433C92.1861 84.0264 92.1441 83.9949 92.1144 83.9532C92.0847 83.9116 92.0688 83.8617 92.0688 83.8106C92.0688 83.7595 92.0847 83.7097 92.1144 83.668C92.1441 83.6263 92.1861 83.5948 92.2346 83.5779L93.0666 83.1006C93.191 83.0392 93.3279 83.0073 93.4667 83.0073C93.6054 83.0073 93.7423 83.0392 93.8667 83.1006C93.9172 83.1154 93.9615 83.1461 93.993 83.188C94.0245 83.23 94.0415 83.2809 94.0415 83.3333C94.0415 83.3856 94.0245 83.4366 93.993 83.4785C93.9615 83.5205 93.9172 83.5512 93.8667 83.566V83.566ZM91.7826 84.7593L90.9506 85.2367C90.8265 85.2989 90.6895 85.3313 90.5506 85.3313C90.4116 85.3313 90.2746 85.2989 90.1505 85.2367C90.1016 85.2208 90.0589 85.19 90.0287 85.1485C89.9984 85.1071 89.9821 85.0572 89.9821 85.006C89.9821 84.9548 89.9984 84.9049 90.0287 84.8634C90.0589 84.822 90.1016 84.7911 90.1505 84.7753L90.9826 84.2979C91.1065 84.2354 91.2436 84.2028 91.3826 84.2028C91.5216 84.2028 91.6586 84.2354 91.7826 84.2979C92.0066 84.4411 92.0066 84.648 91.7986 84.7792L91.7826 84.7593ZM89.7025 85.9527L88.8705 86.43C88.7465 86.4926 88.6095 86.5252 88.4705 86.5252C88.3315 86.5252 88.1944 86.4926 88.0705 86.43C87.8505 86.3027 87.8505 86.0959 88.0705 85.9646L88.9025 85.4873C89.0266 85.425 89.1636 85.3926 89.3025 85.3926C89.4415 85.3926 89.5785 85.425 89.7025 85.4873C89.7672 85.4873 89.8293 85.5128 89.8751 85.5584C89.9208 85.6039 89.9465 85.6656 89.9465 85.7299C89.9465 85.7943 89.9208 85.856 89.8751 85.9015C89.8293 85.947 89.7672 85.9726 89.7025 85.9726V85.9527ZM87.6185 87.146L86.7864 87.6234C86.6621 87.6847 86.5252 87.7166 86.3864 87.7166C86.2476 87.7166 86.1107 87.6847 85.9864 87.6234C85.9374 87.6075 85.8948 87.5767 85.8645 87.5352C85.8343 87.4938 85.818 87.4439 85.818 87.3927C85.818 87.3415 85.8343 87.2916 85.8645 87.2501C85.8948 87.2087 85.9374 87.1778 85.9864 87.1619L86.8184 86.6846C86.9424 86.6221 87.0794 86.5895 87.2184 86.5895C87.3574 86.5895 87.4945 86.6221 87.6185 86.6846C87.6832 86.6846 87.7452 86.7102 87.791 86.7557C87.8368 86.8012 87.8625 86.8629 87.8625 86.9273C87.8625 86.9916 87.8368 87.0533 87.791 87.0988C87.7452 87.1443 87.6832 87.1699 87.6185 87.1699V87.146ZM85.5344 88.3394L84.7024 88.8207C84.5783 88.8829 84.4413 88.9154 84.3023 88.9154C84.1634 88.9154 84.0264 88.8829 83.9023 88.8207C83.8534 88.8048 83.8107 88.774 83.7804 88.7325C83.7502 88.6911 83.7339 88.6412 83.7339 88.59C83.7339 88.5388 83.7502 88.4889 83.7804 88.4474C83.8107 88.406 83.8534 88.3751 83.9023 88.3593L84.7304 87.9018C84.8547 87.8405 84.9916 87.8086 85.1304 87.8086C85.2692 87.8086 85.4061 87.8405 85.5304 87.9018C85.5795 87.9173 85.6224 87.9478 85.653 87.9889C85.6837 88.0301 85.7004 88.0799 85.7008 88.1311C85.7013 88.1823 85.6854 88.2323 85.6555 88.2741C85.6256 88.3158 85.5832 88.347 85.5344 88.3633V88.3394ZM83.4543 89.5327L82.6223 90.0101C82.498 90.0714 82.361 90.1033 82.2223 90.1033C82.0835 90.1033 81.9466 90.0714 81.8223 90.0101C81.7738 89.9932 81.7318 89.9617 81.7021 89.92C81.6724 89.8783 81.6564 89.8285 81.6564 89.7774C81.6564 89.7263 81.6724 89.6764 81.7021 89.6348C81.7318 89.5931 81.7738 89.5616 81.8223 89.5447L82.6543 89.0673C82.7783 89.0051 82.9153 88.9727 83.0543 88.9727C83.1932 88.9727 83.3303 89.0051 83.4543 89.0673C83.4869 89.0673 83.5191 89.0737 83.5492 89.0861C83.5793 89.0985 83.6066 89.1167 83.6297 89.1396C83.6527 89.1625 83.671 89.1897 83.6834 89.2196C83.6959 89.2495 83.7023 89.2816 83.7023 89.314C83.7023 89.3463 83.6959 89.3784 83.6834 89.4083C83.671 89.4383 83.6527 89.4654 83.6297 89.4883C83.6066 89.5112 83.5793 89.5294 83.5492 89.5418C83.5191 89.5542 83.4869 89.5606 83.4543 89.5606V89.5327ZM81.3702 90.7261L80.5382 91.2034C80.4142 91.2657 80.2771 91.2981 80.1382 91.2981C79.9992 91.2981 79.8622 91.2657 79.7382 91.2034C79.6892 91.1876 79.6465 91.1567 79.6163 91.1153C79.586 91.0738 79.5698 91.0239 79.5698 90.9727C79.5698 90.9215 79.586 90.8716 79.6163 90.8302C79.6465 90.7887 79.6892 90.7579 79.7382 90.742L80.5702 90.2647C80.6942 90.2021 80.8312 90.1695 80.9702 90.1695C81.1092 90.1695 81.2463 90.2021 81.3702 90.2647C81.5942 90.4198 81.5942 90.6266 81.3702 90.7579V90.7261ZM79.2862 91.9194L78.4541 92.3968C78.3304 92.4599 78.1932 92.4929 78.0541 92.4929C77.915 92.4929 77.7779 92.4599 77.6541 92.3968C77.4301 92.2695 77.4341 92.0626 77.6541 91.9314L78.4861 91.454C78.6105 91.3927 78.7474 91.3608 78.8861 91.3608C79.0249 91.3608 79.1618 91.3927 79.2862 91.454C79.5142 91.6171 79.5102 91.824 79.2862 91.9513V91.9194ZM77.1621 93.1406L76.3301 93.618C76.2057 93.6793 76.0688 93.7112 75.93 93.7112C75.7913 93.7112 75.6544 93.6793 75.53 93.618C75.4816 93.601 75.4396 93.5696 75.4098 93.5279C75.3801 93.4862 75.3642 93.4364 75.3642 93.3853C75.3642 93.3342 75.3801 93.2843 75.4098 93.2427C75.4396 93.201 75.4816 93.1695 75.53 93.1526L76.3581 92.715C76.4824 92.6537 76.6193 92.6217 76.7581 92.6217C76.8969 92.6217 77.0338 92.6537 77.1581 92.715C77.2058 92.7313 77.2472 92.762 77.2767 92.8027C77.3062 92.8434 77.3222 92.8922 77.3227 92.9423C77.3231 92.9925 77.3079 93.0415 77.2791 93.0828C77.2504 93.124 77.2095 93.1553 77.1621 93.1725V93.1406ZM104.999 79.4092L104.279 79.8069C104.136 79.8786 103.979 79.9159 103.819 79.9159C103.659 79.9159 103.502 79.8786 103.359 79.8069L102.647 79.4092C102.591 79.3908 102.542 79.3554 102.508 79.3079C102.473 79.2604 102.454 79.2033 102.454 79.1446C102.454 79.086 102.473 79.0288 102.508 78.9813C102.542 78.9338 102.591 78.8984 102.647 78.8801L103.367 78.4823C103.51 78.4116 103.667 78.3747 103.827 78.3747C103.987 78.3747 104.144 78.4116 104.287 78.4823L105.003 78.8801C105.251 79.0273 105.247 79.262 104.999 79.4092ZM101.279 81.0003L100.563 80.6025C100.311 80.4593 100.311 80.2047 100.563 80.0774L101.283 79.6796C101.425 79.6071 101.582 79.5692 101.741 79.5692C101.9 79.5692 102.057 79.6071 102.199 79.6796L102.915 80.0774C102.97 80.0966 103.017 80.1322 103.05 80.1792C103.084 80.2262 103.102 80.2824 103.102 80.34C103.102 80.3976 103.084 80.4537 103.05 80.5007C103.017 80.5478 102.97 80.5833 102.915 80.6025L102.195 81.0003C102.054 81.0757 101.897 81.1168 101.737 81.1202C101.577 81.1237 101.419 81.0894 101.275 81.0202L101.279 81.0003ZM100.835 81.7959L100.115 82.1936C99.9725 82.2662 99.8149 82.3041 99.6549 82.3041C99.4949 82.3041 99.3372 82.2662 99.1949 82.1936L98.4788 81.7959C98.4242 81.7767 98.377 81.7411 98.3435 81.6941C98.3101 81.6471 98.2921 81.5909 98.2921 81.5333C98.2921 81.4757 98.3101 81.4196 98.3435 81.3725C98.377 81.3255 98.4242 81.29 98.4788 81.2708L99.1989 80.873C99.3408 80.8014 99.4977 80.764 99.6569 80.764C99.816 80.764 99.973 80.8014 100.115 80.873L100.831 81.2708C100.887 81.2891 100.936 81.3245 100.97 81.372C101.005 81.4195 101.023 81.4767 101.023 81.5353C101.023 81.5939 101.005 81.6511 100.97 81.6986C100.936 81.7461 100.887 81.7815 100.831 81.7998L100.835 81.7959ZM98.7508 82.9892L98.0308 83.387C97.8886 83.4577 97.7318 83.4945 97.5728 83.4945C97.4138 83.4945 97.257 83.4577 97.1148 83.387L96.3988 82.9892C96.3427 82.9709 96.294 82.9355 96.2594 82.888C96.2248 82.8405 96.2062 82.7833 96.2062 82.7247C96.2062 82.666 96.2248 82.6089 96.2594 82.5614C96.294 82.5139 96.3427 82.4785 96.3988 82.4602L97.1188 82.0624C97.2614 81.9907 97.419 81.9534 97.5788 81.9534C97.7386 81.9534 97.8962 81.9907 98.0388 82.0624L98.7548 82.4602C98.8138 82.4772 98.8654 82.5129 98.9019 82.562C98.9384 82.6111 98.9577 82.6707 98.9568 82.7317C98.9559 82.7927 98.9348 82.8517 98.8969 82.8997C98.859 82.9476 98.8062 82.9819 98.7468 82.9972L98.7508 82.9892ZM94.3187 83.6615L95.0387 83.2637C95.1806 83.192 95.3376 83.1547 95.4967 83.1547C95.6559 83.1547 95.8128 83.192 95.9547 83.2637L96.6708 83.6615C96.9228 83.8047 96.9228 84.0592 96.6708 84.1865L95.9507 84.5843C95.8088 84.6559 95.6519 84.6933 95.4927 84.6933C95.3336 84.6933 95.1766 84.6559 95.0347 84.5843L94.3187 84.1865C94.2665 84.1663 94.2217 84.1309 94.19 84.0851C94.1582 84.0392 94.141 83.985 94.1406 83.9293C94.1402 83.8737 94.1565 83.8191 94.1875 83.7728C94.2186 83.7265 94.2629 83.6905 94.3147 83.6694L94.3187 83.6615ZM92.2346 84.8548L92.9546 84.457C93.0968 84.3863 93.2537 84.3495 93.4127 84.3495C93.5717 84.3495 93.7285 84.3863 93.8707 84.457L94.5867 84.8548C94.6427 84.8731 94.6915 84.9085 94.7261 84.956C94.7607 85.0035 94.7793 85.0607 94.7793 85.1193C94.7793 85.178 94.7607 85.2351 94.7261 85.2826C94.6915 85.3301 94.6427 85.3655 94.5867 85.3839L93.8667 85.7816C93.724 85.8533 93.5665 85.8907 93.4067 85.8907C93.2468 85.8907 93.0893 85.8533 92.9466 85.7816L92.2306 85.3839C92.1774 85.3639 92.1315 85.3283 92.0991 85.2817C92.0667 85.2352 92.0494 85.1799 92.0494 85.1233C92.0494 85.0667 92.0667 85.0115 92.0991 84.9649C92.1315 84.9184 92.1774 84.8827 92.2306 84.8628L92.2346 84.8548ZM90.1505 86.0482L90.8706 85.6504C91.0129 85.5778 91.1706 85.5399 91.3306 85.5399C91.4906 85.5399 91.6482 85.5778 91.7906 85.6504L92.5066 86.0482C92.5612 86.0673 92.6085 86.1029 92.6419 86.1499C92.6754 86.1969 92.6933 86.2531 92.6933 86.3107C92.6933 86.3683 92.6754 86.4245 92.6419 86.4715C92.6085 86.5185 92.5612 86.554 92.5066 86.5732L91.7866 86.971C91.6447 87.0426 91.4877 87.08 91.3286 87.08C91.1694 87.08 91.0125 87.0426 90.8706 86.971L90.1545 86.5732C89.8905 86.442 89.8945 86.2073 90.1465 86.0601L90.1505 86.0482ZM88.0705 87.2415L88.7905 86.8437C88.9324 86.7721 89.0893 86.7348 89.2485 86.7348C89.4077 86.7348 89.5646 86.7721 89.7065 86.8437L90.4225 87.2415C90.6746 87.3847 90.6746 87.6393 90.4225 87.7666L89.7025 88.1644C89.5609 88.2369 89.4038 88.2748 89.2445 88.2748C89.0852 88.2748 88.9281 88.2369 88.7865 88.1644L88.0705 87.7666C88.0207 87.7451 87.9783 87.7098 87.9484 87.6648C87.9185 87.6198 87.9023 87.5672 87.9019 87.5133C87.9014 87.4594 87.9168 87.4065 87.946 87.3611C87.9752 87.3156 88.0171 87.2796 88.0665 87.2574L88.0705 87.2415ZM85.9864 88.4349L86.7064 88.0371C86.8484 87.9654 87.0053 87.9281 87.1644 87.9281C87.3236 87.9281 87.4805 87.9654 87.6225 88.0371L88.3385 88.4349C88.3945 88.4532 88.4433 88.4886 88.4779 88.5361C88.5124 88.5836 88.5311 88.6407 88.5311 88.6994C88.5311 88.758 88.5124 88.8152 88.4779 88.8627C88.4433 88.9102 88.3945 88.9456 88.3385 88.9639L87.6185 89.3617C87.4755 89.4325 87.3181 89.4693 87.1584 89.4693C86.9988 89.4693 86.8413 89.4325 86.6984 89.3617L85.9824 88.9639C85.7264 88.8326 85.7304 88.5979 85.9824 88.4508L85.9864 88.4349ZM83.9023 89.6282L84.6223 89.2304C84.765 89.1588 84.9226 89.1214 85.0824 89.1214C85.2422 89.1214 85.3997 89.1588 85.5424 89.2304L86.2584 89.6282C86.5104 89.7714 86.5104 90.026 86.2584 90.1533L85.5384 90.5511C85.3964 90.6227 85.2395 90.66 85.0804 90.66C84.9212 90.66 84.7643 90.6227 84.6223 90.5511L83.9063 90.1533C83.8575 90.1317 83.8159 90.0967 83.7865 90.0524C83.757 90.0081 83.7409 89.9563 83.7401 89.9032C83.7393 89.8501 83.7537 89.7979 83.7817 89.7527C83.8098 89.7075 83.8502 89.6712 83.8983 89.6481L83.9023 89.6282ZM84.1703 91.3466L83.4503 91.7444C83.3084 91.816 83.1515 91.8534 82.9923 91.8534C82.8331 91.8534 82.6762 91.816 82.5343 91.7444L81.8183 91.3466C81.7622 91.3283 81.7135 91.2929 81.6789 91.2454C81.6443 91.1979 81.6257 91.1407 81.6257 91.0821C81.6257 91.0235 81.6443 90.9663 81.6789 90.9188C81.7135 90.8713 81.7622 90.8359 81.8183 90.8176L82.5383 90.4198C82.6805 90.3491 82.8373 90.3123 82.9963 90.3123C83.1553 90.3123 83.3121 90.3491 83.4543 90.4198L84.1703 90.8176C84.2354 90.8291 84.2943 90.8632 84.3365 90.9137C84.3788 90.9642 84.4017 91.028 84.4012 91.0937C84.4007 91.1594 84.3769 91.2229 84.3339 91.2728C84.2909 91.3227 84.2316 91.3559 84.1663 91.3665L84.1703 91.3466ZM79.7382 92.0189L80.4582 91.6211C80.6006 91.5485 80.7582 91.5106 80.9182 91.5106C81.0782 91.5106 81.2359 91.5485 81.3782 91.6211L82.0903 92.0189C82.1449 92.0381 82.1921 92.0736 82.2256 92.1206C82.259 92.1677 82.277 92.2238 82.277 92.2814C82.277 92.339 82.259 92.3952 82.2256 92.4422C82.1921 92.4892 82.1449 92.5248 82.0903 92.544L81.3702 92.9417C81.2276 93.0134 81.07 93.0507 80.9102 93.0507C80.7504 93.0507 80.5928 93.0134 80.4502 92.9417L79.7342 92.544C79.4782 92.4206 79.4822 92.186 79.7342 92.0388L79.7382 92.0189ZM76.6901 93.7691L78.3341 92.8264C78.4761 92.7547 78.633 92.7174 78.7921 92.7174C78.9513 92.7174 79.1082 92.7547 79.2502 92.8264L79.9662 93.2242C80.0208 93.2434 80.0681 93.2789 80.1015 93.3259C80.1349 93.3729 80.1529 93.4291 80.1529 93.4867C80.1529 93.5443 80.1349 93.6005 80.1015 93.6475C80.0681 93.6945 80.0208 93.73 79.9662 93.7492L78.3221 94.696C78.1799 94.7667 78.0231 94.8035 77.8641 94.8035C77.7051 94.8035 77.5483 94.7667 77.4061 94.696L76.6901 94.2982C76.6403 94.2767 76.5979 94.2414 76.568 94.1964C76.5381 94.1514 76.5219 94.0988 76.5215 94.0449C76.5211 93.991 76.5364 93.9381 76.5656 93.8927C76.5948 93.8472 76.6367 93.8112 76.6861 93.789L76.6901 93.7691ZM106.923 80.515L105.279 81.4617C105.137 81.5324 104.98 81.5693 104.821 81.5693C104.662 81.5693 104.505 81.5324 104.363 81.4617L103.647 81.0639C103.591 81.0456 103.542 81.0102 103.508 80.9627C103.473 80.9152 103.454 80.858 103.454 80.7994C103.454 80.7408 103.473 80.6836 103.508 80.6361C103.542 80.5886 103.591 80.5532 103.647 80.5349L105.295 79.5882C105.435 79.5185 105.59 79.4822 105.747 79.4822C105.904 79.4822 106.059 79.5185 106.199 79.5882L106.915 79.9859C107.179 80.1331 107.179 80.3837 106.923 80.515ZM103.915 82.2414L103.195 82.6392C103.053 82.7108 102.896 82.7481 102.737 82.7481C102.578 82.7481 102.421 82.7108 102.279 82.6392L101.563 82.2414C101.311 82.0982 101.311 81.8436 101.563 81.7163L102.283 81.3185C102.425 81.2469 102.582 81.2096 102.741 81.2096C102.9 81.2096 103.057 81.2469 103.199 81.3185L103.915 81.7163C103.97 81.7355 104.017 81.771 104.05 81.8181C104.084 81.8651 104.102 81.9212 104.102 81.9788C104.102 82.0364 104.084 82.0926 104.05 82.1396C104.017 82.1866 103.97 82.2222 103.915 82.2414V82.2414ZM101.115 83.8325C100.972 83.9042 100.815 83.9415 100.655 83.9415C100.495 83.9415 100.338 83.9042 100.195 83.8325L99.4789 83.4347C99.2269 83.2875 99.2309 83.0369 99.4789 82.9057L100.199 82.5079C100.342 82.4371 100.499 82.4003 100.659 82.4003C100.819 82.4003 100.976 82.4371 101.119 82.5079L101.831 82.9057C101.887 82.924 101.936 82.9594 101.97 83.0069C102.005 83.0544 102.024 83.1116 102.024 83.1702C102.024 83.2288 102.005 83.286 101.97 83.3335C101.936 83.381 101.887 83.4164 101.831 83.4347L101.115 83.8325ZM99.0309 85.0259C98.8889 85.0975 98.732 85.1348 98.5728 85.1348C98.4137 85.1348 98.2568 85.0975 98.1148 85.0259L97.3988 84.6281C97.3442 84.6089 97.2969 84.5733 97.2635 84.5263C97.23 84.4793 97.2121 84.4231 97.2121 84.3655C97.2121 84.3079 97.23 84.2518 97.2635 84.2048C97.2969 84.1577 97.3442 84.1222 97.3988 84.103L98.1228 83.7052C98.2645 83.6326 98.4215 83.5948 98.5808 83.5948C98.7402 83.5948 98.8972 83.6326 99.0388 83.7052L99.7549 84.103C99.8095 84.1222 99.8568 84.1577 99.8902 84.2048C99.9236 84.2518 99.9416 84.3079 99.9416 84.3655C99.9416 84.4231 99.9236 84.4793 99.8902 84.5263C99.8568 84.5733 99.8095 84.6089 99.7549 84.6281L99.0309 85.0259ZM96.9548 84.8707L97.6708 85.2685C97.9228 85.4117 97.9228 85.6464 97.6708 85.7936L96.9508 86.1914C96.8091 86.2639 96.6521 86.3018 96.4928 86.3018C96.3334 86.3018 96.1764 86.2639 96.0347 86.1914L95.3187 85.7936C95.2641 85.7744 95.2168 85.7388 95.1834 85.6918C95.15 85.6448 95.132 85.5886 95.132 85.531C95.132 85.4735 95.15 85.4173 95.1834 85.3703C95.2168 85.3232 95.2641 85.2877 95.3187 85.2685L96.0387 84.8707C96.1822 84.8021 96.34 84.7682 96.4992 84.7717C96.6583 84.7751 96.8144 84.8159 96.9548 84.8906V84.8707ZM94.8307 86.0402L95.6307 86.5016C95.6816 86.5178 95.726 86.5497 95.7575 86.5926C95.7889 86.6355 95.8059 86.6872 95.8059 86.7403C95.8059 86.7934 95.7889 86.8451 95.7575 86.888C95.726 86.9309 95.6816 86.9628 95.6307 86.979L94.8307 87.4444C94.7017 87.5091 94.5592 87.5428 94.4147 87.5428C94.2702 87.5428 94.1277 87.5091 93.9987 87.4444L93.1986 86.9829C92.9706 86.8517 92.9746 86.6409 93.1986 86.5096L93.9987 86.0442C94.1292 85.9828 94.2722 85.9524 94.4166 85.9551C94.5609 85.9579 94.7026 85.9938 94.8307 86.0601V86.0402ZM92.7466 87.2336L93.5467 87.695C93.5975 87.7112 93.6419 87.743 93.6734 87.7859C93.7049 87.8288 93.7218 87.8805 93.7218 87.9336C93.7218 87.9868 93.7049 88.0385 93.6734 88.0814C93.6419 88.1243 93.5975 88.1561 93.5467 88.1723L92.7466 88.6377C92.6183 88.7024 92.4765 88.7361 92.3326 88.7361C92.1888 88.7361 92.0469 88.7024 91.9186 88.6377L91.1186 88.1763C91.0677 88.1601 91.0233 88.1283 90.9919 88.0854C90.9604 88.0425 90.9434 87.9907 90.9434 87.9376C90.9434 87.8845 90.9604 87.8328 90.9919 87.7899C91.0233 87.747 91.0677 87.7151 91.1186 87.699L91.9186 87.2336C92.0488 87.1726 92.1916 87.1429 92.3355 87.1471C92.4793 87.1512 92.6202 87.189 92.7466 87.2574V87.2336ZM90.6626 88.4269L91.4626 88.8883C91.512 88.9054 91.5548 88.9374 91.5852 88.9798C91.6155 89.0222 91.6318 89.073 91.6318 89.125C91.6318 89.177 91.6155 89.2278 91.5852 89.2702C91.5548 89.3126 91.512 89.3446 91.4626 89.3617L90.6626 89.8271C90.534 89.8908 90.3922 89.924 90.2485 89.924C90.1049 89.924 89.9631 89.8908 89.8345 89.8271L89.0345 89.3617C88.8065 89.2344 88.8065 89.0196 89.0345 88.8883L89.8345 88.4229C89.9654 88.3631 90.1085 88.3349 90.2524 88.3404C90.3962 88.3459 90.5368 88.3851 90.6626 88.4547V88.4269ZM88.5825 89.6202L89.3825 90.0817C89.4334 90.0979 89.4777 90.1297 89.5092 90.1726C89.5407 90.2155 89.5577 90.2672 89.5577 90.3203C89.5577 90.3735 89.5407 90.4252 89.5092 90.4681C89.4777 90.511 89.4334 90.5428 89.3825 90.559L88.5825 91.0244C88.4535 91.0891 88.311 91.1228 88.1665 91.1228C88.022 91.1228 87.8795 91.0891 87.7505 91.0244L86.9504 90.563C86.7224 90.4317 86.7264 90.2209 86.9504 90.0857L87.7505 89.6242C87.8835 89.5606 88.0298 89.5295 88.1774 89.5337C88.3249 89.5378 88.4693 89.5771 88.5985 89.6481L88.5825 89.6202ZM86.4984 90.8136L87.2984 91.275C87.5264 91.4063 87.5264 91.6171 87.2984 91.7524L86.4984 92.2138C86.3701 92.2784 86.2283 92.3121 86.0844 92.3121C85.9405 92.3121 85.7987 92.2784 85.6704 92.2138L84.8704 91.7524C84.8195 91.7362 84.7751 91.7043 84.7436 91.6614C84.7122 91.6185 84.6952 91.5668 84.6952 91.5137C84.6952 91.4606 84.7122 91.4089 84.7436 91.366C84.7751 91.3231 84.8195 91.2912 84.8704 91.275L85.6704 90.8096C85.8015 90.7504 85.9448 90.7228 86.0887 90.7291C86.2326 90.7353 86.3729 90.7752 86.4984 90.8454V90.8136ZM83.5783 93.4111L82.7783 92.9497C82.5503 92.8184 82.5503 92.6076 82.7783 92.4763L83.5783 92.0109C83.7069 91.9472 83.8486 91.914 83.9923 91.914C84.136 91.914 84.2777 91.9472 84.4063 92.0109L85.2064 92.4724C85.2572 92.4885 85.3016 92.5204 85.3331 92.5633C85.3646 92.6062 85.3815 92.6579 85.3815 92.711C85.3815 92.7641 85.3646 92.8159 85.3331 92.8588C85.3016 92.9017 85.2572 92.9335 85.2064 92.9497L84.4063 93.4151C84.2802 93.4841 84.1395 93.5226 83.9957 93.5274C83.8518 93.5323 83.7088 93.5033 83.5783 93.4429V93.4111ZM81.4942 94.6045L80.6942 94.143C80.6433 94.1268 80.599 94.095 80.5675 94.0521C80.536 94.0092 80.519 93.9575 80.519 93.9044C80.519 93.8513 80.536 93.7995 80.5675 93.7566C80.599 93.7137 80.6433 93.6819 80.6942 93.6657L81.4942 93.2003C81.6233 93.1356 81.7658 93.1019 81.9103 93.1019C82.0548 93.1019 82.1972 93.1356 82.3263 93.2003L83.1263 93.6617C83.1772 93.6779 83.2215 93.7098 83.253 93.7527C83.2845 93.7956 83.3015 93.8473 83.3015 93.9004C83.3015 93.9535 83.2845 94.0052 83.253 94.0481C83.2215 94.091 83.1772 94.1229 83.1263 94.1391L82.3263 94.6045C82.2001 94.6748 82.0591 94.7147 81.9145 94.7209C81.77 94.7271 81.6261 94.6995 81.4942 94.6403V94.6045ZM78.5701 94.8869L79.3702 94.4215C79.4985 94.3568 79.6403 94.3231 79.7842 94.3231C79.928 94.3231 80.0699 94.3568 80.1982 94.4215L80.9982 94.8829C81.2262 95.0142 81.2262 95.225 80.9982 95.3603L80.1982 95.8217C80.0702 95.8873 79.9282 95.9215 79.7842 95.9215C79.6401 95.9215 79.4982 95.8873 79.3702 95.8217L78.5701 95.3603C78.531 95.3385 78.4984 95.3068 78.4757 95.2683C78.453 95.2299 78.441 95.1861 78.441 95.1415C78.441 95.0969 78.453 95.0531 78.4757 95.0146C78.4984 94.9762 78.531 94.9444 78.5701 94.9227V94.8869ZM108.895 81.597L106.287 83.0966C106.158 83.1613 106.016 83.195 105.871 83.195C105.727 83.195 105.584 83.1613 105.455 83.0966L104.655 82.6352C104.427 82.5079 104.431 82.2931 104.655 82.1618L107.267 80.6622C107.395 80.5975 107.537 80.5638 107.681 80.5638C107.825 80.5638 107.967 80.5975 108.095 80.6622L108.895 81.1236C109.127 81.2509 109.127 81.4657 108.895 81.597ZM104.999 83.8285L104.199 84.2939C104.071 84.3586 103.929 84.3923 103.785 84.3923C103.641 84.3923 103.499 84.3586 103.371 84.2939L102.571 83.8325C102.343 83.7012 102.343 83.4904 102.571 83.3552L103.371 82.8937C103.499 82.8281 103.641 82.7939 103.785 82.7939C103.929 82.7939 104.071 82.8281 104.199 82.8937L104.999 83.3552C105.048 83.3723 105.091 83.4042 105.122 83.4467C105.152 83.4891 105.168 83.5398 105.168 83.5918C105.168 83.6439 105.152 83.6946 105.122 83.737C105.091 83.7794 105.048 83.8114 104.999 83.8285V83.8285ZM102.919 85.0219L102.119 85.4833C101.991 85.548 101.849 85.5817 101.705 85.5817C101.561 85.5817 101.419 85.548 101.291 85.4833L100.491 85.0219C100.44 85.0057 100.396 84.9738 100.364 84.9309C100.333 84.888 100.316 84.8363 100.316 84.7832C100.316 84.7301 100.333 84.6784 100.364 84.6355C100.396 84.5926 100.44 84.5607 100.491 84.5445L101.291 84.0791C101.419 84.0145 101.561 83.9808 101.705 83.9808C101.849 83.9808 101.991 84.0145 102.119 84.0791L102.919 84.5406C103.159 84.6798 103.159 84.8906 102.931 85.0259L102.919 85.0219ZM100.835 86.2152L100.035 86.6806C99.9059 86.7453 99.7634 86.779 99.6189 86.779C99.4744 86.779 99.3319 86.7453 99.2029 86.6806L98.4028 86.2192C98.1748 86.0879 98.1788 85.8771 98.4028 85.7458L99.2029 85.2804C99.3322 85.2166 99.4745 85.1834 99.6189 85.1834C99.7632 85.1834 99.9056 85.2166 100.035 85.2804L100.835 85.7419C100.886 85.7567 100.931 85.7875 100.964 85.8296C100.997 85.8717 101.015 85.923 101.016 85.9762C101.018 86.0293 101.002 86.0815 100.971 86.1252C100.941 86.1689 100.897 86.2018 100.847 86.2192L100.835 86.2152ZM97.1148 87.878L96.3148 87.4165C96.2639 87.4003 96.2195 87.3685 96.188 87.3256C96.1566 87.2827 96.1396 87.231 96.1396 87.1779C96.1396 87.1248 96.1566 87.073 96.188 87.0301C96.2195 86.9872 96.2639 86.9554 96.3148 86.9392L97.1148 86.4738C97.2431 86.4091 97.3849 86.3754 97.5288 86.3754C97.6727 86.3754 97.8145 86.4091 97.9428 86.4738L98.7428 86.9352C98.7937 86.9514 98.8381 86.9832 98.8696 87.0261C98.901 87.069 98.918 87.1208 98.918 87.1739C98.918 87.227 98.901 87.2787 98.8696 87.3216C98.8381 87.3645 98.7937 87.3964 98.7428 87.4126L97.9428 87.874C97.8169 87.9388 97.6775 87.9734 97.5358 87.9747C97.394 87.9761 97.2539 87.9443 97.1268 87.8819L97.1148 87.878ZM95.0307 89.0713L94.2307 88.6099C94.0027 88.4826 94.0027 88.2678 94.2307 88.1365L95.0307 87.6711C95.159 87.6065 95.3009 87.5728 95.4447 87.5728C95.5886 87.5728 95.7304 87.6065 95.8587 87.6711L96.6588 88.1325C96.7082 88.1496 96.751 88.1816 96.7813 88.224C96.8117 88.2664 96.8279 88.3172 96.8279 88.3692C96.8279 88.4213 96.8117 88.472 96.7813 88.5144C96.751 88.5568 96.7082 88.5888 96.6588 88.6059L95.8587 89.0713C95.7323 89.1346 95.5928 89.168 95.4512 89.1686C95.3096 89.1693 95.1698 89.1374 95.0427 89.0753L95.0307 89.0713ZM92.9466 90.2647L92.1466 89.8032C91.9186 89.672 91.9226 89.4611 92.1466 89.3259L92.9466 88.8645C93.0754 88.7988 93.218 88.7646 93.3627 88.7646C93.5073 88.7646 93.6499 88.7988 93.7787 88.8645L94.5787 89.3259C94.6296 89.3421 94.6739 89.3739 94.7054 89.4168C94.7369 89.4597 94.7539 89.5115 94.7539 89.5646C94.7539 89.6177 94.7369 89.6694 94.7054 89.7123C94.6739 89.7552 94.6296 89.787 94.5787 89.8032L93.7787 90.2686C93.6515 90.332 93.5114 90.3653 93.3691 90.366C93.2269 90.3667 93.0864 90.3348 92.9586 90.2726L92.9466 90.2647ZM90.8666 91.458L90.0665 90.9966C90.0157 90.9804 89.9713 90.9485 89.9398 90.9056C89.9083 90.8627 89.8914 90.811 89.8914 90.7579C89.8914 90.7048 89.9083 90.6531 89.9398 90.6102C89.9713 90.5673 90.0157 90.5354 90.0665 90.5192L90.8666 90.0538C90.9949 89.9892 91.1367 89.9555 91.2806 89.9555C91.4244 89.9555 91.5663 89.9892 91.6946 90.0538L92.4946 90.5153C92.7226 90.6465 92.7226 90.8574 92.4946 90.9926L91.6946 91.454C91.5691 91.5192 91.4301 91.5546 91.2885 91.5574C91.1469 91.5601 91.0066 91.5302 90.8786 91.4699L90.8666 91.458ZM88.7825 92.6514L87.9825 92.1899C87.7545 92.0587 87.7545 91.8478 87.9825 91.7166L88.7825 91.2512C88.9108 91.1865 89.0527 91.1528 89.1965 91.1528C89.3404 91.1528 89.4822 91.1865 89.6105 91.2512L90.4105 91.7126C90.4614 91.7288 90.5058 91.7606 90.5373 91.8035C90.5688 91.8464 90.5857 91.8982 90.5857 91.9513C90.5857 92.0044 90.5688 92.0561 90.5373 92.099C90.5058 92.1419 90.4614 92.1737 90.4105 92.1899L89.6105 92.6553C89.4844 92.7193 89.345 92.7533 89.2034 92.7547C89.0619 92.7561 88.9219 92.7248 88.7945 92.6633L88.7825 92.6514ZM86.6984 93.8447L85.8984 93.3833C85.8475 93.3671 85.8032 93.3352 85.7717 93.2923C85.7402 93.2494 85.7232 93.1977 85.7232 93.1446C85.7232 93.0915 85.7402 93.0398 85.7717 92.9969C85.8032 92.954 85.8475 92.9221 85.8984 92.9059L86.6984 92.4405C86.8274 92.3758 86.9699 92.3421 87.1144 92.3421C87.2589 92.3421 87.4014 92.3758 87.5305 92.4405L88.3305 92.902C88.3813 92.9182 88.4257 92.95 88.4572 92.9929C88.4887 93.0358 88.5056 93.0875 88.5056 93.1406C88.5056 93.1937 88.4887 93.2455 88.4572 93.2884C88.4257 93.3313 88.3813 93.3631 88.3305 93.3793L87.5305 93.8407C87.4048 93.9075 87.2652 93.9441 87.1228 93.9475C86.9804 93.951 86.8392 93.9212 86.7104 93.8606L86.6984 93.8447ZM86.2544 94.5726L85.4544 95.0381C85.3261 95.1027 85.1842 95.1364 85.0404 95.1364C84.8965 95.1364 84.7547 95.1027 84.6263 95.0381L83.8263 94.5766C83.5983 94.4493 83.5983 94.2345 83.8263 94.1033L84.6263 93.6379C84.7547 93.5732 84.8965 93.5395 85.0404 93.5395C85.1842 93.5395 85.3261 93.5732 85.4544 93.6379L86.2544 94.0993C86.4984 94.2465 86.4984 94.4573 86.2664 94.5886L86.2544 94.5726ZM80.4862 96.0126L82.5423 94.8193C82.6703 94.7537 82.8123 94.7195 82.9563 94.7195C83.1003 94.7195 83.2423 94.7537 83.3703 94.8193L84.1703 95.2807C84.2212 95.2969 84.2656 95.3287 84.2971 95.3716C84.3285 95.4145 84.3455 95.4663 84.3455 95.5194C84.3455 95.5725 84.3285 95.6242 84.2971 95.6671C84.2656 95.71 84.2212 95.7419 84.1703 95.758L82.1143 96.9514C81.9852 97.0161 81.8427 97.0498 81.6982 97.0498C81.5537 97.0498 81.4113 97.0161 81.2822 96.9514L80.4822 96.49C80.2662 96.3746 80.2702 96.1638 80.4982 96.0285L80.4862 96.0126ZM110.819 82.7704L107.111 84.8986C106.966 84.971 106.806 85.0087 106.643 85.0087C106.481 85.0087 106.32 84.971 106.175 84.8986L105.479 84.5008C105.423 84.4812 105.374 84.4447 105.339 84.3962C105.304 84.3477 105.286 84.2898 105.286 84.2303C105.286 84.1708 105.304 84.1128 105.339 84.0644C105.374 84.0159 105.423 83.9793 105.479 83.9598L109.183 81.8356C109.328 81.762 109.488 81.7236 109.651 81.7236C109.814 81.7236 109.974 81.762 110.119 81.8356L110.815 82.2334C110.872 82.2515 110.922 82.287 110.958 82.335C110.993 82.383 111.013 82.4409 111.013 82.5005C111.014 82.5601 110.995 82.6183 110.96 82.6668C110.925 82.7152 110.876 82.7515 110.819 82.7704V82.7704ZM105.731 85.6902L105.031 86.0879C104.886 86.1616 104.726 86.2 104.563 86.2C104.4 86.2 104.24 86.1616 104.095 86.0879L103.395 85.6902C103.139 85.543 103.139 85.2924 103.395 85.1531L104.095 84.7554C104.241 84.682 104.402 84.6437 104.565 84.6437C104.728 84.6437 104.889 84.682 105.035 84.7554L105.731 85.1531C105.785 85.1733 105.832 85.2094 105.865 85.2567C105.898 85.304 105.916 85.3601 105.916 85.4177C105.916 85.4752 105.898 85.5314 105.865 85.5786C105.832 85.6259 105.785 85.662 105.731 85.6822V85.6902ZM103.647 86.8835L102.947 87.2813C102.802 87.355 102.642 87.3934 102.479 87.3934C102.316 87.3934 102.156 87.355 102.011 87.2813L101.315 86.8835C101.055 86.7363 101.059 86.4857 101.315 86.3465L102.015 85.9487C102.16 85.875 102.32 85.8366 102.483 85.8366C102.646 85.8366 102.806 85.875 102.951 85.9487L103.647 86.3465C103.911 86.4897 103.907 86.7483 103.647 86.8795V86.8835ZM101.567 88.0768L100.867 88.4746C100.721 88.5471 100.56 88.5848 100.397 88.5848C100.234 88.5848 100.073 88.5471 99.9269 88.4746L99.2309 88.0768C98.9748 87.9297 98.9748 87.6791 99.2309 87.5398L99.9309 87.1421C100.076 87.0684 100.236 87.03 100.399 87.03C100.562 87.03 100.722 87.0684 100.867 87.1421L101.563 87.5398C101.619 87.5588 101.667 87.5945 101.701 87.642C101.736 87.6895 101.755 87.7464 101.755 87.8049C101.755 87.8635 101.738 87.9207 101.704 87.9687C101.67 88.0167 101.622 88.0531 101.567 88.0729V88.0768ZM99.4829 89.2702L98.7828 89.668C98.638 89.7417 98.4776 89.7801 98.3148 89.7801C98.1521 89.7801 97.9917 89.7417 97.8468 89.668L97.1508 89.2702C97.0938 89.2517 97.0442 89.2158 97.009 89.1676C96.9738 89.1193 96.9548 89.0613 96.9548 89.0017C96.9548 88.9421 96.9738 88.884 97.009 88.8358C97.0442 88.7876 97.0938 88.7517 97.1508 88.7332L97.8508 88.3354C97.9965 88.262 98.1575 88.2238 98.3208 88.2238C98.4841 88.2238 98.6452 88.262 98.7908 88.3354L99.4869 88.7332C99.5437 88.7521 99.5931 88.7884 99.6279 88.8369C99.6627 88.8853 99.6813 88.9435 99.6808 89.0031C99.6804 89.0627 99.661 89.1207 99.6254 89.1686C99.5899 89.2166 99.54 89.2521 99.4829 89.2702V89.2702ZM97.3988 90.4635L96.6988 90.8613C96.5535 90.9338 96.3933 90.9715 96.2308 90.9715C96.0683 90.9715 95.908 90.9338 95.7627 90.8613L95.0667 90.4635C94.8067 90.3124 94.8107 90.0658 95.0667 89.9226L95.7667 89.5248C95.912 89.4523 96.0723 89.4146 96.2348 89.4146C96.3973 89.4146 96.5575 89.4523 96.7028 89.5248L97.3988 89.9305C97.6628 90.0777 97.6588 90.3283 97.3988 90.4675V90.4635ZM95.3187 91.6569L94.6187 92.0547C94.473 92.1281 94.312 92.1663 94.1487 92.1663C93.9854 92.1663 93.8243 92.1281 93.6787 92.0547L92.9826 91.6569C92.7266 91.5097 92.7266 91.2591 92.9826 91.1199L93.6827 90.7221C93.8275 90.6484 93.988 90.61 94.1507 90.61C94.3134 90.61 94.4738 90.6484 94.6187 90.7221L95.3187 91.1199C95.3772 91.1374 95.4285 91.1731 95.4649 91.2218C95.5014 91.2706 95.521 91.3297 95.521 91.3904C95.521 91.4511 95.5014 91.5102 95.4649 91.5589C95.4285 91.6077 95.3772 91.6434 95.3187 91.6609V91.6569ZM93.2346 92.8502L92.5346 93.248C92.3897 93.3217 92.2293 93.3601 92.0666 93.3601C91.9039 93.3601 91.7435 93.3217 91.5986 93.248L90.9026 92.8502C90.8456 92.8318 90.796 92.7958 90.7608 92.7476C90.7256 92.6994 90.7066 92.6413 90.7066 92.5817C90.7066 92.5222 90.7256 92.4641 90.7608 92.4159C90.796 92.3676 90.8456 92.3317 90.9026 92.3132L91.6066 91.9155C91.7518 91.843 91.9121 91.8053 92.0746 91.8053C92.2371 91.8053 92.3974 91.843 92.5426 91.9155L93.2386 92.3132C93.4947 92.4684 93.4947 92.715 93.2346 92.8582V92.8502ZM91.1506 94.0436L90.4506 94.4414C90.3053 94.5138 90.145 94.5515 89.9825 94.5515C89.82 94.5515 89.6598 94.5138 89.5145 94.4414L88.8185 94.0436C88.5585 93.8964 88.5625 93.6458 88.8185 93.5066L89.5185 93.1088C89.6634 93.0351 89.8238 92.9967 89.9865 92.9967C90.1493 92.9967 90.3097 93.0351 90.4546 93.1088L91.1506 93.5066C91.3986 93.6617 91.3986 93.9084 91.1506 94.0516V94.0436ZM89.0705 95.2369L88.3705 95.6347C88.2248 95.7081 88.0638 95.7464 87.9005 95.7464C87.7371 95.7464 87.5761 95.7081 87.4304 95.6347L86.7344 95.2369C86.6775 95.2185 86.6278 95.1825 86.5926 95.1343C86.5574 95.0861 86.5385 95.028 86.5385 94.9684C86.5385 94.9089 86.5574 94.8508 86.5926 94.8026C86.6278 94.7543 86.6775 94.7184 86.7344 94.6999L87.4344 94.3022C87.5793 94.2285 87.7397 94.1901 87.9025 94.1901C88.0652 94.1901 88.2256 94.2285 88.3705 94.3022L89.0705 94.6999C89.1324 94.7149 89.1874 94.75 89.2268 94.7998C89.2662 94.8496 89.2876 94.9111 89.2876 94.9744C89.2876 95.0377 89.2662 95.0992 89.2268 95.149C89.1874 95.1988 89.1324 95.234 89.0705 95.2489V95.2369ZM86.9864 96.4303L86.2864 96.8281C86.1411 96.9005 85.9809 96.9382 85.8184 96.9382C85.6559 96.9382 85.4956 96.9005 85.3504 96.8281L84.6543 96.4303C84.5979 96.4107 84.5489 96.3742 84.5143 96.3257C84.4796 96.2773 84.461 96.2193 84.461 96.1598C84.461 96.1003 84.4796 96.0423 84.5143 95.9939C84.5489 95.9454 84.5979 95.9089 84.6543 95.8893L85.3584 95.4915C85.5036 95.4191 85.6639 95.3814 85.8264 95.3814C85.9889 95.3814 86.1491 95.4191 86.2944 95.4915L86.9984 95.8973C87.0579 95.9149 87.11 95.9511 87.1471 96.0006C87.1841 96.05 87.2042 96.1101 87.2042 96.1717C87.2042 96.2334 87.1841 96.2935 87.1471 96.3429C87.11 96.3924 87.0579 96.4286 86.9984 96.4462L86.9864 96.4303ZM82.5263 97.1185L83.2263 96.7207C83.372 96.6473 83.533 96.609 83.6963 96.609C83.8596 96.609 84.0206 96.6473 84.1663 96.7207L84.8624 97.1185C85.1184 97.2656 85.1184 97.5162 84.8624 97.6555L84.1623 98.0533C84.0177 98.1279 83.8572 98.1668 83.6943 98.1668C83.5314 98.1668 83.3709 98.1279 83.2263 98.0533L82.5263 97.6555C82.4746 97.634 82.4305 97.5978 82.3995 97.5514C82.3684 97.5051 82.3519 97.4506 82.3519 97.3949C82.3519 97.3392 82.3684 97.2848 82.3995 97.2384C82.4305 97.1921 82.4746 97.1559 82.5263 97.1344V97.1185ZM109.491 83.8683L111.115 82.9335C111.261 82.8601 111.422 82.8219 111.585 82.8219C111.749 82.8219 111.91 82.8601 112.055 82.9335L112.751 83.3313C112.808 83.3498 112.858 83.3857 112.893 83.4339C112.928 83.4822 112.947 83.5402 112.947 83.5998C112.947 83.6594 112.928 83.7174 112.893 83.7657C112.858 83.8139 112.808 83.8498 112.751 83.8683L111.127 84.8031C110.982 84.8777 110.821 84.9167 110.657 84.9167C110.494 84.9167 110.333 84.8777 110.187 84.8031L109.491 84.4053C109.434 84.3868 109.385 84.3509 109.349 84.3027C109.314 84.2545 109.295 84.1964 109.295 84.1368C109.295 84.0772 109.314 84.0192 109.349 83.9709C109.385 83.9227 109.434 83.8868 109.491 83.8683V83.8683ZM107.407 85.0617L108.111 84.6639C108.256 84.5914 108.417 84.5537 108.579 84.5537C108.742 84.5537 108.902 84.5914 109.047 84.6639L109.743 85.0617C109.8 85.0801 109.85 85.1161 109.885 85.1643C109.92 85.2125 109.939 85.2706 109.939 85.3302C109.939 85.3897 109.92 85.4478 109.885 85.496C109.85 85.5443 109.8 85.5802 109.743 85.5987L109.043 85.9964C108.898 86.0689 108.738 86.1066 108.575 86.1066C108.413 86.1066 108.252 86.0689 108.107 85.9964L107.411 85.5987C107.356 85.5796 107.307 85.544 107.272 85.4967C107.238 85.4495 107.219 85.3928 107.217 85.3343C107.216 85.2758 107.233 85.2183 107.265 85.1696C107.298 85.1209 107.344 85.0832 107.399 85.0617H107.407ZM105.327 86.255L106.027 85.8572C106.172 85.7836 106.332 85.7451 106.495 85.7451C106.658 85.7451 106.818 85.7836 106.963 85.8572L107.659 86.255C107.716 86.2735 107.766 86.3094 107.801 86.3576C107.836 86.4059 107.855 86.4639 107.855 86.5235C107.855 86.5831 107.836 86.6412 107.801 86.6894C107.766 86.7376 107.716 86.7735 107.659 86.792L106.955 87.1898C106.81 87.2635 106.65 87.3019 106.487 87.3019C106.324 87.3019 106.164 87.2635 106.019 87.1898L105.323 86.792C105.268 86.7722 105.22 86.7358 105.186 86.6878C105.152 86.6398 105.135 86.5826 105.135 86.5241C105.135 86.4656 105.154 86.4086 105.189 86.3611C105.223 86.3136 105.271 86.2779 105.327 86.259V86.255ZM90.7466 94.6085L103.947 87.0506C104.092 86.9781 104.253 86.9404 104.415 86.9404C104.578 86.9404 104.738 86.9781 104.883 87.0506L105.583 87.4484C105.64 87.4679 105.689 87.5044 105.723 87.5529C105.758 87.6014 105.776 87.6594 105.776 87.7188C105.776 87.7783 105.758 87.8363 105.723 87.8848C105.689 87.9332 105.64 87.9698 105.583 87.9893L92.3826 95.5472C92.2377 95.6209 92.0773 95.6593 91.9146 95.6593C91.7519 95.6593 91.5915 95.6209 91.4466 95.5472L90.7466 95.1494C90.4866 95.0182 90.4866 94.7795 90.7466 94.6283V94.6085ZM88.6665 95.8018L89.3665 95.404C89.5114 95.3303 89.6718 95.2919 89.8345 95.2919C89.9973 95.2919 90.1577 95.3303 90.3025 95.404L90.9986 95.8018C91.2586 95.949 91.2546 96.1996 90.9986 96.3388L90.2985 96.7366C90.1537 96.8103 89.9933 96.8487 89.8305 96.8487C89.6678 96.8487 89.5074 96.8103 89.3625 96.7366L88.6665 96.3388C88.4025 96.2155 88.4065 95.9728 88.6665 95.8257V95.8018ZM86.5824 96.9951L87.2824 96.5974C87.4273 96.5237 87.5877 96.4853 87.7505 96.4853C87.9132 96.4853 88.0736 96.5237 88.2185 96.5974L88.9145 96.9951C88.9715 97.0136 89.0211 97.0495 89.0563 97.0978C89.0915 97.146 89.1104 97.2041 89.1104 97.2637C89.1104 97.3232 89.0915 97.3813 89.0563 97.4295C89.0211 97.4778 88.9715 97.5137 88.9145 97.5322L88.2105 97.9299C88.0652 98.0024 87.905 98.0401 87.7425 98.0401C87.58 98.0401 87.4197 98.0024 87.2744 97.9299L86.5784 97.5322C86.5312 97.5067 86.4921 97.4685 86.4656 97.4221C86.439 97.3757 86.426 97.3228 86.4281 97.2694C86.4302 97.216 86.4473 97.1643 86.4773 97.1201C86.5074 97.0758 86.5494 97.0408 86.5984 97.019L86.5824 96.9951ZM84.4543 98.2163L85.1584 97.8186C85.3033 97.7449 85.4637 97.7065 85.6264 97.7065C85.7891 97.7065 85.9495 97.7449 86.0944 97.8186L86.7904 98.2163C86.8474 98.2348 86.897 98.2707 86.9322 98.319C86.9674 98.3672 86.9864 98.4253 86.9864 98.4848C86.9864 98.5444 86.9674 98.6025 86.9322 98.6507C86.897 98.6989 86.8474 98.7349 86.7904 98.7533L86.0904 99.1511C85.9455 99.2248 85.7851 99.2632 85.6224 99.2632C85.4597 99.2632 85.2993 99.2248 85.1544 99.1511L84.4583 98.7533C84.1983 98.63 84.1983 98.3914 84.4543 98.2402V98.2163Z" fill="#C6C6C6"/>
<path d="M103.123 78.0764L101.367 79.0828C101.243 79.1453 101.106 79.1779 100.967 79.1779C100.828 79.1779 100.691 79.1453 100.567 79.0828C100.347 78.9555 100.347 78.7487 100.567 78.6174L102.319 77.5991C102.443 77.5368 102.58 77.5044 102.719 77.5044C102.858 77.5044 102.995 77.5368 103.119 77.5991C103.172 77.6124 103.22 77.6429 103.253 77.6858C103.287 77.7287 103.306 77.7816 103.307 77.8362C103.307 77.8908 103.289 77.944 103.256 77.9875C103.223 78.0309 103.176 78.0622 103.123 78.0764V78.0764ZM100.115 79.8028L99.2829 80.2801C99.1585 80.3415 99.0216 80.3734 98.8828 80.3734C98.7441 80.3734 98.6072 80.3415 98.4828 80.2801C98.4339 80.2643 98.3912 80.2334 98.3609 80.192C98.3307 80.1505 98.3144 80.1006 98.3144 80.0494C98.3144 79.9982 98.3307 79.9483 98.3609 79.9069C98.3912 79.8654 98.4339 79.8346 98.4828 79.8187L99.3149 79.3414C99.4392 79.28 99.5761 79.2481 99.7149 79.2481C99.8537 79.2481 99.9906 79.28 100.115 79.3414C100.162 79.3591 100.203 79.3906 100.231 79.4318C100.26 79.473 100.275 79.522 100.275 79.5721C100.275 79.6222 100.26 79.6711 100.231 79.7123C100.203 79.7535 100.162 79.7851 100.115 79.8028V79.8028ZM98.0308 80.9961L97.1988 81.4735C97.075 81.5366 96.9379 81.5696 96.7988 81.5696C96.6597 81.5696 96.5225 81.5366 96.3988 81.4735C96.1748 81.3462 96.1788 81.1393 96.3988 81.0081L97.2308 80.5307C97.3551 80.4694 97.492 80.4375 97.6308 80.4375C97.7696 80.4375 97.9065 80.4694 98.0308 80.5307C98.0813 80.5456 98.1256 80.5762 98.1571 80.6182C98.1887 80.6601 98.2057 80.7111 98.2057 80.7634C98.2057 80.8158 98.1887 80.8667 98.1571 80.9087C98.1256 80.9506 98.0813 80.9813 98.0308 80.9961V80.9961ZM95.9507 82.1895L95.1187 82.6668C94.9944 82.7282 94.8575 82.7601 94.7187 82.7601C94.5799 82.7601 94.443 82.7282 94.3187 82.6668C94.2697 82.651 94.2271 82.6201 94.1968 82.5787C94.1666 82.5372 94.1503 82.4873 94.1503 82.4361C94.1503 82.3849 94.1666 82.335 94.1968 82.2936C94.2271 82.2521 94.2697 82.2213 94.3187 82.2054L95.1507 81.7281C95.2748 81.6658 95.4118 81.6334 95.5507 81.6334C95.6897 81.6334 95.8267 81.6658 95.9507 81.7281C96.0012 81.7429 96.0455 81.7736 96.0771 81.8155C96.1086 81.8575 96.1256 81.9084 96.1256 81.9608C96.1256 82.0131 96.1086 82.0641 96.0771 82.106C96.0455 82.148 96.0012 82.1786 95.9507 82.1935V82.1895ZM93.8667 83.3828L93.0346 83.8602C92.9103 83.9215 92.7734 83.9534 92.6346 83.9534C92.4958 83.9534 92.3589 83.9215 92.2346 83.8602C92.1856 83.8443 92.143 83.8135 92.1127 83.772C92.0825 83.7306 92.0662 83.6807 92.0662 83.6295C92.0662 83.5783 92.0825 83.5284 92.1127 83.4869C92.143 83.4455 92.1856 83.4146 92.2346 83.3987L93.0666 82.9214C93.1906 82.8589 93.3277 82.8263 93.4667 82.8263C93.6057 82.8263 93.7427 82.8589 93.8667 82.9214C94.0907 83.0527 94.0907 83.2595 93.8667 83.3908V83.3828ZM91.7826 84.5762L90.9506 85.0535C90.8268 85.1167 90.6897 85.1497 90.5506 85.1497C90.4114 85.1497 90.2743 85.1167 90.1505 85.0535C90.1021 85.0366 90.0601 85.0051 90.0304 84.9634C90.0006 84.9218 89.9847 84.8719 89.9847 84.8208C89.9847 84.7697 90.0006 84.7199 90.0304 84.6782C90.0601 84.6365 90.1021 84.605 90.1505 84.5881L90.9826 84.1108C91.1069 84.0494 91.2438 84.0175 91.3826 84.0175C91.5214 84.0175 91.6583 84.0494 91.7826 84.1108C91.8371 84.121 91.8865 84.1494 91.9226 84.1912C91.9588 84.2331 91.9795 84.286 91.9813 84.3411C91.9832 84.3962 91.9661 84.4503 91.9329 84.4945C91.8997 84.5387 91.8523 84.5703 91.7986 84.5841L91.7826 84.5762ZM89.7025 85.7695L88.8705 86.2469C88.7462 86.3082 88.6093 86.3401 88.4705 86.3401C88.3317 86.3401 88.1948 86.3082 88.0705 86.2469C88.0215 86.231 87.9788 86.2002 87.9486 86.1587C87.9183 86.1173 87.902 86.0674 87.902 86.0162C87.902 85.965 87.9183 85.9151 87.9486 85.8736C87.9788 85.8322 88.0215 85.8013 88.0705 85.7855L88.9025 85.3081C89.0266 85.2459 89.1636 85.2134 89.3025 85.2134C89.4415 85.2134 89.5785 85.2459 89.7025 85.3081C89.754 85.3231 89.7992 85.3543 89.8313 85.3969C89.8634 85.4396 89.8808 85.4915 89.8808 85.5448C89.8808 85.5981 89.8634 85.65 89.8313 85.6927C89.7992 85.7353 89.754 85.7665 89.7025 85.7815V85.7695ZM87.6185 86.9629L86.7864 87.4402C86.6625 87.5028 86.5254 87.5354 86.3864 87.5354C86.2474 87.5354 86.1104 87.5028 85.9864 87.4402C85.7664 87.3129 85.7664 87.1061 85.9864 86.9748L86.8184 86.4975C86.9428 86.4361 87.0797 86.4042 87.2184 86.4042C87.3572 86.4042 87.4941 86.4361 87.6185 86.4975C87.6746 86.5077 87.7254 86.5372 87.7619 86.5808C87.7984 86.6244 87.8185 86.6794 87.8185 86.7362C87.8185 86.7929 87.7984 86.8479 87.7619 86.8915C87.7254 86.9351 87.6746 86.9646 87.6185 86.9748V86.9629ZM85.5344 88.1562L84.7024 88.6336C84.5783 88.6958 84.4413 88.7282 84.3023 88.7282C84.1634 88.7282 84.0264 88.6958 83.9023 88.6336C83.8534 88.6177 83.8107 88.5869 83.7804 88.5454C83.7502 88.504 83.7339 88.4541 83.7339 88.4029C83.7339 88.3517 83.7502 88.3018 83.7804 88.2603C83.8107 88.2189 83.8534 88.188 83.9023 88.1722L84.7344 87.6948C84.8587 87.6335 84.9956 87.6016 85.1344 87.6016C85.2731 87.6016 85.4101 87.6335 85.5344 87.6948C85.5905 87.705 85.6413 87.7345 85.6778 87.7781C85.7144 87.8218 85.7344 87.8767 85.7344 87.9335C85.7344 87.9903 85.7144 88.0452 85.6778 88.0888C85.6413 88.1324 85.5905 88.1619 85.5344 88.1722V88.1562ZM83.4543 89.3496L82.6223 89.8269C82.498 89.8883 82.361 89.9202 82.2223 89.9202C82.0835 89.9202 81.9466 89.8883 81.8223 89.8269C81.7733 89.8111 81.7306 89.7802 81.7004 89.7388C81.6701 89.6973 81.6538 89.6474 81.6538 89.5962C81.6538 89.545 81.6701 89.4951 81.7004 89.4537C81.7306 89.4122 81.7733 89.3814 81.8223 89.3655L82.6543 88.8882C82.7781 88.825 82.9152 88.792 83.0543 88.792C83.1934 88.792 83.3305 88.825 83.4543 88.8882C83.6783 89.0314 83.6783 89.2382 83.4543 89.3695V89.3496ZM81.3702 90.5429L80.5382 91.0203C80.4142 91.0825 80.2771 91.115 80.1382 91.115C79.9992 91.115 79.8622 91.0825 79.7382 91.0203C79.6897 91.0034 79.6477 90.9719 79.618 90.9302C79.5883 90.8885 79.5723 90.8387 79.5723 90.7876C79.5723 90.7365 79.5883 90.6867 79.618 90.645C79.6477 90.6033 79.6897 90.5718 79.7382 90.5549L80.5702 90.0775C80.6945 90.0162 80.8314 89.9843 80.9702 89.9843C81.109 89.9843 81.2459 90.0162 81.3702 90.0775C81.435 90.0775 81.497 90.1031 81.5428 90.1486C81.5885 90.1941 81.6142 90.2558 81.6142 90.3202C81.6142 90.3845 81.5885 90.4463 81.5428 90.4918C81.497 90.5373 81.435 90.5628 81.3702 90.5628V90.5429ZM79.2862 91.7363L78.4541 92.2136C78.3301 92.2759 78.1931 92.3083 78.0541 92.3083C77.9152 92.3083 77.7782 92.2759 77.6541 92.2136C77.6051 92.1978 77.5625 92.1669 77.5322 92.1255C77.502 92.084 77.4857 92.0341 77.4857 91.9829C77.4857 91.9317 77.502 91.8818 77.5322 91.8404C77.5625 91.7989 77.6051 91.7681 77.6541 91.7522L78.4861 91.2749C78.6105 91.2135 78.7474 91.1816 78.8861 91.1816C79.0249 91.1816 79.1618 91.2135 79.2862 91.2749C79.5142 91.422 79.5102 91.6329 79.2862 91.7602V91.7363ZM77.1621 92.9575L76.3301 93.4348C76.2057 93.4962 76.0688 93.5281 75.93 93.5281C75.7913 93.5281 75.6544 93.4962 75.53 93.4348C75.4811 93.419 75.4384 93.3881 75.4082 93.3467C75.3779 93.3052 75.3616 93.2553 75.3616 93.2041C75.3616 93.1529 75.3779 93.103 75.4082 93.0616C75.4384 93.0201 75.4811 92.9893 75.53 92.9734L76.3621 92.4961C76.486 92.4335 76.6231 92.4009 76.7621 92.4009C76.9011 92.4009 77.0381 92.4335 77.1621 92.4961C77.3981 92.6432 77.3981 92.8501 77.1621 92.9814V92.9575ZM104.999 79.2141L104.279 79.6118C104.136 79.6835 103.979 79.7209 103.819 79.7209C103.659 79.7209 103.502 79.6835 103.359 79.6118L102.647 79.2141C102.391 79.0709 102.395 78.8362 102.647 78.689L103.367 78.2912C103.509 78.2186 103.667 78.1807 103.827 78.1807C103.987 78.1807 104.145 78.2186 104.287 78.2912L105.003 78.689C105.058 78.7086 105.105 78.7445 105.138 78.7918C105.171 78.839 105.188 78.8953 105.188 78.9529C105.187 79.0105 105.169 79.0666 105.135 79.1133C105.101 79.1601 105.054 79.1953 104.999 79.2141V79.2141ZM101.279 80.8052L100.563 80.4074C100.507 80.3891 100.458 80.3537 100.424 80.3062C100.389 80.2587 100.37 80.2015 100.37 80.1429C100.37 80.0842 100.389 80.0271 100.424 79.9796C100.458 79.9321 100.507 79.8967 100.563 79.8784L101.283 79.4806C101.425 79.4089 101.582 79.3716 101.741 79.3716C101.9 79.3716 102.057 79.4089 102.199 79.4806L102.915 79.8784C102.971 79.8967 103.02 79.9321 103.054 79.9796C103.089 80.0271 103.108 80.0842 103.108 80.1429C103.108 80.2015 103.089 80.2587 103.054 80.3062C103.02 80.3537 102.971 80.3891 102.915 80.4074L102.195 80.8052C102.054 80.8815 101.897 80.9232 101.737 80.9266C101.577 80.9301 101.419 80.8953 101.275 80.8251L101.279 80.8052ZM100.835 81.6008L100.115 81.9985C99.9723 82.0702 99.8147 82.1076 99.6549 82.1076C99.4951 82.1076 99.3375 82.0702 99.1949 81.9985L98.4788 81.6008C98.4228 81.5825 98.374 81.547 98.3395 81.4995C98.3049 81.452 98.2863 81.3949 98.2863 81.3362C98.2863 81.2776 98.3049 81.2205 98.3395 81.173C98.374 81.1255 98.4228 81.09 98.4788 81.0717L99.1989 80.6739C99.3405 80.6014 99.4975 80.5635 99.6569 80.5635C99.8162 80.5635 99.9732 80.6014 100.115 80.6739L100.831 81.0717C100.888 81.089 100.939 81.1243 100.975 81.1723C101.01 81.2203 101.03 81.2785 101.03 81.3382C101.03 81.398 101.01 81.4562 100.975 81.5042C100.939 81.5522 100.888 81.5874 100.831 81.6047L100.835 81.6008ZM98.7508 82.7941L98.0308 83.1919C97.8892 83.2645 97.7321 83.3023 97.5728 83.3023C97.4135 83.3023 97.2564 83.2645 97.1148 83.1919L96.3988 82.7941C96.3442 82.7749 96.2969 82.7394 96.2634 82.6924C96.23 82.6453 96.212 82.5892 96.212 82.5316C96.212 82.474 96.23 82.4178 96.2634 82.3708C96.2969 82.3238 96.3442 82.2882 96.3988 82.269L97.1188 81.8713C97.2614 81.7996 97.419 81.7622 97.5788 81.7622C97.7386 81.7622 97.8962 81.7996 98.0388 81.8713L98.7548 82.269C98.9988 82.4202 98.9988 82.6549 98.7468 82.8021L98.7508 82.7941ZM94.3187 83.4664L95.0387 83.0686C95.1806 82.997 95.3376 82.9596 95.4967 82.9596C95.6559 82.9596 95.8128 82.997 95.9547 83.0686L96.6708 83.4664C96.7268 83.4847 96.7756 83.5201 96.8101 83.5676C96.8447 83.6151 96.8633 83.6723 96.8633 83.7309C96.8633 83.7895 96.8447 83.8467 96.8101 83.8942C96.7756 83.9417 96.7268 83.9771 96.6708 83.9954L95.9507 84.3932C95.8085 84.4639 95.6517 84.5007 95.4927 84.5007C95.3337 84.5007 95.1769 84.4639 95.0347 84.3932L94.3187 83.9954C94.2653 83.9759 94.2191 83.9406 94.1864 83.8943C94.1536 83.848 94.1359 83.7929 94.1354 83.7363C94.135 83.6797 94.1519 83.6243 94.184 83.5775C94.216 83.5307 94.2616 83.4947 94.3147 83.4743L94.3187 83.4664ZM92.2346 84.6597L92.9546 84.2619C93.0963 84.1894 93.2533 84.1515 93.4127 84.1515C93.572 84.1515 93.729 84.1894 93.8707 84.2619L94.5867 84.6597C94.6413 84.6789 94.6886 84.7145 94.722 84.7615C94.7555 84.8085 94.7734 84.8647 94.7734 84.9223C94.7734 84.9799 94.7555 85.036 94.722 85.083C94.6886 85.1301 94.6413 85.1656 94.5867 85.1848L93.8667 85.5826C93.724 85.6543 93.5665 85.6916 93.4067 85.6916C93.2468 85.6916 93.0893 85.6543 92.9466 85.5826L92.2306 85.1848C91.9746 85.0535 91.9746 84.8188 92.2306 84.6717L92.2346 84.6597ZM90.1505 85.8531L90.8706 85.4553C91.0132 85.3836 91.1708 85.3463 91.3306 85.3463C91.4904 85.3463 91.648 85.3836 91.7906 85.4553L92.5066 85.8531C92.5626 85.8714 92.6114 85.9068 92.646 85.9543C92.6806 86.0018 92.6992 86.059 92.6992 86.1176C92.6992 86.1762 92.6806 86.2334 92.646 86.2809C92.6114 86.3284 92.5626 86.3638 92.5066 86.3821L91.7866 86.7799C91.6447 86.8515 91.4877 86.8889 91.3286 86.8889C91.1694 86.8889 91.0125 86.8515 90.8706 86.7799L90.1545 86.3821C90.1022 86.3623 90.0571 86.3273 90.025 86.2817C89.9929 86.2361 89.9753 86.1819 89.9744 86.1263C89.9735 86.0706 89.9895 86.0159 90.0202 85.9694C90.0509 85.9228 90.0949 85.8865 90.1465 85.865L90.1505 85.8531ZM88.0705 87.0464L88.7905 86.6486C88.9321 86.5761 89.0892 86.5382 89.2485 86.5382C89.4078 86.5382 89.5649 86.5761 89.7065 86.6486L90.4225 87.0464C90.4772 87.0656 90.5244 87.1012 90.5579 87.1482C90.5913 87.1952 90.6093 87.2514 90.6093 87.309C90.6093 87.3666 90.5913 87.4227 90.5579 87.4697C90.5244 87.5168 90.4772 87.5523 90.4225 87.5715L89.7025 87.9693C89.5606 88.0409 89.4037 88.0782 89.2445 88.0782C89.0853 88.0782 88.9284 88.0409 88.7865 87.9693L88.0705 87.5715C88.0207 87.55 87.9783 87.5147 87.9484 87.4697C87.9185 87.4248 87.9023 87.3721 87.9019 87.3182C87.9014 87.2643 87.9168 87.2114 87.946 87.166C87.9752 87.1206 88.0171 87.0846 88.0665 87.0623L88.0705 87.0464ZM85.9864 88.2398L86.7064 87.842C86.8484 87.7704 87.0053 87.733 87.1644 87.733C87.3236 87.733 87.4805 87.7704 87.6225 87.842L88.3385 88.2398C88.5945 88.383 88.5905 88.6177 88.3385 88.7649L87.6185 89.1626C87.4761 89.2352 87.3184 89.2731 87.1584 89.2731C86.9985 89.2731 86.8408 89.2352 86.6984 89.1626L85.9824 88.7649C85.934 88.7425 85.893 88.7069 85.8642 88.6621C85.8355 88.6173 85.8202 88.5654 85.8202 88.5123C85.8202 88.4592 85.8355 88.4072 85.8642 88.3624C85.893 88.3177 85.934 88.282 85.9824 88.2597L85.9864 88.2398ZM83.9023 89.4331L84.6223 89.0353C84.765 88.9637 84.9226 88.9263 85.0824 88.9263C85.2422 88.9263 85.3997 88.9637 85.5424 89.0353L86.2584 89.4331C86.3144 89.4514 86.3632 89.4869 86.3978 89.5344C86.4324 89.5819 86.451 89.639 86.451 89.6977C86.451 89.7563 86.4324 89.8134 86.3978 89.8609C86.3632 89.9084 86.3144 89.9439 86.2584 89.9622L85.5384 90.36C85.3962 90.4307 85.2394 90.4675 85.0804 90.4675C84.9214 90.4675 84.7646 90.4307 84.6223 90.36L83.9063 89.9622C83.8564 89.9411 83.8137 89.9061 83.7834 89.8614C83.7531 89.8166 83.7365 89.7641 83.7357 89.7102C83.7348 89.6563 83.7498 89.6033 83.7786 89.5576C83.8075 89.512 83.8491 89.4756 83.8983 89.453L83.9023 89.4331ZM84.1703 91.1516L83.4503 91.5493C83.3084 91.621 83.1515 91.6583 82.9923 91.6583C82.8331 91.6583 82.6762 91.621 82.5343 91.5493L81.8183 91.1516C81.5662 91.0084 81.5662 90.7737 81.8183 90.6265L82.5383 90.2287C82.6799 90.1561 82.837 90.1183 82.9963 90.1183C83.1556 90.1183 83.3127 90.1561 83.4543 90.2287L84.1703 90.6265C84.2331 90.6401 84.2893 90.6748 84.3294 90.7247C84.3695 90.7746 84.3912 90.8367 84.3907 90.9006C84.3902 90.9645 84.3677 91.0263 84.3268 91.0756C84.286 91.1249 84.2293 91.1588 84.1663 91.1714L84.1703 91.1516ZM79.7382 91.8238L80.4582 91.426C80.6008 91.3544 80.7584 91.317 80.9182 91.317C81.078 91.317 81.2356 91.3544 81.3782 91.426L82.0903 91.8238C82.1463 91.8421 82.1951 91.8776 82.2296 91.9251C82.2642 91.9726 82.2828 92.0297 82.2828 92.0883C82.2828 92.147 82.2642 92.2041 82.2296 92.2516C82.1951 92.2991 82.1463 92.3346 82.0903 92.3529L81.3702 92.7506C81.2276 92.8223 81.07 92.8597 80.9102 92.8597C80.7504 92.8597 80.5928 92.8223 80.4502 92.7506L79.7342 92.3529C79.4782 92.2256 79.4822 91.9909 79.7342 91.8437L79.7382 91.8238ZM76.6901 93.578L78.3341 92.6313C78.4761 92.5597 78.633 92.5223 78.7921 92.5223C78.9513 92.5223 79.1082 92.5597 79.2502 92.6313L79.9662 93.0291C80.0222 93.0474 80.071 93.0828 80.1056 93.1303C80.1401 93.1778 80.1588 93.235 80.1588 93.2936C80.1588 93.3523 80.1401 93.4094 80.1056 93.4569C80.071 93.5044 80.0222 93.5398 79.9662 93.5581L78.3221 94.5009C78.1805 94.5735 78.0235 94.6113 77.8641 94.6113C77.7048 94.6113 77.5477 94.5735 77.4061 94.5009L76.6901 94.1031C76.6415 94.0811 76.6002 94.0458 76.5711 94.0013C76.542 93.9568 76.5263 93.9049 76.5259 93.8518C76.5255 93.7987 76.5403 93.7466 76.5687 93.7016C76.5971 93.6566 76.6378 93.6206 76.6861 93.5979L76.6901 93.578ZM106.923 80.3239L105.279 81.2666C105.137 81.3392 104.98 81.3771 104.821 81.3771C104.662 81.3771 104.505 81.3392 104.363 81.2666L103.647 80.8688C103.592 80.8497 103.545 80.8141 103.512 80.7671C103.478 80.7201 103.46 80.6639 103.46 80.6063C103.46 80.5487 103.478 80.4925 103.512 80.4455C103.545 80.3985 103.592 80.363 103.647 80.3438L105.295 79.397C105.437 79.3254 105.594 79.2881 105.753 79.2881C105.912 79.2881 106.069 79.3254 106.211 79.397L106.927 79.7948C106.983 79.8136 107.032 79.8493 107.066 79.8971C107.1 79.9449 107.118 80.0022 107.118 80.0608C107.117 80.1194 107.098 80.1764 107.063 80.2237C107.028 80.2709 106.979 80.306 106.923 80.3239V80.3239ZM103.915 82.0503L103.195 82.448C103.053 82.5197 102.896 82.557 102.737 82.557C102.578 82.557 102.421 82.5197 102.279 82.448L101.563 82.0503C101.507 82.032 101.458 81.9965 101.424 81.949C101.389 81.9015 101.37 81.8444 101.37 81.7857C101.37 81.7271 101.389 81.67 101.424 81.6225C101.458 81.575 101.507 81.5395 101.563 81.5212L102.283 81.1234C102.425 81.0518 102.582 81.0145 102.741 81.0145C102.9 81.0145 103.057 81.0518 103.199 81.1234L103.915 81.5212C103.971 81.5395 104.02 81.575 104.054 81.6225C104.089 81.67 104.108 81.7271 104.108 81.7857C104.108 81.8444 104.089 81.9015 104.054 81.949C104.02 81.9965 103.971 82.032 103.915 82.0503ZM101.115 83.6414C100.972 83.7131 100.815 83.7504 100.655 83.7504C100.495 83.7504 100.338 83.7131 100.195 83.6414L99.4789 83.2436C99.2269 83.1004 99.2309 82.8458 99.4789 82.7185L100.199 82.3208C100.341 82.2482 100.499 82.2103 100.659 82.2103C100.819 82.2103 100.977 82.2482 101.119 82.3208L101.831 82.7185C101.886 82.7377 101.933 82.7733 101.966 82.8203C102 82.8673 102.018 82.9235 102.018 82.9811C102.018 83.0387 102 83.0948 101.966 83.1419C101.933 83.1889 101.886 83.2244 101.831 83.2436L101.115 83.6414ZM99.0309 84.8347C98.8892 84.9073 98.7322 84.9452 98.5728 84.9452C98.4135 84.9452 98.2565 84.9073 98.1148 84.8347L97.3988 84.437C97.3442 84.4178 97.2969 84.3822 97.2635 84.3352C97.23 84.2882 97.2121 84.232 97.2121 84.1744C97.2121 84.1168 97.23 84.0607 97.2635 84.0136C97.2969 83.9666 97.3442 83.9311 97.3988 83.9119L98.1228 83.5141C98.2647 83.4425 98.4217 83.4051 98.5808 83.4051C98.74 83.4051 98.8969 83.4425 99.0388 83.5141L99.7549 83.9119C99.8109 83.9302 99.8597 83.9656 99.8943 84.0131C99.9288 84.0606 99.9475 84.1178 99.9475 84.1764C99.9475 84.2351 99.9288 84.2922 99.8943 84.3397C99.8597 84.3872 99.8109 84.4226 99.7549 84.4409L99.0309 84.8347ZM96.9548 84.6796L97.6708 85.0774C97.7254 85.0966 97.7727 85.1321 97.8061 85.1792C97.8396 85.2262 97.8575 85.2823 97.8575 85.3399C97.8575 85.3975 97.8396 85.4537 97.8061 85.5007C97.7727 85.5477 97.7254 85.5833 97.6708 85.6025L96.9508 86.0003C96.8088 86.0719 96.6519 86.1092 96.4928 86.1092C96.3336 86.1092 96.1767 86.0719 96.0347 86.0003L95.3187 85.6025C95.2627 85.5842 95.2139 85.5487 95.1793 85.5012C95.1448 85.4537 95.1261 85.3966 95.1261 85.3379C95.1261 85.2793 95.1448 85.2222 95.1793 85.1747C95.2139 85.1272 95.2627 85.0917 95.3187 85.0734L96.0387 84.6756C96.1823 84.6067 96.3403 84.5729 96.4997 84.5771C96.659 84.5812 96.8151 84.6232 96.9548 84.6995V84.6796ZM94.8307 85.8491L95.6307 86.3105C95.6816 86.3267 95.726 86.3586 95.7575 86.4015C95.7889 86.4444 95.8059 86.4961 95.8059 86.5492C95.8059 86.6023 95.7889 86.654 95.7575 86.6969C95.726 86.7398 95.6816 86.7717 95.6307 86.7879L94.8307 87.2493C94.702 87.3149 94.5594 87.3491 94.4147 87.3491C94.27 87.3491 94.1274 87.3149 93.9987 87.2493L93.1986 86.7879C93.1478 86.7717 93.1034 86.7398 93.0719 86.6969C93.0404 86.654 93.0235 86.6023 93.0235 86.5492C93.0235 86.4961 93.0404 86.4444 93.0719 86.4015C93.1034 86.3586 93.1478 86.3267 93.1986 86.3105L93.9987 85.8451C94.1296 85.7841 94.273 85.7545 94.4175 85.7586C94.5621 85.7628 94.7036 85.8006 94.8307 85.869V85.8491ZM92.7466 87.0424L93.5467 87.5039C93.7747 87.6351 93.7747 87.846 93.5467 87.9772L92.7466 88.4426C92.6183 88.5073 92.4765 88.541 92.3326 88.541C92.1888 88.541 92.0469 88.5073 91.9186 88.4426L91.1186 87.9812C91.0692 87.9641 91.0263 87.9321 90.996 87.8897C90.9657 87.8473 90.9494 87.7966 90.9494 87.7445C90.9494 87.6925 90.9657 87.6418 90.996 87.5993C91.0263 87.5569 91.0692 87.525 91.1186 87.5079L91.9186 87.0424C92.0488 86.9815 92.1916 86.9518 92.3355 86.956C92.4793 86.9601 92.6202 86.9979 92.7466 87.0663V87.0424ZM90.6626 88.2358L91.4626 88.6972C91.5135 88.7134 91.5578 88.7453 91.5893 88.7882C91.6208 88.8311 91.6378 88.8828 91.6378 88.9359C91.6378 88.989 91.6208 89.0407 91.5893 89.0836C91.5578 89.1265 91.5135 89.1584 91.4626 89.1746L90.6626 89.64C90.5342 89.7046 90.3924 89.7383 90.2485 89.7383C90.1047 89.7383 89.9629 89.7046 89.8345 89.64L89.0345 89.1785C88.9836 89.1624 88.9393 89.1305 88.9078 89.0876C88.8763 89.0447 88.8593 88.993 88.8593 88.9399C88.8593 88.8868 88.8763 88.835 88.9078 88.7921C88.9393 88.7492 88.9836 88.7174 89.0345 88.7012L89.8345 88.2398C89.9642 88.1772 90.1069 88.1464 90.251 88.1499C90.395 88.1533 90.5361 88.191 90.6626 88.2597V88.2358ZM88.5825 89.4292L89.3985 89.9304C89.6265 90.0616 89.6225 90.2725 89.3985 90.4037L88.5985 90.8691C88.4695 90.9338 88.327 90.9675 88.1825 90.9675C88.038 90.9675 87.8955 90.9338 87.7665 90.8691L86.9664 90.4077C86.9156 90.3915 86.8712 90.3597 86.8397 90.3168C86.8082 90.2739 86.7913 90.2221 86.7913 90.169C86.7913 90.1159 86.8082 90.0642 86.8397 90.0213C86.8712 89.9784 86.9156 89.9466 86.9664 89.9304L87.7665 89.465C87.8949 89.399 88.037 89.364 88.1815 89.3626C88.326 89.3612 88.4688 89.3935 88.5985 89.457L88.5825 89.4292ZM86.4984 90.6225L87.2984 91.0839C87.3493 91.1001 87.3937 91.132 87.4252 91.1749C87.4566 91.2178 87.4736 91.2695 87.4736 91.3226C87.4736 91.3757 87.4566 91.4274 87.4252 91.4703C87.3937 91.5132 87.3493 91.5451 87.2984 91.5613L86.4984 92.0267C86.3701 92.0913 86.2283 92.125 86.0844 92.125C85.9405 92.125 85.7987 92.0913 85.6704 92.0267L84.8704 91.5653C84.6423 91.434 84.6423 91.2232 84.8704 91.0879L85.6704 90.6265C85.8006 90.5655 85.9434 90.5359 86.0873 90.54C86.2311 90.5442 86.372 90.582 86.4984 90.6503V90.6225ZM83.5783 93.224L82.7783 92.7626C82.7274 92.7464 82.6831 92.7145 82.6516 92.6716C82.6201 92.6288 82.6031 92.577 82.6031 92.5239C82.6031 92.4708 82.6201 92.4191 82.6516 92.3762C82.6831 92.3333 82.7274 92.3014 82.7783 92.2852L83.5783 91.8198C83.7066 91.7552 83.8485 91.7215 83.9923 91.7215C84.1362 91.7215 84.278 91.7552 84.4063 91.8198L85.2064 92.2813C85.2572 92.2975 85.3016 92.3293 85.3331 92.3722C85.3646 92.4151 85.3815 92.4668 85.3815 92.5199C85.3815 92.573 85.3646 92.6248 85.3331 92.6677C85.3016 92.7106 85.2572 92.7424 85.2064 92.7586L84.4063 93.22C84.2809 93.2906 84.1402 93.3303 83.9962 93.3358C83.8522 93.3414 83.7089 93.3126 83.5783 93.2519V93.224ZM81.4942 94.4174L80.6942 93.9559C80.4622 93.8247 80.4662 93.6138 80.6942 93.4826L81.4942 93.0172C81.6233 92.9525 81.7658 92.9188 81.9103 92.9188C82.0548 92.9188 82.1972 92.9525 82.3263 93.0172L83.1263 93.4786C83.3543 93.6099 83.3503 93.8207 83.1263 93.952L82.3263 94.4174C82.1994 94.4864 82.0581 94.5249 81.9136 94.5297C81.7691 94.5346 81.6254 94.5056 81.4942 94.4452V94.4174ZM78.5701 94.7038L79.3702 94.2384C79.4985 94.1737 79.6403 94.14 79.7842 94.14C79.928 94.14 80.0699 94.1737 80.1982 94.2384L80.9982 94.6998C81.0491 94.716 81.0935 94.7478 81.1249 94.7907C81.1564 94.8336 81.1734 94.8853 81.1734 94.9385C81.1734 94.9916 81.1564 95.0433 81.1249 95.0862C81.0935 95.1291 81.0491 95.1609 80.9982 95.1771L80.1982 95.6425C80.0699 95.7072 79.928 95.7409 79.7842 95.7409C79.6403 95.7409 79.4985 95.7072 79.3702 95.6425L78.5701 95.1811C78.3381 95.0737 78.3381 94.8629 78.5701 94.7316V94.7038ZM108.895 81.4059L106.287 82.9055C106.158 82.9702 106.016 83.0039 105.871 83.0039C105.727 83.0039 105.584 82.9702 105.455 82.9055L104.655 82.4441C104.604 82.4279 104.56 82.396 104.528 82.3531C104.497 82.3102 104.48 82.2585 104.48 82.2054C104.48 82.1523 104.497 82.1006 104.528 82.0577C104.56 82.0148 104.604 81.9829 104.655 81.9667L107.267 80.4671C107.395 80.4024 107.537 80.3687 107.681 80.3687C107.825 80.3687 107.967 80.4024 108.095 80.4671L108.895 80.9285C108.946 80.9447 108.99 80.9765 109.022 81.0194C109.053 81.0623 109.07 81.1141 109.07 81.1672C109.07 81.2203 109.053 81.272 109.022 81.3149C108.99 81.3578 108.946 81.3897 108.895 81.4059V81.4059ZM104.999 83.6334L104.199 84.0988C104.071 84.1635 103.929 84.1972 103.785 84.1972C103.641 84.1972 103.499 84.1635 103.371 84.0988L102.571 83.6374C102.52 83.6212 102.476 83.5894 102.444 83.5465C102.413 83.5036 102.396 83.4519 102.396 83.3987C102.396 83.3456 102.413 83.2939 102.444 83.251C102.476 83.2081 102.52 83.1763 102.571 83.1601L103.371 82.6947C103.499 82.63 103.641 82.5963 103.785 82.5963C103.929 82.5963 104.071 82.63 104.199 82.6947L104.999 83.168C105.243 83.2913 105.243 83.5022 104.999 83.6334ZM102.919 84.8268L102.119 85.2922C101.991 85.3569 101.849 85.3905 101.705 85.3905C101.561 85.3905 101.419 85.3569 101.291 85.2922L100.491 84.8308C100.263 84.6995 100.263 84.4887 100.491 84.3534L101.291 83.892C101.419 83.8273 101.561 83.7937 101.705 83.7937C101.849 83.7937 101.991 83.8273 102.119 83.892L102.919 84.3534C102.97 84.3683 103.016 84.399 103.048 84.4412C103.081 84.4833 103.099 84.5346 103.1 84.5877C103.102 84.6409 103.086 84.6931 103.056 84.7367C103.025 84.7804 102.981 84.8134 102.931 84.8308L102.919 84.8268ZM100.835 86.0201L100.035 86.4816C99.9061 86.5472 99.7635 86.5814 99.6189 86.5814C99.4742 86.5814 99.3316 86.5472 99.2029 86.4816L98.4028 86.0201C98.352 86.004 98.3076 85.9721 98.2761 85.9292C98.2446 85.8863 98.2277 85.8346 98.2277 85.7815C98.2277 85.7284 98.2446 85.6766 98.2761 85.6337C98.3076 85.5908 98.352 85.559 98.4028 85.5428L99.2029 85.0774C99.3319 85.0127 99.4744 84.979 99.6189 84.979C99.7634 84.979 99.9059 85.0127 100.035 85.0774L100.835 85.5388C100.891 85.5498 100.942 85.5795 100.979 85.6231C101.016 85.6667 101.037 85.7216 101.039 85.7787C101.04 85.8357 101.022 85.8916 100.987 85.9369C100.952 85.9823 100.903 86.0144 100.847 86.0281L100.835 86.0201ZM97.1148 87.6789L96.3148 87.2175C96.2653 87.2004 96.2225 87.1684 96.1922 87.126C96.1619 87.0836 96.1456 87.0328 96.1456 86.9808C96.1456 86.9288 96.1619 86.878 96.1922 86.8356C96.2225 86.7932 96.2653 86.7612 96.3148 86.7441L97.1148 86.2787C97.2431 86.214 97.3849 86.1804 97.5288 86.1804C97.6727 86.1804 97.8145 86.214 97.9428 86.2787L98.7428 86.7401C98.9708 86.8714 98.9708 87.0822 98.7428 87.2135L97.9428 87.6789C97.8167 87.7429 97.6773 87.7769 97.5357 87.7782C97.3941 87.7796 97.2542 87.7483 97.1268 87.6869L97.1148 87.6789ZM95.0307 88.8723L94.2307 88.4108C94.1798 88.3946 94.1354 88.3628 94.104 88.3199C94.0725 88.277 94.0555 88.2253 94.0555 88.1722C94.0555 88.119 94.0725 88.0673 94.104 88.0244C94.1354 87.9815 94.1798 87.9497 94.2307 87.9335L95.0307 87.4721C95.1588 87.4065 95.3007 87.3722 95.4447 87.3722C95.5888 87.3722 95.7307 87.4065 95.8587 87.4721L96.6588 87.9335C96.7096 87.9497 96.754 87.9815 96.7855 88.0244C96.817 88.0673 96.8339 88.119 96.8339 88.1722C96.8339 88.2253 96.817 88.277 96.7855 88.3199C96.754 88.3628 96.7096 88.3946 96.6588 88.4108L95.8587 88.8762C95.7326 88.9402 95.5933 88.9742 95.4517 88.9756C95.3101 88.9769 95.1701 88.9457 95.0427 88.8842L95.0307 88.8723ZM92.9466 90.0656L92.1466 89.6042C92.0958 89.588 92.0514 89.5561 92.0199 89.5132C91.9884 89.4703 91.9714 89.4186 91.9714 89.3655C91.9714 89.3124 91.9884 89.2607 92.0199 89.2178C92.0514 89.1749 92.0958 89.143 92.1466 89.1268L92.9466 88.6614C93.0757 88.5967 93.2182 88.563 93.3627 88.563C93.5072 88.563 93.6496 88.5967 93.7787 88.6614L94.5987 89.1348C94.8267 89.2661 94.8227 89.4769 94.5987 89.6082L93.7987 90.0736C93.6692 90.1408 93.5256 90.1766 93.3796 90.178C93.2336 90.1793 93.0893 90.1463 92.9586 90.0815L92.9466 90.0656ZM90.8666 91.259L90.0665 90.7975C89.8385 90.6663 89.8385 90.4554 90.0665 90.3202L90.8666 89.8588C90.9949 89.7941 91.1367 89.7604 91.2806 89.7604C91.4244 89.7604 91.5663 89.7941 91.6946 89.8588L92.4946 90.3202C92.5455 90.3364 92.5899 90.3682 92.6213 90.4111C92.6528 90.454 92.6698 90.5058 92.6698 90.5589C92.6698 90.612 92.6528 90.6637 92.6213 90.7066C92.5899 90.7495 92.5455 90.7813 92.4946 90.7975L91.6946 91.2629C91.5688 91.3275 91.4296 91.3622 91.288 91.3643C91.1464 91.3663 91.0063 91.3357 90.8786 91.2749L90.8666 91.259ZM88.7825 92.4523L87.9825 91.9909C87.9316 91.9747 87.8872 91.9428 87.8557 91.8999C87.8243 91.857 87.8073 91.8053 87.8073 91.7522C87.8073 91.6991 87.8243 91.6474 87.8557 91.6045C87.8872 91.5616 87.9316 91.5297 87.9825 91.5135L88.7825 91.0481C88.9108 90.9835 89.0527 90.9498 89.1965 90.9498C89.3404 90.9498 89.4822 90.9835 89.6105 91.0481L90.4105 91.5096C90.4614 91.5258 90.5058 91.5576 90.5373 91.6005C90.5688 91.6434 90.5857 91.6951 90.5857 91.7482C90.5857 91.8013 90.5688 91.8531 90.5373 91.896C90.5058 91.9389 90.4614 91.9707 90.4105 91.9869L89.6105 92.4483C89.4859 92.5157 89.3471 92.5529 89.2054 92.5571C89.0636 92.5612 88.9229 92.5321 88.7945 92.4722L88.7825 92.4523ZM86.6984 93.6457L85.8984 93.1842C85.6664 93.053 85.6704 92.8421 85.8984 92.7109L86.6984 92.2455C86.8274 92.1808 86.9699 92.1471 87.1144 92.1471C87.2589 92.1471 87.4014 92.1808 87.5305 92.2455L88.3305 92.7069C88.5585 92.8382 88.5545 93.049 88.3305 93.1803L87.5305 93.6457C87.4045 93.7115 87.265 93.7476 87.1228 93.7511C86.9805 93.7545 86.8394 93.7252 86.7104 93.6655L86.6984 93.6457ZM86.2544 94.3776L85.4544 94.843C85.3261 94.9076 85.1842 94.9413 85.0404 94.9413C84.8965 94.9413 84.7547 94.9076 84.6263 94.843L83.8263 94.3816C83.7755 94.3654 83.7311 94.3335 83.6996 94.2906C83.6681 94.2477 83.6512 94.196 83.6512 94.1429C83.6512 94.0898 83.6681 94.038 83.6996 93.9952C83.7311 93.9523 83.7755 93.9204 83.8263 93.9042L84.6263 93.4428C84.7544 93.3772 84.8963 93.343 85.0404 93.343C85.1844 93.343 85.3263 93.3772 85.4544 93.4428L86.2544 93.9042C86.3129 93.9132 86.3663 93.9423 86.4054 93.9864C86.4444 94.0306 86.4666 94.087 86.468 94.1459C86.4695 94.2047 86.45 94.2621 86.4132 94.3081C86.3763 94.3541 86.3244 94.3857 86.2664 94.3975L86.2544 94.3776ZM80.4862 95.8176L82.5423 94.6242C82.6706 94.5596 82.8124 94.5259 82.9563 94.5259C83.1001 94.5259 83.242 94.5596 83.3703 94.6242L84.1983 95.1015C84.2478 95.1187 84.2906 95.1506 84.3209 95.193C84.3512 95.2355 84.3675 95.2862 84.3675 95.3382C84.3675 95.3903 84.3512 95.441 84.3209 95.4834C84.2906 95.5258 84.2478 95.5578 84.1983 95.5749L82.1423 96.7683C82.0132 96.833 81.8707 96.8667 81.7262 96.8667C81.5817 96.8667 81.4393 96.833 81.3102 96.7683L80.5102 96.3068C80.4617 96.2902 80.4194 96.2592 80.389 96.218C80.3587 96.1768 80.3417 96.1273 80.3404 96.0763C80.3391 96.0252 80.3535 95.975 80.3817 95.9323C80.4099 95.8896 80.4506 95.8565 80.4982 95.8374L80.4862 95.8176ZM110.819 82.5714L107.111 84.6955C106.966 84.7692 106.806 84.8076 106.643 84.8076C106.48 84.8076 106.32 84.7692 106.175 84.6955L105.479 84.2977C105.422 84.2793 105.372 84.2433 105.337 84.1951C105.302 84.1469 105.283 84.0888 105.283 84.0292C105.283 83.9696 105.302 83.9116 105.337 83.8634C105.372 83.8151 105.422 83.7792 105.479 83.7607L109.183 81.6326C109.328 81.5601 109.489 81.5224 109.651 81.5224C109.814 81.5224 109.974 81.5601 110.119 81.6326L110.815 82.0304C110.872 82.0495 110.921 82.0857 110.956 82.1339C110.991 82.1821 111.01 82.24 111.011 82.2995C111.011 82.3589 110.993 82.4171 110.959 82.4658C110.924 82.5145 110.876 82.5514 110.819 82.5714V82.5714ZM105.731 85.4911L105.031 85.8889C104.886 85.9625 104.726 86.001 104.563 86.001C104.4 86.001 104.24 85.9625 104.095 85.8889L103.395 85.4911C103.338 85.4726 103.288 85.4367 103.253 85.3885C103.218 85.3402 103.199 85.2822 103.199 85.2226C103.199 85.163 103.218 85.1049 103.253 85.0567C103.288 85.0085 103.338 84.9726 103.395 84.9541L104.095 84.5563C104.241 84.4838 104.402 84.4461 104.565 84.4461C104.728 84.4461 104.889 84.4838 105.035 84.5563L105.731 84.9541C105.991 85.1013 105.991 85.3399 105.731 85.4911ZM103.647 86.6844L102.947 87.0822C102.802 87.1547 102.641 87.1924 102.479 87.1924C102.316 87.1924 102.156 87.1547 102.011 87.0822L101.315 86.6844C101.055 86.5373 101.059 86.2867 101.315 86.1474L102.015 85.7497C102.16 85.676 102.32 85.6376 102.483 85.6376C102.646 85.6376 102.806 85.676 102.951 85.7497L103.647 86.1474C103.911 86.2946 103.907 86.5373 103.647 86.6844ZM101.567 87.8778L100.867 88.2756C100.721 88.349 100.56 88.3872 100.397 88.3872C100.234 88.3872 100.073 88.349 99.9269 88.2756L99.2309 87.8778C99.1739 87.8593 99.1243 87.8234 99.0891 87.7752C99.0539 87.7269 99.0349 87.6689 99.0349 87.6093C99.0349 87.5497 99.0539 87.4916 99.0891 87.4434C99.1243 87.3952 99.1739 87.3593 99.2309 87.3408L99.9309 86.943C100.076 86.8693 100.236 86.8309 100.399 86.8309C100.562 86.8309 100.722 86.8693 100.867 86.943L101.563 87.3408C101.827 87.4919 101.827 87.7306 101.567 87.8818V87.8778ZM99.4829 89.0711L98.7828 89.4689C98.6376 89.5414 98.4773 89.5791 98.3148 89.5791C98.1523 89.5791 97.9921 89.5414 97.8468 89.4689L97.1508 89.0711C97.0943 89.0516 97.0453 89.0151 97.0107 88.9666C96.9761 88.9181 96.9574 88.8601 96.9574 88.8007C96.9574 88.7412 96.9761 88.6832 97.0107 88.6347C97.0453 88.5863 97.0943 88.5497 97.1508 88.5302L97.8508 88.1324C97.9968 88.0599 98.1577 88.0222 98.3208 88.0222C98.484 88.0222 98.6449 88.0599 98.7908 88.1324L99.4869 88.5302C99.5462 88.5482 99.5981 88.5848 99.6348 88.6345C99.6715 88.6843 99.6911 88.7444 99.6906 88.8061C99.6902 88.8678 99.6697 88.9277 99.6323 88.9769C99.5948 89.0261 99.5424 89.0619 99.4829 89.0791V89.0711ZM97.3988 90.2645L96.6988 90.6623C96.5539 90.7359 96.3935 90.7744 96.2308 90.7744C96.068 90.7744 95.9076 90.7359 95.7627 90.6623L95.0667 90.2645C94.8067 90.1173 94.8107 89.8667 95.0667 89.7275L95.7667 89.3297C95.9116 89.256 96.072 89.2176 96.2348 89.2176C96.3975 89.2176 96.5579 89.256 96.7028 89.3297L97.3988 89.7275C97.6628 89.8826 97.6588 90.1253 97.3988 90.2725V90.2645ZM95.3187 91.4578L94.6187 91.8556C94.473 91.929 94.312 91.9673 94.1487 91.9673C93.9854 91.9673 93.8243 91.929 93.6787 91.8556L92.9826 91.4578C92.9257 91.4394 92.876 91.4034 92.8408 91.3552C92.8057 91.307 92.7867 91.2489 92.7867 91.1893C92.7867 91.1298 92.8057 91.0717 92.8408 91.0235C92.876 90.9752 92.9257 90.9393 92.9826 90.9208L93.6827 90.5231C93.8279 90.4506 93.9882 90.4129 94.1507 90.4129C94.3132 90.4129 94.4734 90.4506 94.6187 90.5231L95.3187 90.9208C95.5787 91.08 95.5787 91.3186 95.3187 91.4698V91.4578ZM93.2346 92.6512L92.5346 93.049C92.3894 93.1214 92.2291 93.1591 92.0666 93.1591C91.9041 93.1591 91.7439 93.1214 91.5986 93.049L90.9026 92.6512C90.6426 92.504 90.6426 92.2534 90.9026 92.1142L91.6066 91.7164C91.7515 91.6427 91.9119 91.6043 92.0746 91.6043C92.2373 91.6043 92.3977 91.6427 92.5426 91.7164L93.2386 92.1142C93.3004 92.1296 93.3552 92.1651 93.3942 92.2152C93.4333 92.2653 93.4542 92.3269 93.4537 92.3902C93.4533 92.4536 93.4314 92.5149 93.3917 92.5644C93.352 92.6139 93.2966 92.6487 93.2346 92.6631V92.6512ZM91.1506 93.8446L90.4506 94.2423C90.3057 94.316 90.1453 94.3544 89.9825 94.3544C89.8198 94.3544 89.6594 94.316 89.5145 94.2423L88.8185 93.8446C88.5585 93.6974 88.5625 93.4468 88.8185 93.3075L89.5185 92.9098C89.6634 92.8361 89.8238 92.7977 89.9865 92.7977C90.1493 92.7977 90.3097 92.8361 90.4546 92.9098L91.1506 93.3075C91.3986 93.4706 91.3986 93.7093 91.1506 93.8605V93.8446ZM89.0705 95.0379L88.3705 95.4357C88.2245 95.5082 88.0636 95.5459 87.9005 95.5459C87.7373 95.5459 87.5764 95.5082 87.4304 95.4357L86.7344 95.0379C86.6779 95.0184 86.629 94.9818 86.5943 94.9333C86.5597 94.8849 86.5411 94.8269 86.5411 94.7674C86.5411 94.7079 86.5597 94.65 86.5943 94.6015C86.629 94.553 86.6779 94.5165 86.7344 94.4969L87.4344 94.0991C87.5797 94.0267 87.74 93.989 87.9025 93.989C88.065 93.989 88.2252 94.0267 88.3705 94.0991L89.0705 94.4969C89.1354 94.5103 89.1936 94.5455 89.2354 94.5966C89.2772 94.6476 89.3 94.7115 89.3 94.7774C89.3 94.8432 89.2772 94.9071 89.2354 94.9581C89.1936 95.0092 89.1354 95.0444 89.0705 95.0578V95.0379ZM86.9864 96.2313L86.2864 96.629C86.1415 96.7027 85.9811 96.7411 85.8184 96.7411C85.6557 96.7411 85.4953 96.7027 85.3504 96.629L84.6543 96.2313C84.5974 96.2128 84.5478 96.1769 84.5126 96.1286C84.4774 96.0804 84.4584 96.0223 84.4584 95.9628C84.4584 95.9032 84.4774 95.8451 84.5126 95.7969C84.5478 95.7486 84.5974 95.7127 84.6543 95.6942L85.3584 95.2965C85.5033 95.2228 85.6637 95.1844 85.8264 95.1844C85.9891 95.1844 86.1495 95.2228 86.2944 95.2965L86.9904 95.6942C87.0568 95.7044 87.1173 95.7376 87.1614 95.788C87.2054 95.8384 87.2301 95.9026 87.2311 95.9693C87.232 96.0361 87.2092 96.101 87.1666 96.1526C87.124 96.2042 87.0644 96.2391 86.9984 96.2511L86.9864 96.2313ZM82.5263 96.9194L83.2263 96.5216C83.372 96.4482 83.533 96.41 83.6963 96.41C83.8596 96.41 84.0206 96.4482 84.1663 96.5216L84.8624 96.9194C84.9193 96.9379 84.969 96.9738 85.0041 97.0221C85.0393 97.0703 85.0583 97.1283 85.0583 97.1879C85.0583 97.2475 85.0393 97.3056 85.0041 97.3538C84.969 97.402 84.9193 97.438 84.8624 97.4564L84.1623 97.8542C84.0171 97.9267 83.8568 97.9644 83.6943 97.9644C83.5318 97.9644 83.3716 97.9267 83.2263 97.8542L82.5263 97.4564C82.2663 97.3291 82.2663 97.0905 82.5263 96.9393V96.9194ZM109.491 83.6732L111.115 82.7424C111.261 82.669 111.422 82.6308 111.585 82.6308C111.749 82.6308 111.91 82.669 112.055 82.7424L112.751 83.1402C112.808 83.1587 112.858 83.1946 112.893 83.2428C112.928 83.291 112.947 83.3491 112.947 83.4087C112.947 83.4683 112.928 83.5263 112.893 83.5746C112.858 83.6228 112.808 83.6587 112.751 83.6772L111.127 84.612C110.981 84.6845 110.82 84.7222 110.657 84.7222C110.494 84.7222 110.333 84.6845 110.187 84.612L109.491 84.2142C109.231 84.063 109.231 83.8244 109.491 83.6732ZM107.407 84.8666L108.111 84.4688C108.256 84.3951 108.416 84.3567 108.579 84.3567C108.742 84.3567 108.902 84.3951 109.047 84.4688L109.743 84.8666C109.8 84.885 109.85 84.921 109.885 84.9692C109.92 85.0174 109.939 85.0755 109.939 85.1351C109.939 85.1947 109.92 85.2527 109.885 85.301C109.85 85.3492 109.8 85.3851 109.743 85.4036L109.043 85.8014C108.898 85.875 108.738 85.9134 108.575 85.9134C108.412 85.9134 108.252 85.875 108.107 85.8014L107.411 85.4036C107.355 85.3855 107.306 85.3505 107.271 85.3035C107.236 85.2565 107.216 85.1998 107.215 85.1413C107.214 85.0827 107.231 85.0252 107.264 84.9767C107.297 84.9282 107.344 84.8911 107.399 84.8705L107.407 84.8666ZM105.327 86.0599L106.027 85.6621C106.172 85.5897 106.333 85.552 106.495 85.552C106.658 85.552 106.818 85.5897 106.963 85.6621L107.659 86.0599C107.716 86.0795 107.765 86.116 107.799 86.1645C107.834 86.213 107.852 86.2709 107.852 86.3304C107.852 86.3899 107.834 86.4479 107.799 86.4963C107.765 86.5448 107.716 86.5814 107.659 86.6009L106.955 86.9987C106.81 87.0711 106.65 87.1089 106.487 87.1089C106.325 87.1089 106.164 87.0711 106.019 86.9987L105.323 86.6009C105.268 86.5802 105.221 86.5432 105.188 86.4949C105.154 86.4467 105.137 86.3895 105.137 86.331C105.138 86.2726 105.156 86.2156 105.19 86.1679C105.224 86.1201 105.272 86.0838 105.327 86.0639V86.0599ZM90.7466 94.4134L103.947 86.8555C104.092 86.7818 104.252 86.7434 104.415 86.7434C104.578 86.7434 104.738 86.7818 104.883 86.8555L105.583 87.2533C105.64 87.2718 105.69 87.3077 105.725 87.3559C105.76 87.4041 105.779 87.4622 105.779 87.5218C105.779 87.5814 105.76 87.6394 105.725 87.6877C105.69 87.7359 105.64 87.7718 105.583 87.7903L92.3826 95.3681C92.2377 95.4417 92.0773 95.4801 91.9146 95.4801C91.7519 95.4801 91.5915 95.4417 91.4466 95.3681L90.7466 94.9703C90.691 94.9509 90.6429 94.9149 90.6089 94.8671C90.5748 94.8194 90.5565 94.7623 90.5565 94.7038C90.5565 94.6452 90.5748 94.5882 90.6089 94.5404C90.6429 94.4927 90.691 94.4566 90.7466 94.4373V94.4134ZM88.6665 95.6067L89.3665 95.209C89.5114 95.1353 89.6718 95.0969 89.8345 95.0969C89.9973 95.0969 90.1577 95.1353 90.3025 95.209L90.9986 95.6067C91.2586 95.7539 91.2546 96.0045 90.9986 96.1437L90.2985 96.5415C90.1533 96.614 89.993 96.6517 89.8305 96.6517C89.668 96.6517 89.5078 96.614 89.3625 96.5415L88.6665 96.1437C88.4025 96.0204 88.4065 95.7818 88.6665 95.6306V95.6067ZM86.5824 96.8001L87.2824 96.4023C87.4273 96.3286 87.5877 96.2902 87.7505 96.2902C87.9132 96.2902 88.0736 96.3286 88.2185 96.4023L88.9145 96.8001C88.9715 96.8186 89.0211 96.8545 89.0563 96.9027C89.0915 96.9509 89.1104 97.009 89.1104 97.0686C89.1104 97.1282 89.0915 97.1862 89.0563 97.2345C89.0211 97.2827 88.9715 97.3186 88.9145 97.3371L88.2105 97.7349C88.0656 97.8085 87.9052 97.847 87.7425 97.847C87.5797 97.847 87.4193 97.8085 87.2744 97.7349L86.5784 97.3371C86.531 97.3122 86.4917 97.2746 86.4649 97.2284C86.4381 97.1822 86.425 97.1295 86.4271 97.0762C86.4292 97.023 86.4464 96.9714 86.4767 96.9275C86.507 96.8835 86.5492 96.849 86.5984 96.8279L86.5824 96.8001ZM84.4543 98.0213L85.1584 97.6235C85.3036 97.5511 85.4639 97.5133 85.6264 97.5133C85.7889 97.5133 85.9491 97.5511 86.0944 97.6235L86.7904 98.0213C87.0464 98.1685 87.0464 98.4191 86.7904 98.5583L86.0904 98.9561C85.9455 99.0297 85.7851 99.0682 85.6224 99.0682C85.4597 99.0682 85.2993 99.0297 85.1544 98.9561L84.4583 98.5583C84.4099 98.5356 84.3689 98.4998 84.3401 98.455C84.3112 98.4102 84.2957 98.3582 84.2953 98.305C84.2949 98.2517 84.3096 98.1995 84.3377 98.1542C84.3659 98.109 84.4063 98.0725 84.4543 98.0491V98.0213Z" fill="#999999"/>
<path d="M73.0776 92.3767L100.679 76.529C101.735 75.9164 102.599 74.2696 102.599 72.8535V51.3453C102.599 49.9292 101.735 49.2808 100.667 49.8934L73.0656 65.7411C71.9976 66.3537 71.1295 68.0005 71.1295 69.4166V90.9248C71.1415 92.3409 72.0096 92.9893 73.0776 92.3767Z" fill="#333333"/>
<path d="M72.8259 91.2713L100.123 75.6105C100.563 75.3017 100.919 74.8903 101.162 74.4125C101.405 73.9347 101.526 73.405 101.515 72.8698V51.2264C101.512 51.1679 101.494 51.1111 101.462 51.0615C101.431 51.0119 101.387 50.9712 101.335 50.9433C101.284 50.9153 101.226 50.9011 101.167 50.9019C101.108 50.9027 101.05 50.9186 100.999 50.9479L100.939 50.9837L73.622 66.6604C72.5979 67.2491 72.2299 68.2913 72.2299 69.4011V90.9769C72.2302 91.0411 72.2473 91.1042 72.2795 91.1598C72.3117 91.2155 72.3579 91.2619 72.4136 91.2944C72.4693 91.3269 72.5326 91.3444 72.5971 91.3453C72.6617 91.3461 72.7254 91.3302 72.7819 91.2991L72.8259 91.2713Z" fill="#2284F7"/>
<path d="M73.6221 66.6601L100.939 50.9676L100.999 50.9477C101.051 50.9177 101.11 50.9019 101.171 50.9019C101.231 50.9018 101.29 50.9174 101.342 50.9472C101.394 50.977 101.438 51.0199 101.468 51.0717C101.499 51.1234 101.515 51.1822 101.515 51.2421V72.8536C101.529 73.3915 101.409 73.9244 101.166 74.4052C100.923 74.886 100.565 75.2999 100.123 75.6103L72.8261 91.2869L72.7821 91.3148C72.7256 91.3459 72.6619 91.3618 72.5973 91.3609C72.5327 91.3601 72.4695 91.3426 72.4138 91.3101C72.3581 91.2776 72.3118 91.2312 72.2796 91.1755C72.2474 91.1198 72.2303 91.0568 72.2301 90.9926V69.4009C72.2301 68.2911 72.5981 67.2568 73.6221 66.6601ZM72.4461 90.9767C72.4461 91.0167 72.4621 91.0552 72.4906 91.0835C72.5191 91.1119 72.5578 91.1278 72.5981 91.1278C72.6249 91.1293 72.6515 91.1223 72.6741 91.1079L100.015 75.4074C100.422 75.1177 100.751 74.7336 100.974 74.2885C101.197 73.8434 101.307 73.3508 101.295 72.8536V51.2261C101.295 51.1934 101.282 51.1621 101.259 51.1389C101.235 51.1158 101.204 51.1028 101.171 51.1028C101.15 51.0969 101.128 51.0969 101.107 51.1028L73.7301 66.859C72.6701 67.4676 72.4461 68.5854 72.4461 69.4128V90.9767Z" fill="#2284F7"/>
<path d="M72.5301 65.4349L100.119 49.5872C100.283 49.476 100.47 49.4034 100.666 49.3752C100.862 49.3469 101.062 49.3636 101.251 49.4241C101.291 49.4241 101.831 49.7224 101.867 49.7423C101.672 49.6629 101.46 49.6333 101.25 49.6563C101.041 49.6792 100.84 49.7539 100.667 49.8736L73.0662 65.7213C71.9981 66.3339 71.1301 67.9807 71.1301 69.3968V90.9249C71.1301 91.808 71.4701 92.3927 71.9821 92.5598C71.9217 92.5557 71.8635 92.535 71.8141 92.5001L71.1781 92.1421C70.8101 91.8875 70.5821 91.3465 70.5821 90.6345V69.1104C70.5981 67.6943 71.4621 66.0634 72.5301 65.4349Z" fill="#666666"/>
<path d="M72.5301 65.4349L100.119 49.5872C100.283 49.476 100.47 49.4034 100.666 49.3752C100.862 49.3469 101.062 49.3636 101.251 49.4241C101.291 49.4241 101.831 49.7224 101.867 49.7423C101.672 49.6629 101.46 49.6333 101.25 49.6563C101.041 49.6792 100.84 49.7539 100.667 49.8736L73.0662 65.7213L72.5301 65.4349Z" fill="#666666"/>
<path d="M72.9978 65.6659L100.599 49.8143C100.765 49.7059 100.955 49.6377 101.153 49.6149C101.351 49.5921 101.552 49.6154 101.739 49.683C101.412 49.6464 101.083 49.7237 100.807 49.9018L73.2058 65.7495C72.1378 66.3621 71.2697 68.0089 71.2697 69.425V90.9451C71.2697 91.7804 71.5737 92.3492 72.0378 92.5362C71.4417 92.4407 71.0377 91.8321 71.0377 90.8655V69.3534C71.0497 67.9373 71.9178 66.2944 72.9978 65.6659Z" fill="#666666"/>
<path d="M95.5126 64.8101C95.2865 64.3019 93.7574 64.5692 93.3301 65.2108C93.1039 65.5506 93.0122 65.9597 93.1379 66.2311C93.3807 66.7501 93.506 67.3914 93.506 68.1038C93.506 71.0897 91.2526 74.4751 88.4799 75.6541L89.3386 73.8906C89.3381 73.4849 88.1194 73.4467 87.7681 74.0174L85.4315 77.5276C85.2639 77.7792 85.2639 78.059 85.4315 78.1682L88.5008 80.1062C88.7606 80.2842 90.1578 78.7096 88.4799 79.0721V77.4578C92.1824 75.8834 95.1817 71.3784 95.1817 67.3913C95.1818 66.4533 95.8222 65.4991 95.5126 64.8101ZM90.0441 60.7703C89.7844 60.5922 88.4818 61.0039 88.4808 61.4096V63.0248C84.7784 64.5992 81.7791 69.1043 81.7791 73.0914C81.7791 74.0295 81.947 74.8603 82.2569 75.5494C82.4835 76.0569 84.069 75.9253 84.1656 75.5707C84.3918 75.231 83.9485 74.523 83.8229 74.2516C83.58 73.7326 83.4548 73.0914 83.4547 72.3789C83.4547 69.393 85.7082 66.0076 88.4808 64.8286V66.4438C88.4811 66.8494 89.5099 66.8252 89.7675 66.6662L91.5375 62.9516C91.705 62.7 91.705 62.4202 91.5375 62.311L90.0441 60.7703Z" fill="#D08002"/>
<path d="M95.6202 64.9099C95.3941 64.4017 94.6729 64.5462 94.2457 65.188C94.0199 65.5275 93.9281 65.9361 94.0535 66.2072C94.2964 66.7263 94.4216 67.3683 94.4216 68.0809C94.4215 71.0666 92.169 74.4511 89.3967 75.6306V74.0164C89.3967 73.6104 88.9437 73.6042 88.6841 73.9943L86.3475 77.5049C86.18 77.7566 86.18 78.0364 86.3475 78.1456L88.6841 79.6682C88.9437 79.8464 89.3967 79.4555 89.3967 79.0496V77.4353C93.0987 75.8602 96.0971 71.3551 96.0972 67.3681C96.0972 66.4301 95.9301 65.5989 95.6202 64.9099ZM90.1085 60.7683C89.8489 60.5901 89.397 60.9807 89.3967 61.3865V63.0017C85.6945 64.5767 82.6954 69.0821 82.6954 73.0693C82.6954 74.0073 82.8633 74.8382 83.1732 75.5272C83.3996 76.0349 84.1198 75.8911 84.5468 75.2495C84.773 74.9097 84.8647 74.5005 84.7391 74.2292C84.4962 73.7102 84.371 73.069 84.3709 72.3565C84.3709 69.3707 86.6242 65.9849 89.3967 64.8054V66.4207C89.3969 66.8264 89.8487 66.8322 90.1166 66.4386L92.4532 62.9281C92.6207 62.6764 92.6207 62.3966 92.4532 62.2874L90.1085 60.7683Z" fill="#FFD600"/>
</g>
<defs>
<linearGradient id="paint0_linear_2215_11331" x1="53.6173" y1="81.0141" x2="47.0122" y2="74.1522" gradientUnits="userSpaceOnUse">
<stop stop-color="white" stop-opacity="0"/>
<stop offset="0.09" stop-color="#FCFCFC" stop-opacity="0.12"/>
<stop offset="0.34" stop-color="#F4F4F4" stop-opacity="0.43"/>
<stop offset="0.56" stop-color="#EDEDED" stop-opacity="0.67"/>
<stop offset="0.76" stop-color="#E9E9E9" stop-opacity="0.85"/>
<stop offset="0.91" stop-color="#E6E6E6" stop-opacity="0.96"/>
<stop offset="1" stop-color="#E5E5E5"/>
</linearGradient>
<clipPath id="clip0_2215_11331">
<rect width="52.4058" height="58.7128" fill="white" transform="matrix(-1 0 0 1 123 49.3569)"/>
</clipPath>
</defs>
</svg>
