<svg viewBox="0 0 123 123" fill="none" xmlns="http://www.w3.org/2000/svg">
<path opacity="0.1" d="M96.7387 88.6636C97.9578 89.4943 97.8887 91.3139 96.6102 92.0498L43.8821 122.398C43.2392 122.768 42.4443 122.752 41.817 122.356L22.8054 110.357C21.5318 109.553 21.5701 107.683 22.8756 106.932L76.3772 76.1551C77.042 75.7727 77.8669 75.8041 78.5007 76.236L96.7387 88.6636Z" fill="#333333"/>
<path d="M86.5381 0.576748L38.1041 28.5401C37.5526 28.8586 37.1055 29.633 37.1055 30.2698V89.2716C37.1055 89.9085 37.5526 90.1666 38.1041 89.8482L86.5381 61.8848C87.0896 61.5664 87.5368 60.792 87.5368 60.1551V1.15331C87.5368 0.516459 87.0896 0.258322 86.5381 0.576748Z" fill="#2284F7" stroke="#E6E6E6" stroke-width="0.249999"/>
<path fill-rule="evenodd" clip-rule="evenodd" d="M39.7681 37.7646L85.0397 11.6271V58.3288L39.7681 84.4664V37.7646Z" fill="#03BCFC"/>
<path d="M42.6089 44.3892L82.5545 21.3266" stroke="#71D9FD" stroke-width="0.499997" stroke-linecap="square"/>
<path d="M42.6094 71.8721L82.555 48.8095" stroke="#71D9FD" stroke-width="0.499997" stroke-linecap="square"/>
<path d="M47.3129 26.99L47.6757 26.7805L48.691 28.9157L48.2116 29.1925L47.9919 28.6967L46.97 29.2867L46.757 30.0324L46.2876 30.3033L47.3129 26.99V26.99ZM47.8455 28.3661L47.4826 27.4686L47.1131 28.7889L47.8455 28.3661ZM50.1535 27.7946L50.1468 27.7985C50.0935 27.9375 50.0119 28.0706 49.9138 28.179C49.8161 28.2865 49.7108 28.3731 49.5976 28.4384C49.4733 28.5102 49.3629 28.549 49.2664 28.5547C49.1723 28.5611 49.0878 28.5398 49.0184 28.4923C48.9486 28.4435 48.8953 28.3696 48.8619 28.2751C48.8258 28.1735 48.8078 28.0552 48.8087 27.9253C48.8087 27.7894 48.8275 27.6517 48.8653 27.5121C48.9006 27.3785 48.9542 27.2432 49.0234 27.1133C49.0909 26.987 49.1725 26.8715 49.268 26.7664C49.3634 26.6614 49.4678 26.5761 49.5809 26.5108C49.6563 26.4673 49.7229 26.4377 49.7807 26.4224C49.8383 26.407 49.8894 26.4006 49.9338 26.4032C49.9781 26.4057 50.0159 26.414 50.047 26.4282C50.0779 26.4422 50.1036 26.4589 50.1235 26.4781L50.1335 26.4724V25.177L50.533 24.9464V27.8523L50.1535 28.0714V27.7946V27.7946ZM49.2081 27.6947C49.2081 27.7664 49.2186 27.8295 49.2397 27.884C49.2607 27.9384 49.2918 27.9794 49.3329 28.007C49.3739 28.0345 49.4233 28.0471 49.4811 28.0445C49.5387 28.042 49.6042 28.0195 49.6775 27.9772C49.7507 27.9349 49.8161 27.8818 49.8739 27.8177C49.9298 27.7561 49.9802 27.6852 50.022 27.6092C50.063 27.5343 50.0947 27.4559 50.1152 27.3785C50.1362 27.2997 50.1468 27.2244 50.1468 27.1527C50.1468 27.0808 50.1362 27.0178 50.1152 26.9634C50.0947 26.9097 50.063 26.8679 50.022 26.8404C49.9802 26.8127 49.9298 26.7999 49.8739 26.8029C49.8161 26.8055 49.7507 26.8279 49.6775 26.8702C49.6042 26.9125 49.5387 26.9657 49.4811 27.0297C49.4251 27.0913 49.3748 27.1622 49.3329 27.2382C49.2919 27.313 49.2603 27.3915 49.2397 27.4689C49.2186 27.5476 49.2081 27.6228 49.2081 27.6947ZM51.0233 24.8478L51.7423 24.4327C51.84 24.3763 51.9354 24.3327 52.0286 24.302C52.1218 24.2712 52.205 24.2609 52.2783 24.2712C52.3515 24.2814 52.4109 24.3157 52.4564 24.3741C52.502 24.4323 52.5246 24.5242 52.5246 24.6498C52.5246 24.8086 52.4875 24.9615 52.4131 25.1082C52.3389 25.2549 52.2383 25.3865 52.1118 25.5032V25.5108C52.2571 25.441 52.3927 25.4379 52.493 25.5022C52.5407 25.5334 52.5779 25.5806 52.6045 25.6435C52.6311 25.7061 52.6444 25.7824 52.6444 25.8722C52.6444 26.0232 52.6173 26.1632 52.5629 26.2921C52.5094 26.4194 52.4362 26.5415 52.3498 26.6476C52.2623 26.7558 52.1634 26.8533 52.0536 26.9398C51.9437 27.0263 51.8345 27.1008 51.7257 27.1637L51.0233 27.5692V24.8478V24.8478ZM51.3029 25.8395L51.6891 25.6165C51.7556 25.5781 51.8206 25.5354 51.8838 25.4887C51.9471 25.4418 52.0043 25.3877 52.0552 25.3263C52.1063 25.2647 52.1474 25.1962 52.1784 25.1207C52.2095 25.0451 52.225 24.9598 52.225 24.8651C52.225 24.7805 52.2107 24.7202 52.1817 24.6844C52.1532 24.6487 52.1137 24.6286 52.0669 24.6258C52.0161 24.6232 51.9609 24.6336 51.9038 24.6566C51.8427 24.6803 51.7809 24.7102 51.719 24.7459L51.3029 24.9862V25.8395V25.8395ZM51.3029 27.1079L51.7756 26.835C51.8445 26.7952 51.9128 26.7474 51.9803 26.6918C52.0448 26.6394 52.1066 26.5765 52.1634 26.5054C52.2167 26.4387 52.2618 26.3626 52.2949 26.2834C52.3282 26.2039 52.3448 26.1207 52.3448 26.0336C52.3448 25.9387 52.3289 25.8685 52.2966 25.8232C52.2658 25.7786 52.2224 25.7509 52.1701 25.7424C52.118 25.7341 52.0581 25.7418 51.9903 25.7655C51.9218 25.7896 51.8521 25.8221 51.7823 25.8625L51.3029 26.1393V27.1079V27.1079ZM53.0684 23.4826L53.328 23.3327V26.2386L53.0684 26.3885V23.4826ZM53.7253 25.1097C53.7253 24.9687 53.7464 24.8285 53.7885 24.6889C53.8307 24.5492 53.8884 24.4165 53.9616 24.291C54.0349 24.1653 54.1226 24.0501 54.2246 23.9451C54.3266 23.8401 54.4377 23.7529 54.5575 23.6837C54.6773 23.6145 54.7883 23.5735 54.8904 23.5607C54.9924 23.5479 55.0801 23.5619 55.1534 23.603C55.2266 23.6439 55.2843 23.7099 55.3264 23.8009C55.3686 23.8919 55.3897 24.0077 55.3897 24.1488C55.3897 24.2897 55.3686 24.4301 55.3264 24.5697C55.2843 24.7093 55.2266 24.8418 55.1534 24.9675C55.0801 25.093 54.9924 25.2084 54.8904 25.3135C54.7883 25.4185 54.6773 25.5057 54.5575 25.5748C54.4377 25.644 54.3266 25.6851 54.2246 25.6978C54.1264 25.7113 54.0369 25.6969 53.9616 25.6556C53.8874 25.6134 53.8285 25.5461 53.7885 25.4576C53.7464 25.3666 53.7253 25.2506 53.7253 25.1097V25.1097ZM54.0049 24.9483C54.0049 25.0431 54.0177 25.1235 54.0432 25.1895C54.0687 25.2555 54.1059 25.3043 54.1547 25.3365C54.2035 25.3685 54.2617 25.3824 54.3295 25.3779C54.3972 25.3733 54.4731 25.3468 54.5575 25.2981C54.6419 25.2494 54.7178 25.1883 54.7855 25.1146C54.8533 25.0408 54.9115 24.9597 54.9603 24.8714C55.009 24.7829 55.0463 24.6911 55.0718 24.5956C55.0973 24.5002 55.1101 24.405 55.1101 24.3102C55.1101 24.2153 55.0973 24.1351 55.0718 24.069C55.0475 24.0046 55.0095 23.9546 54.9603 23.922C54.911 23.8899 54.8515 23.8758 54.7855 23.8807C54.7135 23.8867 54.6358 23.9139 54.5575 23.9605C54.4731 24.0092 54.3972 24.0703 54.3295 24.144C54.2617 24.2177 54.2035 24.2986 54.1547 24.3871C54.1059 24.4754 54.0687 24.5675 54.0432 24.6629C54.0177 24.7583 54.0049 24.8534 54.0049 24.9483V24.9483ZM56.8722 22.8432C56.8168 22.7983 56.7568 22.7772 56.6924 22.7798C56.6256 22.7831 56.5528 22.8074 56.4794 22.8509C56.3928 22.9008 56.3163 22.9623 56.2497 23.0354C56.1831 23.1084 56.1282 23.1882 56.0849 23.2746C56.0416 23.3611 56.0089 23.4512 55.9867 23.5447C55.9646 23.6382 55.9534 23.7311 55.9534 23.8233C55.9534 23.9156 55.9662 23.9947 55.9917 24.0607C56.0172 24.1267 56.0528 24.1773 56.0982 24.2125C56.1437 24.2478 56.1986 24.2641 56.263 24.2615C56.3274 24.2589 56.3995 24.2346 56.4794 24.1885C56.6503 24.0898 56.7823 23.9392 56.8755 23.7369L57.0686 23.8368C56.9932 23.9803 56.9043 24.1046 56.8023 24.2096C56.7002 24.3147 56.5926 24.3999 56.4794 24.4652C56.3595 24.5344 56.2497 24.5748 56.1498 24.5863C56.05 24.5979 55.9651 24.5815 55.8952 24.5373C55.8253 24.4931 55.7708 24.4246 55.7321 24.3317C55.6933 24.2388 55.6738 24.1232 55.6738 23.9848C55.6738 23.8489 55.6933 23.7122 55.7321 23.5745C55.7708 23.4368 55.8258 23.3051 55.8968 23.1795C55.969 23.0523 56.0557 22.9349 56.1515 22.8345C56.2556 22.7258 56.3671 22.6373 56.4794 22.5741C56.5947 22.5075 56.7041 22.4674 56.8073 22.454C56.9109 22.4406 57.0038 22.4607 57.0786 22.5126L56.8722 22.8432V22.8432ZM57.3394 21.0167L57.599 20.8668V22.7656L58.3081 21.5645L58.6775 21.3511L57.9252 22.6042L58.7541 23.1058L58.3713 23.3268L57.599 22.8271V23.7727L57.3394 23.9226V21.0167Z" fill="white"/>
<path fill-rule="evenodd" clip-rule="evenodd" d="M41.1382 29.3148L39.9594 31.3567C39.9252 31.416 39.8981 31.4785 39.8796 31.5408C39.8611 31.6031 39.8515 31.6639 39.8516 31.7198V33.6451C39.8516 33.7578 39.8904 33.8436 39.9594 33.8834L41.1382 34.5642C41.2074 34.6039 41.3009 34.5948 41.3987 34.5384L43.0661 33.5757C43.1637 33.5193 43.2574 33.4203 43.3266 33.3007L44.5054 31.2588C44.5744 31.1393 44.6133 31.0087 44.6133 30.8959V28.9706C44.6133 28.8577 44.5744 28.7721 44.5054 28.7321L43.3266 28.0514C43.2924 28.0316 43.2518 28.0237 43.2071 28.0281C43.1624 28.0326 43.1145 28.0492 43.0661 28.0772L41.3987 29.0399C41.3011 29.0962 41.2074 29.1952 41.1382 29.3148Z" fill="white"/>
<path fill-rule="evenodd" clip-rule="evenodd" d="M42.1758 33.3334C42.9647 32.8779 43.1518 31.9343 43.1518 31.9343L43.6046 30.1707C43.6046 30.1707 43.6455 29.9912 43.638 29.9938C43.2163 30.1463 43.1267 30.5413 43.1267 30.5413C43.1267 30.5413 42.9647 31.1207 42.9395 31.1352C42.9144 31.1497 42.9114 31.1154 42.9114 31.1154V29.3695C42.9114 29.3695 42.9192 29.1397 42.719 29.2553C42.5186 29.371 42.5288 29.5907 42.5288 29.5907L42.5291 30.8805C42.5291 30.8805 42.5319 30.9308 42.4943 30.9524C42.4609 30.9717 42.4627 30.9206 42.4627 30.9206V29.3665C42.4627 29.3665 42.4752 29.1053 42.2726 29.2223C42.0701 29.3392 42.0809 29.5887 42.0809 29.5887L42.0791 31.1229C42.0791 31.1229 42.0817 31.1686 42.0482 31.1879C42.0172 31.2058 42.0182 31.1586 42.0182 31.1586V29.8729C42.0182 29.8729 42.0295 29.6048 41.8233 29.7239C41.6206 29.8409 41.6315 30.1011 41.6315 30.1011L41.6297 31.4595C41.6297 31.4595 41.6334 31.4968 41.6015 31.5152C41.5678 31.5347 41.5685 31.4948 41.5685 31.4948L41.567 30.6749C41.567 30.6749 41.5688 30.447 41.3986 30.5453C41.2175 30.6498 41.2208 30.8748 41.2208 30.8748V32.6463C41.222 32.6453 41.175 33.9111 42.1758 33.3332V33.3334Z" fill="#03BCFC"/>
<path d="M71.3214 22.2383L53.1532 32.7277C52.563 33.0685 52.0845 33.6889 52.0845 34.1135V35.651C52.0845 36.0756 52.563 36.1435 53.1532 35.8027L71.3214 25.3133C71.9117 24.9725 72.3901 24.3521 72.3901 23.9275V22.39C72.3901 21.9654 71.9117 21.8975 71.3214 22.2383Z" fill="white"/>
<path d="M58.9922 47.5184L43.1804 56.6474C42.8127 56.8596 42.5146 57.462 42.5146 57.9927C42.5146 58.5234 42.8127 58.7815 43.1804 58.5692L58.9922 49.4403C59.3599 49.228 59.658 48.6257 59.658 48.095C59.658 47.5643 59.3599 47.3061 58.9922 47.5184Z" fill="white"/>
<path d="M68.4357 60.324L43.0575 74.9761C42.7577 75.1492 42.5146 75.6337 42.5146 76.0583C42.5146 76.4829 42.7577 76.6867 43.0575 76.5136L68.4357 61.8615C68.7355 61.6884 68.9786 61.2039 68.9786 60.7793C68.9786 60.3548 68.7355 60.1509 68.4357 60.324Z" fill="white"/>
<path d="M74.3047 60.2032L43.1804 78.1728C42.8127 78.385 42.5146 78.9013 42.5146 79.3259C42.5146 79.7504 42.8127 79.9225 43.1804 79.7103L74.3047 61.7407C74.6724 61.5284 74.9704 61.0121 74.9704 60.5875C74.9704 60.163 74.6724 59.9909 74.3047 60.2032Z" fill="white"/>
<path d="M44.3455 49.6329L43.1804 50.3056C42.8127 50.5179 42.5146 51.0341 42.5146 51.4587C42.5146 51.8833 42.8127 52.0554 43.1804 51.8431L44.3455 51.1704C44.7132 50.9581 45.0112 50.4419 45.0112 50.0173C45.0112 49.5927 44.7132 49.4206 44.3455 49.6329Z" fill="white"/>
<path d="M74.3048 32.3355L68.9787 35.4105C68.6111 35.6228 68.313 36.1391 68.313 36.5637C68.313 36.9882 68.6111 37.1603 68.9787 36.948L74.3048 33.873C74.6725 33.6607 74.9706 33.1445 74.9706 32.7199C74.9706 32.2953 74.6725 32.1232 74.3048 32.3355Z" fill="white"/>
<path d="M57.1614 42.2334L47.0085 48.0951C46.6408 48.3074 46.3428 48.8237 46.3428 49.2482C46.3428 49.6728 46.6408 49.8449 47.0085 49.6326L57.1614 43.7709C57.5291 43.5586 57.8271 43.0423 57.8271 42.6178C57.8271 42.1932 57.5291 42.0211 57.1614 42.2334Z" fill="white"/>
<path d="M55.2147 40.4742L43.2962 47.3554C42.8646 47.6046 42.5146 48.1508 42.5146 48.5754C42.5146 49 42.8646 49.1421 43.2962 48.8929L55.2147 42.0118C55.6464 41.7625 55.9963 41.2163 55.9963 40.7918C55.9963 40.3672 55.6464 40.225 55.2147 40.4742Z" fill="white"/>
<path d="M81.7948 28.0115L76.968 30.7982C76.6003 31.0105 76.3022 31.5268 76.3022 31.9514C76.3022 32.3759 76.6003 32.548 76.968 32.3357L81.7948 29.549C82.1624 29.3367 82.4605 28.8205 82.4605 28.3959C82.4605 27.9713 82.1624 27.7992 81.7948 28.0115Z" fill="white"/>
<path d="M42.4312 63.4043C42.4312 62.2997 43.2066 60.9566 44.1632 60.4043L60.0061 51.2574C60.9627 50.7051 61.7382 51.1528 61.7382 52.2574V55.1762C61.7382 56.2807 60.9627 57.6239 60.0061 58.1761L44.1632 67.3231C43.2066 67.8754 42.4312 67.4276 42.4312 66.3231V63.4043Z" fill="#2284F7"/>
<path d="M63.0698 51.4883C63.0698 50.3837 63.8453 49.0406 64.8019 48.4883L80.6448 39.3414C81.6014 38.7891 82.3769 39.2368 82.3769 40.3414V43.2602C82.3769 44.3647 81.6014 45.7079 80.6448 46.2601L64.8019 55.4071C63.8453 55.9593 63.0698 55.5116 63.0698 54.4071V51.4883Z" fill="#2284F7"/>
<path d="M65.087 14.8496C65.109 14.8369 65.1275 14.8449 65.1301 14.8676L65.164 15.1176C65.2175 15.1121 65.2664 15.1176 65.312 15.1318L65.531 14.9038C65.5503 14.8846 65.5745 14.878 65.5851 14.894L65.7611 15.144C65.7716 15.1603 65.7668 15.1909 65.7501 15.2158L65.5648 15.4897C65.5684 15.5201 65.5707 15.5515 65.5708 15.5859C65.5708 15.6203 65.5684 15.6545 65.5648 15.6889L65.7501 15.75C65.7667 15.7555 65.7713 15.7799 65.7611 15.8081L65.5851 16.2612C65.5746 16.2896 65.5512 16.3124 65.531 16.3149L65.312 16.3398C65.2664 16.4056 65.2175 16.4686 65.164 16.5249L65.1301 16.8139C65.1274 16.8397 65.1089 16.8682 65.087 16.8808L64.7352 17.084C64.7133 17.0965 64.6948 17.0895 64.6921 17.0669L64.6591 16.8164C64.6054 16.822 64.556 16.8169 64.5102 16.8027L64.2912 17.0307C64.2718 17.05 64.2476 17.0558 64.2371 17.0395L64.0611 16.7895C64.0509 16.7732 64.0556 16.7434 64.0721 16.7187L64.2574 16.4438C64.2539 16.4134 64.2514 16.381 64.2514 16.3476C64.2515 16.3142 64.2538 16.279 64.2574 16.2446L64.0721 16.1845C64.0554 16.179 64.0497 16.1544 64.0611 16.1255L64.2371 15.6723C64.2476 15.644 64.271 15.6221 64.2912 15.6196L64.5102 15.5947C64.556 15.5287 64.6054 15.4655 64.6591 15.4092L64.6921 15.1206C64.6947 15.0947 64.7133 15.0654 64.7352 15.0527L65.087 14.8496ZM64.9111 15.6113C64.7415 15.7093 64.6034 15.9486 64.6033 16.1445C64.6033 16.3405 64.7414 16.4202 64.9111 16.3222C65.0808 16.2242 65.2189 15.985 65.2189 15.789C65.2188 15.5932 65.0808 15.5133 64.9111 15.6113Z" fill="#81DEFE"/>
<path d="M62.0084 16.5972C62.105 16.5414 62.1841 16.5873 62.1843 16.6987V18.1206C62.1843 18.2323 62.1051 18.3694 62.0084 18.4253L61.6565 18.6284L61.4544 18.9775C61.4201 19.037 61.3644 19.0691 61.3301 19.0493L61.1288 18.9331L60.777 19.1362C60.6803 19.1919 60.6011 19.1463 60.6011 19.0347V17.6128C60.6013 17.5012 60.6796 17.3645 60.777 17.3081L62.0084 16.5972ZM61.3047 18.6284L61.4806 18.5269V18.3237L61.3047 18.4253V18.6284ZM61.3927 17.1558C61.2327 17.2482 61.0983 17.4492 61.0552 17.6426C61.0413 17.7074 61.0762 17.7437 61.1271 17.7144L61.1533 17.6992C61.1876 17.6794 61.2155 17.6364 61.2269 17.5923C61.2506 17.4994 61.3162 17.4031 61.3927 17.3589C61.4893 17.3031 61.5684 17.349 61.5686 17.4604C61.5686 17.5163 61.5495 17.5785 61.5178 17.6333L61.4087 17.8242C61.3551 17.9181 61.3178 18.0217 61.3081 18.1196C61.3019 18.176 61.3376 18.2022 61.3834 18.1758L61.4104 18.1602C61.4491 18.1378 61.4796 18.0868 61.4849 18.04C61.4963 17.936 61.5328 17.8632 61.5838 17.7739L61.6625 17.6348C61.7126 17.5479 61.7445 17.4483 61.7445 17.3589C61.7443 17.1347 61.587 17.0436 61.3927 17.1558Z" fill="#81DEFE"/>
<path d="M91.5412 6.35499L43.4773 34.95C42.93 35.2756 42.4863 36.0558 42.4863 36.6927V95.6945C42.4863 96.3313 42.93 96.5836 43.4773 96.258L91.5412 67.663C92.0885 67.3374 92.5322 66.5572 92.5322 65.9203V6.91854C92.5322 6.28168 92.0885 6.02937 91.5412 6.35499Z" fill="#FF9C00" stroke="#E38C03" stroke-width="0.249999"/>
<path fill-rule="evenodd" clip-rule="evenodd" d="M45.1289 44.1538L90.0545 17.4259V64.1276L45.1289 90.8556V44.1538Z" fill="#FFAE00"/>
<path d="M47.9482 50.7407L87.5885 27.1572" stroke="#FFD270" stroke-width="0.499997" stroke-linecap="square"/>
<path d="M47.9487 78.2231L87.589 54.6397" stroke="#FFD270" stroke-width="0.499997" stroke-linecap="square"/>
<path d="M52.6161 33.2809L52.9761 33.0666L53.9837 35.1886L53.508 35.4716L53.29 34.9786L52.2758 35.582L52.0644 36.3304L51.5986 36.6075L52.6161 33.2809V33.2809ZM53.1446 34.65L52.7845 33.7572L52.4179 35.0823L53.1446 34.65ZM55.435 34.0484L55.4284 34.0523C55.3754 34.1921 55.2945 34.3263 55.1971 34.4359C55.1002 34.5447 54.9956 34.6327 54.8833 34.6995C54.7599 34.7729 54.6504 34.8131 54.5546 34.8201C54.4612 34.8277 54.3774 34.8075 54.3085 34.7609C54.2393 34.713 54.1864 34.6398 54.1533 34.5457C54.1174 34.4446 54.0995 34.3266 54.1004 34.1966C54.1004 34.0608 54.1191 33.9228 54.1566 33.7827C54.1916 33.6487 54.2449 33.5126 54.3135 33.3818C54.3806 33.2547 54.4615 33.1381 54.5563 33.0317C54.6509 32.9255 54.7545 32.8389 54.8668 32.7721C54.9416 32.7275 55.0077 32.6971 55.065 32.681C55.1222 32.6649 55.1729 32.6578 55.217 32.6598C55.2609 32.6617 55.2984 32.6696 55.3293 32.6833C55.36 32.697 55.3854 32.7133 55.4053 32.7323L55.4152 32.7264V31.4311L55.8116 31.1952V34.1011L55.435 34.3252V34.0484V34.0484ZM54.4968 33.9608C54.4968 34.0325 54.5072 34.0955 54.5282 34.1497C54.549 34.2038 54.5799 34.2444 54.6207 34.2715C54.6613 34.2984 54.7104 34.3104 54.7677 34.307C54.8249 34.3038 54.8899 34.2804 54.9626 34.2372C55.0353 34.194 55.1002 34.14 55.1575 34.0751C55.213 34.0128 55.263 33.9413 55.3045 33.8647C55.3452 33.7893 55.3766 33.7105 55.397 33.6328C55.4178 33.5537 55.4284 33.4783 55.4284 33.4066C55.4284 33.3347 55.4178 33.2718 55.397 33.2177C55.3766 33.1643 55.3452 33.1228 55.3045 33.0959C55.263 33.0687 55.213 33.0566 55.1575 33.0604C55.1002 33.0637 55.0353 33.087 54.9626 33.1302C54.8899 33.1734 54.8249 33.2275 54.7677 33.2923C54.7122 33.3546 54.6622 33.4261 54.6207 33.5027C54.58 33.5781 54.5486 33.6569 54.5282 33.7346C54.5072 33.8135 54.4968 33.8889 54.4968 33.9608ZM56.2982 31.0902L57.0117 30.6657C57.1086 30.6081 57.2033 30.5633 57.2958 30.5313C57.3883 30.4994 57.4708 30.4879 57.5435 30.4973C57.6162 30.5065 57.6752 30.5401 57.7202 30.5978C57.7655 30.6554 57.788 30.747 57.788 30.8727C57.788 31.0315 57.7511 31.1848 57.6773 31.3325C57.6036 31.4801 57.5039 31.6131 57.3783 31.7314V31.7391C57.5225 31.6674 57.6571 31.6625 57.7566 31.7255C57.804 31.7561 57.8408 31.8028 57.8672 31.8653C57.8937 31.9276 57.9069 32.0037 57.9069 32.0935C57.9069 32.2445 57.88 32.3849 57.826 32.5145C57.7729 32.6425 57.7003 32.7655 57.6145 32.8728C57.5277 32.9821 57.4295 33.0809 57.3205 33.1688C57.2115 33.2567 57.1032 33.3327 56.9952 33.397L56.2982 33.8116V31.0902V31.0902ZM56.5756 32.0783L56.9588 31.8503C57.0249 31.811 57.0893 31.7675 57.1521 31.72C57.2148 31.6723 57.2716 31.6173 57.3222 31.5553C57.3729 31.4931 57.4137 31.424 57.4444 31.3481C57.4753 31.2721 57.4907 31.1866 57.4907 31.0919C57.4907 31.0073 57.4765 30.9471 57.4477 30.9118C57.4194 30.8764 57.3802 30.8568 57.3338 30.8547C57.2834 30.8527 57.2286 30.8638 57.1719 30.8875C57.1113 30.9121 57.05 30.9427 56.9886 30.9793L56.5756 31.225V32.0783V32.0783ZM56.5756 33.3467L57.0447 33.0677C57.1131 33.027 57.1808 32.9782 57.2479 32.9218C57.3118 32.8686 57.3732 32.8048 57.4296 32.733C57.4824 32.6656 57.5271 32.5889 57.56 32.5093C57.5931 32.4293 57.6096 32.3459 57.6096 32.2588C57.6096 32.1639 57.5937 32.0939 57.5617 32.049C57.5312 32.0048 57.4881 31.9777 57.4362 31.9699C57.3845 31.9622 57.325 31.9707 57.2578 31.9953C57.1898 32.0203 57.1206 32.0537 57.0513 32.0951L56.5756 32.3781V33.3467V33.3467ZM58.3276 29.6984L58.5852 29.5451V32.451L58.3276 32.6043V29.6984ZM58.9795 31.317C58.9795 31.1759 59.0005 31.0354 59.0422 30.8952C59.084 30.7551 59.1413 30.6216 59.214 30.4952C59.2867 30.3685 59.3737 30.2522 59.475 30.1458C59.5762 30.0394 59.6864 29.9508 59.8053 29.8801C59.9242 29.8093 60.0344 29.7668 60.1357 29.7527C60.2369 29.7386 60.3239 29.7514 60.3966 29.7916C60.4693 29.8316 60.5266 29.8968 60.5684 29.9873C60.6102 30.0777 60.6312 30.1933 60.6312 30.3343C60.6312 30.4752 60.6102 30.6159 60.5684 30.756C60.5266 30.8962 60.4693 31.0295 60.3966 31.1561C60.3239 31.2826 60.2369 31.3991 60.1357 31.5055C60.0344 31.6118 59.9242 31.7005 59.8053 31.7712C59.6864 31.842 59.5762 31.8844 59.475 31.8985C59.3775 31.9133 59.2887 31.9 59.214 31.8597C59.1403 31.8185 59.0819 31.752 59.0422 31.664C59.0005 31.5735 58.9795 31.4578 58.9795 31.317V31.317ZM59.257 31.1519C59.257 31.2466 59.2697 31.3269 59.295 31.3926C59.3202 31.4583 59.3572 31.5066 59.4056 31.5381C59.454 31.5695 59.5118 31.5826 59.579 31.5772C59.6463 31.5718 59.7216 31.5443 59.8053 31.4945C59.8891 31.4446 59.9644 31.3825 60.0316 31.3079C60.0988 31.2334 60.1566 31.1515 60.205 31.0625C60.2534 30.9734 60.2904 30.8811 60.3157 30.7853C60.341 30.6895 60.3537 30.5941 60.3537 30.4994C60.3537 30.4045 60.341 30.3244 60.3157 30.2587C60.2915 30.1946 60.2539 30.1451 60.205 30.1131C60.1561 30.0816 60.0971 30.0684 60.0316 30.0741C59.9601 30.081 59.883 30.1092 59.8053 30.1568C59.7216 30.2066 59.6463 30.2687 59.579 30.3433C59.5118 30.4179 59.454 30.4996 59.4056 30.5887C59.3572 30.6777 59.3202 30.7702 59.295 30.866C59.2697 30.9617 59.257 31.0569 59.257 31.1519V31.1519ZM62.1023 29.0094C62.0473 28.9652 61.9879 28.9448 61.9239 28.9483C61.8576 28.9525 61.7854 28.9778 61.7125 29.0222C61.6266 29.0733 61.5507 29.1358 61.4846 29.2097C61.4185 29.2836 61.364 29.364 61.3211 29.4511C61.2781 29.5381 61.2456 29.6286 61.2236 29.7224C61.2017 29.8162 61.1906 29.9092 61.1906 30.0015C61.1906 30.0937 61.2033 30.1727 61.2286 30.2383C61.2538 30.304 61.2892 30.3541 61.3343 30.3888C61.3794 30.4235 61.4339 30.4391 61.4978 30.4356C61.5617 30.4322 61.6332 30.407 61.7125 30.3598C61.8821 30.2589 62.0131 30.1066 62.1056 29.903L62.2972 30.0004C62.2224 30.1449 62.1342 30.2704 62.0329 30.3767C61.9317 30.4831 61.8248 30.5697 61.7125 30.6365C61.5936 30.7073 61.4846 30.7491 61.3855 30.7619C61.2864 30.7748 61.2021 30.7595 61.1328 30.7162C61.0634 30.6729 61.0094 30.6051 60.9709 30.5127C60.9324 30.4203 60.9131 30.305 60.9131 30.1666C60.9131 30.0307 60.9324 29.8937 60.9709 29.7555C61.0094 29.6173 61.0639 29.4849 61.1344 29.3584C61.2061 29.2303 61.2921 29.1117 61.3871 29.0101C61.4905 28.9 61.6011 28.8101 61.7125 28.7454C61.827 28.6773 61.9355 28.6358 62.0379 28.621C62.1408 28.6063 62.2329 28.6252 62.3071 28.6761L62.1023 29.0094V29.0094ZM62.5659 27.1768L62.8236 27.0235V28.9223L63.5272 27.7119L63.8939 27.4938L63.1473 28.7566L63.9699 29.2474L63.59 29.4734L62.8236 28.9838V29.9294L62.5659 30.0827V27.1768Z" fill="white"/>
<path fill-rule="evenodd" clip-rule="evenodd" d="M46.4887 35.6857L45.319 37.743C45.285 37.8027 45.2581 37.8656 45.2397 37.9281C45.2213 37.9907 45.2119 38.0516 45.2119 38.1075V40.0328C45.2119 40.1455 45.2505 40.2308 45.319 40.2697L46.4887 40.9351C46.5574 40.974 46.6502 40.9636 46.7472 40.9059L48.4019 39.9215C48.4988 39.8638 48.5918 39.7636 48.6604 39.6431L49.8302 37.5859C49.8986 37.4654 49.9372 37.3343 49.9372 37.2215V35.2962C49.9372 35.1833 49.8986 35.0982 49.8302 35.0591L48.6604 34.3937C48.6264 34.3744 48.5861 34.3671 48.5418 34.3721C48.4974 34.3771 48.4499 34.3944 48.4019 34.423L46.7472 35.4074C46.6504 35.465 46.5574 35.5652 46.4887 35.6857Z" fill="white"/>
<path fill-rule="evenodd" clip-rule="evenodd" d="M47.5181 39.6911C48.301 39.2253 48.4867 38.2793 48.4867 38.2793L48.936 36.5097C48.936 36.5097 48.9766 36.3297 48.9691 36.3324C48.5507 36.4904 48.4617 36.8865 48.4617 36.8865C48.4617 36.8865 48.301 37.468 48.276 37.4829C48.251 37.4977 48.2481 37.4635 48.2481 37.4635V35.7176C48.2481 35.7176 48.2558 35.4876 48.0571 35.6058C47.8583 35.7242 47.8684 35.9437 47.8684 35.9437L47.8687 37.2336C47.8687 37.2336 47.8714 37.2838 47.8342 37.3059C47.801 37.3257 47.8028 37.2745 47.8028 37.2745V35.7204C47.8028 35.7204 47.8152 35.4591 47.6141 35.5787C47.4132 35.6982 47.424 35.9476 47.424 35.9476L47.4222 37.4818C47.4222 37.4818 47.4247 37.5275 47.3915 37.5472C47.3607 37.5656 47.3618 37.5183 47.3618 37.5183V36.2327C47.3618 36.2327 47.373 35.9643 47.1683 36.0861C46.9672 36.2058 46.978 36.4659 46.978 36.4659L46.9762 37.8243C46.9762 37.8243 46.9799 37.8615 46.9482 37.8804C46.9147 37.9003 46.9155 37.8604 46.9155 37.8604L46.914 37.0405C46.914 37.0405 46.9158 36.8125 46.7468 36.9131C46.5671 37.02 46.5704 37.2449 46.5704 37.2449V39.0164C46.5716 39.0154 46.5249 40.2818 47.5181 39.6909V39.6911Z" fill="#FFAE00"/>
<path d="M76.4415 28.2154L58.4121 38.9418C57.8264 39.2903 57.3516 39.9169 57.3516 40.3415V41.879C57.3516 42.3036 57.8264 42.3653 58.4121 42.0168L76.4415 31.2905C77.0272 30.942 77.502 30.3153 77.502 29.8907V28.3532C77.502 27.9287 77.0272 27.867 76.4415 28.2154Z" fill="white"/>
<path d="M64.2061 53.6566L48.5152 62.9917C48.1503 63.2088 47.8545 63.815 47.8545 64.3457C47.8545 64.8764 48.1503 65.1307 48.5152 64.9136L64.2061 55.5785C64.571 55.3614 64.8668 54.7552 64.8668 54.2245C64.8668 53.6937 64.571 53.4395 64.2061 53.6566Z" fill="white"/>
<path d="M73.5775 66.339L48.3932 81.3221C48.0957 81.4991 47.8545 81.9868 47.8545 82.4113C47.8545 82.8359 48.0957 83.0366 48.3932 82.8596L73.5775 67.8765C73.875 67.6995 74.1162 67.2119 74.1162 66.7873C74.1162 66.3627 73.875 66.162 73.5775 66.339Z" fill="white"/>
<path d="M79.4015 66.1411L48.5152 84.5166C48.1503 84.7337 47.8545 85.2538 47.8545 85.6784C47.8545 86.103 48.1503 86.2712 48.5152 86.0541L79.4015 67.6786C79.7664 67.4616 80.0622 66.9414 80.0622 66.5168C80.0622 66.0923 79.7664 65.9241 79.4015 66.1411Z" fill="white"/>
<path d="M49.6713 55.9616L48.5152 56.6494C48.1503 56.8665 47.8545 57.3867 47.8545 57.8112C47.8545 58.2358 48.1503 58.404 48.5152 58.1869L49.6713 57.4991C50.0362 57.282 50.332 56.7618 50.332 56.3373C50.332 55.9127 50.0362 55.7445 49.6713 55.9616Z" fill="white"/>
<path d="M79.4016 38.274L74.1162 41.4185C73.7514 41.6355 73.4556 42.1557 73.4556 42.5803C73.4556 43.0049 73.7514 43.1731 74.1162 42.956L79.4016 39.8115C79.7665 39.5944 80.0623 39.0743 80.0623 38.6497C80.0623 38.2251 79.7665 38.0569 79.4016 38.274Z" fill="white"/>
<path d="M62.3897 48.395L52.3145 54.3892C51.9496 54.6062 51.6538 55.1264 51.6538 55.551C51.6538 55.9755 51.9496 56.1438 52.3145 55.9267L62.3897 49.9325C62.7546 49.7155 63.0504 49.1953 63.0504 48.7707C63.0504 48.3462 62.7546 48.178 62.3897 48.395Z" fill="white"/>
<path d="M60.4575 46.6617L48.6301 53.6983C48.2017 53.9531 47.8545 54.5039 47.8545 54.9284C47.8545 55.353 48.2017 55.4906 48.6301 55.2358L60.4575 48.1992C60.8858 47.9443 61.2331 47.3936 61.2331 46.969C61.2331 46.5444 60.8858 46.4068 60.4575 46.6617Z" fill="white"/>
<path d="M86.8343 33.852L82.0445 36.7017C81.6796 36.9187 81.3838 37.4389 81.3838 37.8635C81.3838 38.2881 81.6796 38.4563 82.0445 38.2392L86.8343 35.3895C87.1992 35.1724 87.495 34.6523 87.495 34.2277C87.495 33.8031 87.1992 33.6349 86.8343 33.852Z" fill="white"/>
<path d="M47.772 69.7578C47.772 68.6532 48.5415 67.3 49.4908 66.7352L65.2126 57.3817C66.1619 56.817 66.9314 57.2546 66.9314 58.3591V61.2779C66.9314 62.3825 66.1619 63.7357 65.2126 64.3005L49.4908 73.654C48.5415 74.2188 47.772 73.7812 47.772 72.6766V69.7578Z" fill="#FF9C00"/>
<path d="M68.2529 57.5732C68.2529 56.4687 69.0225 55.1154 69.9717 54.5507L85.6936 45.1971C86.6429 44.6324 87.4124 45.07 87.4124 46.1745V49.0933C87.4124 50.1979 86.6429 51.5512 85.6936 52.1159L69.9717 61.4694C69.0225 62.0342 68.2529 61.5966 68.2529 60.492V57.5732Z" fill="#FF9C00"/>
<path d="M70.7016 20.9288C70.7234 20.9158 70.7417 20.9235 70.7444 20.9463L70.778 21.1958C70.831 21.1896 70.8796 21.1945 70.9248 21.2081L71.1422 20.9772C71.1613 20.9577 71.1854 20.9508 71.1959 20.9667L71.3705 21.2144C71.381 21.2305 71.3762 21.2612 71.3596 21.2863L71.1758 21.5627C71.1792 21.593 71.1816 21.6244 71.1816 21.6588C71.1816 21.6932 71.1792 21.7274 71.1758 21.7619L71.3596 21.8205C71.3762 21.8259 71.381 21.8509 71.3705 21.8794L71.1959 22.3339C71.1854 22.3625 71.1623 22.3855 71.1422 22.3883L70.9248 22.4161C70.8796 22.4825 70.831 22.5461 70.778 22.6031L70.7444 22.8926C70.7417 22.9184 70.7233 22.9471 70.7016 22.96L70.3525 23.1677C70.3307 23.1806 70.3123 23.1738 70.3096 23.1512L70.2769 22.9011C70.2237 22.9074 70.1746 22.903 70.1292 22.8894L69.9118 23.1203C69.8926 23.1398 69.8694 23.1454 69.859 23.1293L69.6844 22.8826C69.6739 22.8664 69.6779 22.8362 69.6945 22.8111L69.8783 22.5338C69.8748 22.5035 69.8724 22.4711 69.8724 22.4377C69.8724 22.4043 69.8748 22.369 69.8783 22.3346L69.6945 22.277C69.6779 22.2716 69.673 22.2466 69.6844 22.2175L69.859 21.7621C69.8696 21.7339 69.8919 21.7119 69.9118 21.7092L70.1292 21.6814C70.1746 21.6148 70.2237 21.551 70.2769 21.4939L70.3096 21.2049C70.3123 21.179 70.3307 21.1495 70.3525 21.1365L70.7016 20.9288ZM70.527 21.6928C70.3587 21.793 70.2217 22.0341 70.2215 22.23C70.2215 22.426 70.3586 22.5038 70.527 22.4037C70.6955 22.3035 70.8325 22.0625 70.8325 21.8665C70.8323 21.6707 70.6954 21.5926 70.527 21.6928Z" fill="#FFD780"/>
<path d="M67.646 22.7165C67.7419 22.6595 67.8204 22.7043 67.8206 22.8158V24.2377C67.8206 24.3494 67.7421 24.4875 67.646 24.5446L67.2969 24.7523L67.0963 25.1051C67.0623 25.1647 67.0069 25.1978 66.973 25.1785L66.7732 25.0639L66.4241 25.2716C66.3282 25.3285 66.2495 25.284 66.2495 25.1724V23.7505C66.2497 23.6389 66.3274 23.5012 66.4241 23.4435L67.646 22.7165ZM66.9478 24.7579L67.1223 24.6541V24.4509L66.9478 24.5548V24.7579ZM67.0351 23.2831C66.8763 23.3777 66.7429 23.5804 66.7002 23.7744C66.6863 23.8394 66.721 23.8751 66.7715 23.8452L66.7976 23.8297C66.8316 23.8095 66.8592 23.7661 66.8706 23.7218C66.8941 23.6287 66.9592 23.5315 67.0351 23.4863C67.131 23.4292 67.2095 23.4741 67.2096 23.5855C67.2096 23.6414 67.1907 23.7038 67.1593 23.759L67.051 23.9514C66.9978 24.0459 66.9608 24.1501 66.9511 24.2481C66.945 24.3046 66.9804 24.3303 67.0258 24.3033L67.0527 24.2873C67.0911 24.2644 67.1213 24.213 67.1265 24.1662C67.1379 24.0621 67.1742 23.9888 67.2247 23.8988L67.3036 23.7581C67.3532 23.6708 67.3842 23.5708 67.3842 23.4817C67.384 23.2575 67.2279 23.1684 67.0351 23.2831Z" fill="#FFD780"/>
<path d="M96.923 13.0962L48.8592 41.6912C48.3119 42.0168 47.8682 42.797 47.8682 43.4339V102.436C47.8682 103.073 48.3119 103.325 48.8592 102.999L96.923 74.4043C97.4703 74.0786 97.914 73.2984 97.914 72.6615V13.6597C97.914 13.0229 97.4703 12.7706 96.923 13.0962Z" fill="#CE0707" stroke="#AC0202" stroke-width="0.249999"/>
<path fill-rule="evenodd" clip-rule="evenodd" d="M50.5103 50.895L95.4359 24.1671V70.8688L50.5103 97.5968V50.895Z" fill="#E40D0D"/>
<path d="M53.3291 57.4819L92.9694 33.8985" stroke="#F18686" stroke-width="0.499997" stroke-linecap="square"/>
<path d="M53.3291 84.9644L92.9694 61.3809" stroke="#F18686" stroke-width="0.499997" stroke-linecap="square"/>
<path d="M57.9974 40.0221L58.3575 39.8078L59.365 41.9298L58.8893 42.2128L58.6713 41.7198L57.6572 42.3232L57.4458 43.0717L56.98 43.3488L57.9974 40.0221V40.0221ZM58.526 41.3912L58.1659 40.4984L57.7992 41.8236L58.526 41.3912ZM60.8163 40.7896L60.8097 40.7935C60.7567 40.9333 60.6758 41.0675 60.5785 41.1771C60.4815 41.2859 60.377 41.3739 60.2647 41.4407C60.1413 41.5141 60.0318 41.5543 59.936 41.5613C59.8426 41.5689 59.7588 41.5487 59.6899 41.5021C59.6206 41.4542 59.5678 41.381 59.5346 41.2869C59.4987 41.1858 59.4809 41.0678 59.4818 40.9378C59.4818 40.802 59.5004 40.664 59.5379 40.5239C59.573 40.3899 59.6262 40.2538 59.6948 40.123C59.7619 39.9959 59.8428 39.8793 59.9376 39.773C60.0323 39.6667 60.1358 39.5801 60.2482 39.5133C60.323 39.4688 60.389 39.4383 60.4464 39.4223C60.5035 39.4061 60.5542 39.399 60.5983 39.401C60.6422 39.403 60.6797 39.4108 60.7106 39.4245C60.7413 39.4382 60.7668 39.4546 60.7866 39.4735L60.7965 39.4676V38.1723L61.1929 37.9364V40.8423L60.8163 41.0664V40.7896V40.7896ZM59.8782 40.702C59.8782 40.7737 59.8886 40.8367 59.9096 40.8909C59.9304 40.945 59.9613 40.9856 60.0021 41.0127C60.0427 41.0396 60.0917 41.0516 60.1491 41.0482C60.2062 41.045 60.2713 41.0216 60.344 40.9784C60.4166 40.9352 60.4815 40.8812 60.5388 40.8163C60.5944 40.754 60.6443 40.6825 60.6858 40.6059C60.7265 40.5305 60.758 40.4517 60.7783 40.374C60.7992 40.295 60.8097 40.2195 60.8097 40.1478C60.8097 40.0759 60.7992 40.013 60.7783 39.9589C60.758 39.9055 60.7265 39.8641 60.6858 39.8371C60.6443 39.8099 60.5944 39.7978 60.5388 39.8016C60.4815 39.8049 60.4166 39.8282 60.344 39.8714C60.2713 39.9146 60.2062 39.9687 60.1491 40.0335C60.0935 40.0958 60.0436 40.1673 60.0021 40.2439C59.9614 40.3193 59.9299 40.3981 59.9096 40.4758C59.8886 40.5548 59.8782 40.6301 59.8782 40.702ZM61.6795 37.8315L62.393 37.4069C62.49 37.3493 62.5846 37.3045 62.6771 37.2725C62.7696 37.2406 62.8522 37.2291 62.9249 37.2385C62.9975 37.2478 63.0565 37.2813 63.1016 37.339C63.1468 37.3967 63.1693 37.4882 63.1693 37.6139C63.1693 37.7727 63.1325 37.926 63.0586 38.0737C62.985 38.2214 62.8852 38.3543 62.7597 38.4726V38.4803C62.9038 38.4086 63.0385 38.4037 63.1379 38.4667C63.1853 38.4973 63.2222 38.544 63.2486 38.6065C63.275 38.6688 63.2882 38.7449 63.2882 38.8347C63.2882 38.9857 63.2613 39.1261 63.2073 39.2557C63.1542 39.3837 63.0816 39.5067 62.9959 39.614C62.909 39.7233 62.8109 39.8221 62.7019 39.91C62.5929 39.9979 62.4845 40.0739 62.3765 40.1382L61.6795 40.5528V37.8315V37.8315ZM61.957 38.8195L62.3402 38.5915C62.4062 38.5522 62.4707 38.5087 62.5334 38.4612C62.5962 38.4135 62.653 38.3585 62.7035 38.2965C62.7542 38.2343 62.795 38.1652 62.8258 38.0893C62.8566 38.0133 62.872 37.9278 62.872 37.8331C62.872 37.7485 62.8578 37.6884 62.8291 37.653C62.8008 37.6177 62.7615 37.598 62.7151 37.5959C62.6647 37.5939 62.61 37.605 62.5532 37.6287C62.4926 37.6533 62.4313 37.684 62.3699 37.7205L61.957 37.9662V38.8195V38.8195ZM61.957 40.0879L62.4261 39.8089C62.4944 39.7682 62.5622 39.7194 62.6292 39.663C62.6931 39.6098 62.7545 39.546 62.8109 39.4742C62.8638 39.4068 62.9085 39.3302 62.9414 39.2505C62.9744 39.1705 62.9909 39.0871 62.9909 39C62.9909 38.9051 62.9751 38.8351 62.943 38.7902C62.9125 38.746 62.8694 38.7189 62.8175 38.7111C62.7658 38.7035 62.7063 38.7119 62.6391 38.7365C62.5711 38.7615 62.502 38.7949 62.4327 38.8363L61.957 39.1193V40.0879V40.0879ZM63.7089 36.4396L63.9666 36.2863V39.1922L63.7089 39.3455V36.4396ZM64.3608 38.0582C64.3608 37.9171 64.3818 37.7766 64.4236 37.6365C64.4654 37.4963 64.5227 37.3628 64.5954 37.2364C64.668 37.1097 64.7551 36.9934 64.8563 36.887C64.9576 36.7806 65.0677 36.692 65.1867 36.6213C65.3056 36.5505 65.4158 36.5081 65.517 36.4939C65.6183 36.4798 65.7053 36.4926 65.778 36.5328C65.8506 36.5728 65.908 36.638 65.9497 36.7285C65.9915 36.8189 66.0125 36.9345 66.0125 37.0755C66.0125 37.2164 65.9915 37.3571 65.9497 37.4972C65.908 37.6374 65.8506 37.7707 65.778 37.8973C65.7053 38.0238 65.6183 38.1403 65.517 38.2467C65.4158 38.3531 65.3056 38.4417 65.1867 38.5124C65.0677 38.5832 64.9576 38.6256 64.8563 38.6398C64.7589 38.6545 64.67 38.6413 64.5954 38.6009C64.5217 38.5597 64.4633 38.4932 64.4236 38.4052C64.3818 38.3148 64.3608 38.199 64.3608 38.0582V38.0582ZM64.6383 37.8931C64.6383 37.9878 64.651 38.0681 64.6763 38.1338C64.7016 38.1995 64.7386 38.2478 64.787 38.2794C64.8354 38.3107 64.8932 38.3238 64.9604 38.3184C65.0276 38.313 65.1029 38.2855 65.1867 38.2357C65.2704 38.1858 65.3457 38.1237 65.413 38.0492C65.4802 37.9746 65.538 37.8927 65.5864 37.8038C65.6348 37.7146 65.6718 37.6223 65.697 37.5265C65.7223 37.4308 65.735 37.3354 65.735 37.2406C65.735 37.1457 65.7223 37.0656 65.697 36.9999C65.6729 36.9358 65.6352 36.8863 65.5864 36.8543C65.5375 36.8228 65.4785 36.8096 65.413 36.8153C65.3415 36.8222 65.2644 36.8504 65.1867 36.898C65.1029 36.9479 65.0276 37.01 64.9604 37.0845C64.8932 37.1591 64.8354 37.2408 64.787 37.3299C64.7386 37.4189 64.7016 37.5114 64.6763 37.6072C64.651 37.7029 64.6383 37.7981 64.6383 37.8931V37.8931ZM67.4837 35.7506C67.4287 35.7064 67.3692 35.6861 67.3053 35.6895C67.239 35.6937 67.1668 35.719 67.0939 35.7634C67.008 35.8145 66.932 35.877 66.8659 35.9509C66.7999 36.0248 66.7454 36.1052 66.7024 36.1923C66.6595 36.2793 66.6269 36.3698 66.605 36.4636C66.583 36.5574 66.5719 36.6505 66.5719 36.7427C66.5719 36.835 66.5847 36.9139 66.6099 36.9796C66.6352 37.0452 66.6705 37.0953 66.7156 37.13C66.7607 37.1647 66.8152 37.1803 66.8791 37.1769C66.9431 37.1734 67.0146 37.1482 67.0939 37.101C67.2635 37.0001 67.3945 36.8478 67.487 36.6442L67.6786 36.7416C67.6037 36.8861 67.5155 37.0116 67.4143 37.1179C67.313 37.2243 67.2062 37.3109 67.0939 37.3778C66.9749 37.4485 66.8659 37.4903 66.7668 37.5031C66.6677 37.516 66.5835 37.5007 66.5141 37.4574C66.4448 37.4142 66.3907 37.3463 66.3523 37.2539C66.3138 37.1615 66.2945 37.0462 66.2945 36.9078C66.2945 36.7719 66.3138 36.6349 66.3523 36.4967C66.3907 36.3585 66.4452 36.2261 66.5158 36.0996C66.5874 35.9715 66.6734 35.8529 66.7685 35.7513C66.8718 35.6412 66.9824 35.5513 67.0939 35.4866C67.2083 35.4185 67.3168 35.377 67.4192 35.3622C67.5221 35.3475 67.6143 35.3664 67.6885 35.4173L67.4837 35.7506V35.7506ZM67.9473 33.918L68.2049 33.7647V35.6635L68.9086 34.4531L69.2752 34.235L68.5287 35.4978L69.3512 35.9887L68.9713 36.2147L68.2049 35.725V36.6706L67.9473 36.8239V33.918Z" fill="white"/>
<path fill-rule="evenodd" clip-rule="evenodd" d="M51.8706 42.4265L50.7008 44.4837C50.6668 44.5434 50.6399 44.6063 50.6216 44.6689C50.6032 44.7314 50.5937 44.7923 50.5938 44.8482V46.7735C50.5938 46.8863 50.6323 46.9715 50.7008 47.0105L51.8706 47.6758C51.9392 47.7147 52.032 47.7043 52.1291 47.6466L53.7837 46.6622C53.8806 46.6046 53.9736 46.5043 54.0422 46.3838L55.212 44.3266C55.2805 44.2062 55.3191 44.075 55.3191 43.9623V42.0369C55.3191 41.924 55.2805 41.8389 55.212 41.7998L54.0422 41.1345C54.0083 41.1151 53.968 41.1078 53.9236 41.1128C53.8793 41.1178 53.8317 41.1351 53.7837 41.1637L52.1291 42.1481C52.0322 42.2057 51.9392 42.3059 51.8706 42.4265Z" fill="white"/>
<path fill-rule="evenodd" clip-rule="evenodd" d="M52.9 46.4323C53.6828 45.9665 53.8685 45.0205 53.8685 45.0205L54.3178 43.2509C54.3178 43.2509 54.3585 43.0709 54.351 43.0736C53.9325 43.2316 53.8435 43.6277 53.8435 43.6277C53.8435 43.6277 53.6828 44.2093 53.6579 44.2241C53.6329 44.239 53.6299 44.2047 53.6299 44.2047V42.4588C53.6299 42.4588 53.6377 42.2288 53.439 42.3471C53.2401 42.4654 53.2503 42.685 53.2503 42.685L53.2506 43.9748C53.2506 43.9748 53.2533 44.025 53.216 44.0472C53.1829 44.0669 53.1846 44.0157 53.1846 44.0157V42.4617C53.1846 42.4617 53.1971 42.2003 52.996 42.3199C52.795 42.4395 52.8058 42.6888 52.8058 42.6888L52.804 44.2231C52.804 44.2231 52.8065 44.2687 52.7733 44.2884C52.7425 44.3068 52.7436 44.2595 52.7436 44.2595V42.9739C52.7436 42.9739 52.7548 42.7056 52.5501 42.8273C52.349 42.947 52.3598 43.2071 52.3598 43.2071L52.358 44.5655C52.358 44.5655 52.3617 44.6027 52.33 44.6216C52.2966 44.6415 52.2973 44.6016 52.2973 44.6016L52.2958 43.7817C52.2958 43.7817 52.2976 43.5538 52.1287 43.6543C51.9489 43.7612 51.9522 43.9861 51.9522 43.9861V45.7576C51.9534 45.7566 51.9068 47.023 52.9 46.4321V46.4323Z" fill="#E40D0D"/>
<path d="M81.8228 34.9567L63.7935 45.683C63.2077 46.0315 62.7329 46.6581 62.7329 47.0827V48.6202C62.7329 49.0448 63.2077 49.1065 63.7935 48.758L81.8228 38.0317C82.4086 37.6832 82.8834 37.0565 82.8834 36.632V35.0945C82.8834 34.6699 82.4086 34.6082 81.8228 34.9567Z" fill="white"/>
<path d="M69.5875 60.3978L53.8965 69.7329C53.5316 69.95 53.2358 70.5562 53.2358 71.0869C53.2358 71.6176 53.5316 71.8719 53.8965 71.6548L69.5875 62.3197C69.9523 62.1026 70.2481 61.4964 70.2481 60.9657C70.2481 60.435 69.9523 60.1807 69.5875 60.3978Z" fill="white"/>
<path d="M78.9588 73.0802L53.7745 88.0633C53.477 88.2403 53.2358 88.728 53.2358 89.1525C53.2358 89.5771 53.477 89.7778 53.7745 89.6008L78.9588 74.6177C79.2563 74.4407 79.4975 73.9531 79.4975 73.5285C79.4975 73.1039 79.2563 72.9032 78.9588 73.0802Z" fill="white"/>
<path d="M84.7829 72.8824L53.8965 91.2578C53.5316 91.4749 53.2358 91.9951 53.2358 92.4196C53.2358 92.8442 53.5316 93.0124 53.8965 92.7953L84.7829 74.4199C85.1478 74.2028 85.4436 73.6826 85.4436 73.2581C85.4436 72.8335 85.1478 72.6653 84.7829 72.8824Z" fill="white"/>
<path d="M55.0527 62.7028L53.8965 63.3906C53.5316 63.6077 53.2358 64.1279 53.2358 64.5524C53.2358 64.977 53.5316 65.1452 53.8965 64.9281L55.0527 64.2403C55.4176 64.0232 55.7134 63.503 55.7134 63.0785C55.7134 62.6539 55.4176 62.4857 55.0527 62.7028Z" fill="white"/>
<path d="M84.783 45.0152L79.4976 48.1597C79.1327 48.3768 78.8369 48.8969 78.8369 49.3215C78.8369 49.7461 79.1327 49.9143 79.4976 49.6972L84.783 46.5527C85.1478 46.3356 85.4436 45.8155 85.4436 45.3909C85.4436 44.9663 85.1478 44.7981 84.783 45.0152Z" fill="white"/>
<path d="M67.7706 55.1362L57.6953 61.1304C57.3305 61.3475 57.0347 61.8676 57.0347 62.2922C57.0347 62.7168 57.3305 62.885 57.6953 62.6679L67.7706 56.6738C68.1355 56.4567 68.4312 55.9365 68.4312 55.5119C68.4312 55.0874 68.1355 54.9192 67.7706 55.1362Z" fill="white"/>
<path d="M65.8389 53.4029L54.0114 60.4395C53.5831 60.6943 53.2358 61.2451 53.2358 61.6696C53.2358 62.0942 53.5831 62.2318 54.0114 61.977L65.8389 54.9404C66.2672 54.6855 66.6144 54.1348 66.6144 53.7102C66.6144 53.2856 66.2672 53.148 65.8389 53.4029Z" fill="white"/>
<path d="M92.2152 40.5932L87.4253 43.4429C87.0604 43.66 86.7646 44.1801 86.7646 44.6047C86.7646 45.0293 87.0604 45.1975 87.4253 44.9804L92.2152 42.1307C92.5801 41.9136 92.8759 41.3935 92.8759 40.9689C92.8759 40.5443 92.5801 40.3761 92.2152 40.5932Z" fill="white"/>
<path d="M53.1533 76.499C53.1533 75.3944 53.9229 74.0412 54.8721 73.4764L70.594 64.1229C71.5432 63.5582 72.3128 63.9958 72.3128 65.1003V68.0191C72.3128 69.1237 71.5432 70.4769 70.594 71.0417L54.8721 80.3952C53.9229 80.96 53.1533 80.5224 53.1533 79.4178V76.499Z" fill="#CE0707"/>
<path d="M73.6343 64.3144C73.6343 63.2099 74.4038 61.8566 75.3531 61.2919L91.0749 51.9383C92.0242 51.3736 92.7937 51.8112 92.7937 52.9158V55.8346C92.7937 56.9391 92.0242 58.2924 91.0749 58.8571L75.3531 68.2106C74.4038 68.7754 73.6343 68.3378 73.6343 67.2332V64.3144Z" fill="#CE0707"/>
<path d="M75.853 27.6231C75.8747 27.6101 75.8931 27.6179 75.8958 27.6406L75.9293 27.8902C75.9824 27.8839 76.0309 27.8888 76.0762 27.9024L76.2936 27.6715C76.3127 27.652 76.3367 27.6452 76.3473 27.661L76.5218 27.9087C76.5323 27.9249 76.5275 27.9556 76.5109 27.9807L76.3271 28.257C76.3306 28.2873 76.333 28.3187 76.333 28.3531C76.333 28.3875 76.3306 28.4218 76.3271 28.4562L76.5109 28.5148C76.5275 28.5202 76.5323 28.5452 76.5218 28.5738L76.3473 29.0282C76.3368 29.0568 76.3136 29.0798 76.2936 29.0826L76.0762 29.1104C76.0309 29.1768 75.9824 29.2405 75.9293 29.2974L75.8958 29.5869C75.893 29.6128 75.8747 29.6414 75.853 29.6543L75.5038 29.8621C75.4821 29.8749 75.4637 29.8682 75.461 29.8455L75.4283 29.5955C75.375 29.6018 75.326 29.5974 75.2806 29.5837L75.0632 29.8146C75.044 29.8342 75.0208 29.8397 75.0103 29.8236L74.8358 29.5769C74.8253 29.5608 74.8293 29.5306 74.8458 29.5055L75.0296 29.2282C75.0262 29.1978 75.0238 29.1654 75.0238 29.132C75.0238 29.0986 75.0262 29.0634 75.0296 29.0289L74.8458 28.9713C74.8293 28.9659 74.8244 28.9409 74.8358 28.9119L75.0103 28.4564C75.0209 28.4282 75.0433 28.4063 75.0632 28.4035L75.2806 28.3757C75.326 28.3091 75.375 28.2453 75.4283 28.1882L75.461 27.8992C75.4636 27.8734 75.4821 27.8438 75.5038 27.8308L75.853 27.6231ZM75.6784 28.3871C75.5101 28.4873 75.3731 28.7284 75.3729 28.9243C75.3729 29.1203 75.51 29.1982 75.6784 29.098C75.8468 28.9978 75.9839 28.7568 75.9839 28.5608C75.9837 28.3651 75.8467 28.287 75.6784 28.3871Z" fill="#F18686"/>
<path d="M72.7979 29.4108C72.8938 29.3538 72.9723 29.3987 72.9725 29.5101V30.932C72.9725 31.0437 72.8939 31.1819 72.7979 31.239L72.4488 31.4467L72.2482 31.7994C72.2141 31.859 72.1588 31.8921 72.1248 31.8728L71.9251 31.7583L71.5759 31.966C71.48 32.0229 71.4014 31.9783 71.4014 31.8667V30.4448C71.4015 30.3333 71.4793 30.1955 71.5759 30.1378L72.7979 29.4108ZM72.0996 31.4523L72.2742 31.3484V31.1453L72.0996 31.2491V31.4523ZM72.1869 29.9775C72.0282 30.072 71.8948 30.2747 71.8521 30.4687C71.8382 30.5337 71.8729 30.5695 71.9234 30.5395L71.9494 30.524C71.9834 30.5038 72.0111 30.4604 72.0224 30.4162C72.046 30.323 72.1111 30.2258 72.1869 30.1806C72.2828 30.1235 72.3613 30.1684 72.3615 30.2799C72.3615 30.3357 72.3425 30.3981 72.3111 30.4534L72.2029 30.6457C72.1497 30.7402 72.1127 30.8444 72.103 30.9424C72.0969 30.9989 72.1323 31.0246 72.1777 30.9976L72.2045 30.9816C72.2429 30.9588 72.2732 30.9073 72.2784 30.8605C72.2898 30.7564 72.326 30.6831 72.3766 30.5931L72.4555 30.4525C72.505 30.3651 72.5361 30.2652 72.5361 30.176C72.5359 29.9518 72.3797 29.8628 72.1869 29.9775Z" fill="#F18686"/>
<path d="M102.304 19.4233L54.2405 48.0183C53.6932 48.3439 53.2495 49.1242 53.2495 49.761V108.763C53.2495 109.4 53.6932 109.652 54.2405 109.326L102.304 80.7314C102.852 80.4058 103.295 79.6255 103.295 78.9887V19.9869C103.295 19.35 102.852 19.0977 102.304 19.4233Z" fill="#F4F4F4" stroke="#DCDCDC" stroke-width="0.249999"/>
<path fill-rule="evenodd" clip-rule="evenodd" d="M55.8921 57.2217L100.818 30.4937V77.1955L55.8921 103.923V57.2217Z" fill="white"/>
<path d="M58.7109 63.8091L98.3512 40.2256" stroke="#E6E6E6" stroke-width="0.499997" stroke-linecap="square"/>
<path d="M58.7109 91.292L98.3512 67.7085" stroke="#E6E6E6" stroke-width="0.499997" stroke-linecap="square"/>
<path d="M63.3793 46.3482L63.7393 46.134L64.7468 48.256L64.2712 48.539L64.0531 48.046L63.039 48.6494L62.8276 49.3978L62.3618 49.6749L63.3793 46.3482V46.3482ZM63.9078 47.7174L63.5477 46.8246L63.181 48.1497L63.9078 47.7174ZM66.1982 47.1158L66.1916 47.1197C66.1386 47.2594 66.0577 47.3936 65.9603 47.5033C65.8634 47.6121 65.7588 47.7 65.6465 47.7669C65.5231 47.8403 65.4136 47.8804 65.3178 47.8875C65.2244 47.8951 65.1406 47.8749 65.0717 47.8282C65.0025 47.7804 64.9496 47.7071 64.9165 47.6131C64.8806 47.512 64.8627 47.3939 64.8636 47.264C64.8636 47.1281 64.8823 46.9902 64.9198 46.8501C64.9548 46.7161 65.0081 46.58 65.0767 46.4492C65.1437 46.3221 65.2247 46.2055 65.3195 46.0991C65.4141 45.9929 65.5177 45.9063 65.63 45.8394C65.7048 45.7949 65.7709 45.7645 65.8282 45.7484C65.8853 45.7323 65.936 45.7252 65.9801 45.7272C66.0241 45.7291 66.0616 45.737 66.0925 45.7507C66.1232 45.7643 66.1486 45.7807 66.1684 45.7997L66.1784 45.7938V44.4984L66.5748 44.2626V47.1685L66.1982 47.3925V47.1158V47.1158ZM65.26 47.0282C65.26 47.0999 65.2704 47.1629 65.2914 47.2171C65.3122 47.2712 65.3431 47.3118 65.3839 47.3389C65.4245 47.3658 65.4736 47.3777 65.5309 47.3744C65.588 47.3712 65.6531 47.3478 65.7258 47.3046C65.7985 47.2613 65.8634 47.2073 65.9207 47.1425C65.9762 47.0802 66.0262 47.0087 66.0677 46.932C66.1084 46.8567 66.1398 46.7779 66.1602 46.7002C66.181 46.6211 66.1916 46.5457 66.1916 46.474C66.1916 46.4021 66.181 46.3392 66.1602 46.2851C66.1398 46.2316 66.1084 46.1902 66.0677 46.1633C66.0262 46.1361 65.9762 46.124 65.9207 46.1277C65.8634 46.1311 65.7985 46.1543 65.7258 46.1976C65.6531 46.2408 65.588 46.2949 65.5309 46.3596C65.4754 46.422 65.4254 46.4935 65.3839 46.5701C65.3432 46.6455 65.3118 46.7243 65.2914 46.8019C65.2704 46.8809 65.26 46.9563 65.26 47.0282ZM67.0613 44.1576L67.7749 43.7331C67.8718 43.6754 67.9665 43.6307 68.059 43.5987C68.1514 43.5667 68.234 43.5553 68.3067 43.5647C68.3794 43.5739 68.4383 43.6075 68.4834 43.6652C68.5287 43.7228 68.5512 43.8144 68.5512 43.9401C68.5512 44.0988 68.5143 44.2522 68.4405 44.3999C68.3668 44.5475 68.2671 44.6805 68.1415 44.7988V44.8065C68.2857 44.7347 68.4203 44.7299 68.5198 44.7929C68.5672 44.8235 68.604 44.8702 68.6304 44.9327C68.6569 44.995 68.6701 45.0711 68.6701 45.1608C68.6701 45.3119 68.6432 45.4523 68.5891 45.5818C68.536 45.7099 68.4635 45.8329 68.3777 45.9402C68.2908 46.0495 68.1927 46.1482 68.0837 46.2362C67.9747 46.3241 67.8664 46.4001 67.7583 46.4643L67.0613 46.879V44.1576V44.1576ZM67.3388 45.1457L67.722 44.9177C67.7881 44.8784 67.8525 44.8349 67.9153 44.7873C67.978 44.7396 68.0348 44.6847 68.0854 44.6227C68.1361 44.5605 68.1769 44.4914 68.2076 44.4155C68.2385 44.3394 68.2538 44.254 68.2538 44.1592C68.2538 44.0747 68.2396 44.0145 68.2109 43.9792C68.1826 43.9438 68.1434 43.9242 68.0969 43.922C68.0466 43.9201 67.9918 43.9312 67.9351 43.9549C67.8745 43.9794 67.8132 44.0101 67.7517 44.0467L67.3388 44.2924V45.1457V45.1457ZM67.3388 46.4141L67.8079 46.135C67.8763 46.0944 67.944 46.0456 68.0111 45.9892C68.075 45.9359 68.1364 45.8722 68.1927 45.8004C68.2456 45.733 68.2903 45.6563 68.3232 45.5767C68.3563 45.4967 68.3728 45.4133 68.3728 45.3262C68.3728 45.2312 68.3569 45.1613 68.3249 45.1164C68.2944 45.0722 68.2513 45.0451 68.1993 45.0373C68.1476 45.0296 68.0882 45.0381 68.021 45.0627C67.953 45.0877 67.8838 45.1211 67.8145 45.1625L67.3388 45.4455V46.4141V46.4141ZM69.0908 42.7657L69.3484 42.6125V45.5183L69.0908 45.6716V42.7657ZM69.7427 44.3843C69.7427 44.2433 69.7636 44.1028 69.8054 43.9626C69.8472 43.8224 69.9045 43.689 69.9772 43.5625C70.0499 43.4359 70.1369 43.3195 70.2382 43.2132C70.3394 43.1068 70.4496 43.0182 70.5685 42.9475C70.6874 42.8767 70.7976 42.8342 70.8988 42.8201C71.0001 42.806 71.0871 42.8188 71.1598 42.859C71.2325 42.8989 71.2898 42.9642 71.3316 43.0547C71.3734 43.1451 71.3944 43.2606 71.3944 43.4017C71.3944 43.5426 71.3734 43.6832 71.3316 43.8234C71.2898 43.9636 71.2325 44.0969 71.1598 44.2235C71.0871 44.35 71.0001 44.4665 70.8988 44.5729C70.7976 44.6792 70.6874 44.7678 70.5685 44.8386C70.4496 44.9093 70.3394 44.9518 70.2382 44.9659C70.1407 44.9806 70.0519 44.9674 69.9772 44.9271C69.9035 44.8859 69.8451 44.8193 69.8054 44.7314C69.7636 44.6409 69.7427 44.5252 69.7427 44.3843V44.3843ZM70.0202 44.2193C70.0202 44.314 70.0329 44.3943 70.0581 44.46C70.0834 44.5256 70.1204 44.574 70.1688 44.6055C70.2172 44.6369 70.275 44.65 70.3422 44.6446C70.4095 44.6392 70.4848 44.6117 70.5685 44.5618C70.6523 44.512 70.7276 44.4499 70.7948 44.3753C70.862 44.3007 70.9198 44.2189 70.9682 44.1299C71.0166 44.0408 71.0536 43.9484 71.0789 43.8527C71.1042 43.7569 71.1169 43.6615 71.1169 43.5668C71.1169 43.4718 71.1042 43.3918 71.0789 43.3261C71.0547 43.262 71.0171 43.2124 70.9682 43.1805C70.9193 43.149 70.8603 43.1357 70.7948 43.1415C70.7233 43.1484 70.6462 43.1766 70.5685 43.2242C70.4848 43.274 70.4095 43.3361 70.3422 43.4107C70.275 43.4853 70.2172 43.567 70.1688 43.6561C70.1204 43.7451 70.0834 43.8376 70.0581 43.9334C70.0329 44.0291 70.0202 44.1243 70.0202 44.2193V44.2193ZM72.8655 42.0767C72.8105 42.0326 72.751 42.0122 72.6871 42.0157C72.6208 42.0199 72.5486 42.0451 72.4757 42.0895C72.3898 42.1406 72.3138 42.2031 72.2478 42.277C72.1817 42.3509 72.1272 42.4314 72.0843 42.5185C72.0413 42.6055 72.0088 42.696 71.9868 42.7898C71.9648 42.8836 71.9538 42.9766 71.9538 43.0689C71.9538 43.1611 71.9665 43.24 71.9918 43.3057C72.017 43.3714 72.0524 43.4215 72.0975 43.4562C72.1426 43.4908 72.1971 43.5065 72.261 43.503C72.3249 43.4996 72.3964 43.4743 72.4757 43.4272C72.6453 43.3263 72.7763 43.174 72.8688 42.9704L73.0604 43.0678C72.9856 43.2122 72.8974 43.3377 72.7961 43.4441C72.6949 43.5505 72.588 43.6371 72.4757 43.7039C72.3568 43.7747 72.2478 43.8165 72.1487 43.8293C72.0496 43.8421 71.9653 43.8269 71.896 43.7836C71.8266 43.7403 71.7726 43.6725 71.7341 43.5801C71.6956 43.4877 71.6763 43.3723 71.6763 43.234C71.6763 43.0981 71.6956 42.9611 71.7341 42.8229C71.7726 42.6847 71.8271 42.5523 71.8976 42.4258C71.9693 42.2977 72.0553 42.1791 72.1503 42.0775C72.2537 41.9674 72.3643 41.8774 72.4757 41.8128C72.5902 41.7447 72.6987 41.7032 72.8011 41.6884C72.904 41.6737 72.9961 41.6926 73.0703 41.7435L72.8655 42.0767V42.0767ZM73.3291 40.2442L73.5868 40.0909V41.9897L74.2904 40.7793L74.6571 40.5611L73.9105 41.824L74.7331 42.3148L74.3532 42.5408L73.5868 42.0512V42.9968L73.3291 43.1501V40.2442Z" fill="black"/>
<path fill-rule="evenodd" clip-rule="evenodd" d="M57.2519 48.7536L56.0821 50.8109C56.0482 50.8706 56.0213 50.9335 56.0029 50.996C55.9845 51.0586 55.9751 51.1195 55.9751 51.1753V53.1007C55.9751 53.2134 56.0137 53.2987 56.0821 53.3376L57.2519 54.003C57.3205 54.0418 57.4134 54.0315 57.5104 53.9738L59.1651 52.9893C59.262 52.9317 59.3549 52.8315 59.4236 52.711L60.5934 50.6537C60.6618 50.5333 60.7004 50.4021 60.7004 50.2894V48.3641C60.7004 48.2512 60.6618 48.1661 60.5934 48.127L59.4236 47.4616C59.3896 47.4423 59.3493 47.4349 59.305 47.44C59.2606 47.445 59.2131 47.4623 59.1651 47.4908L57.5104 48.4752C57.4135 48.5329 57.3205 48.6331 57.2519 48.7536Z" fill="#F40D12"/>
<path fill-rule="evenodd" clip-rule="evenodd" d="M58.2813 52.7589C59.0642 52.2932 59.2499 51.3471 59.2499 51.3471L59.6991 49.5776C59.6991 49.5776 59.7398 49.3975 59.7323 49.4002C59.3139 49.5582 59.2249 49.9544 59.2249 49.9544C59.2249 49.9544 59.0642 50.5359 59.0392 50.5508C59.0142 50.5656 59.0112 50.5314 59.0112 50.5314V48.7854C59.0112 48.7854 59.019 48.5555 58.8203 48.6737C58.6215 48.792 58.6316 49.0116 58.6316 49.0116L58.6319 50.3014C58.6319 50.3014 58.6346 50.3517 58.5974 50.3738C58.5642 50.3936 58.566 50.3424 58.566 50.3424V48.7883C58.566 48.7883 58.5784 48.5269 58.3773 48.6466C58.1764 48.7661 58.1871 49.0155 58.1871 49.0155L58.1853 50.5497C58.1853 50.5497 58.1879 50.5954 58.1547 50.6151C58.1239 50.6334 58.1249 50.5862 58.1249 50.5862V49.3005C58.1249 49.3005 58.1362 49.0322 57.9315 49.154C57.7304 49.2736 57.7411 49.5337 57.7411 49.5337L57.7393 50.8921C57.7393 50.8921 57.7431 50.9294 57.7114 50.9483C57.6779 50.9682 57.6786 50.9282 57.6786 50.9282L57.6772 50.1083C57.6772 50.1083 57.6789 49.8804 57.51 49.9809C57.3303 50.0878 57.3336 50.3127 57.3336 50.3127V52.0843C57.3348 52.0832 57.2881 53.3496 58.2813 52.7588V52.7589Z" fill="white"/>
<path d="M87.2052 41.2838L69.1758 52.0102C68.5901 52.3586 68.1152 52.9853 68.1152 53.4099V54.9474C68.1152 55.3719 68.5901 55.4336 69.1758 55.0852L87.2052 44.3588C87.7909 44.0103 88.2657 43.3837 88.2657 42.9591V41.4216C88.2657 40.997 87.7909 40.9353 87.2052 41.2838Z" fill="#333333"/>
<path d="M74.9693 66.7249L59.2783 76.0601C58.9135 76.2771 58.6177 76.8834 58.6177 77.4141C58.6177 77.9448 58.9135 78.199 59.2783 77.982L74.9693 68.6468C75.3342 68.4298 75.63 67.8235 75.63 67.2928C75.63 66.7621 75.3342 66.5079 74.9693 66.7249Z" fill="#333333"/>
<path d="M84.3407 79.4074L59.1564 94.3904C58.8589 94.5674 58.6177 95.0551 58.6177 95.4797C58.6177 95.9043 58.8589 96.105 59.1564 95.9279L84.3407 80.9449C84.6382 80.7679 84.8794 80.2802 84.8794 79.8556C84.8794 79.4311 84.6382 79.2304 84.3407 79.4074Z" fill="#2284F7"/>
<path d="M90.1647 79.2095L59.2783 97.585C58.9135 97.802 58.6177 98.3222 58.6177 98.7468C58.6177 99.1713 58.9135 99.3396 59.2783 99.1225L90.1647 80.747C90.5296 80.5299 90.8254 80.0098 90.8254 79.5852C90.8254 79.1606 90.5296 78.9924 90.1647 79.2095Z" fill="#2284F7"/>
<path d="M60.4345 69.0294L59.2783 69.7173C58.9135 69.9344 58.6177 70.4545 58.6177 70.8791C58.6177 71.3037 58.9135 71.4719 59.2783 71.2548L60.4345 70.567C60.7994 70.3499 61.0952 69.8297 61.0952 69.4051C61.0952 68.9806 60.7994 68.8124 60.4345 69.0294Z" fill="#CE0707"/>
<path d="M90.1648 51.3419L84.8794 54.4863C84.5145 54.7034 84.2188 55.2236 84.2188 55.6481C84.2188 56.0727 84.5145 56.2409 84.8794 56.0238L90.1648 52.8794C90.5297 52.6623 90.8255 52.1421 90.8255 51.7176C90.8255 51.293 90.5297 51.1248 90.1648 51.3419Z" fill="#CE0707"/>
<path d="M73.1524 61.4634L63.0772 67.4575C62.7123 67.6746 62.4165 68.1948 62.4165 68.6193C62.4165 69.0439 62.7123 69.2121 63.0772 68.995L73.1524 63.0009C73.5173 62.7838 73.8131 62.2637 73.8131 61.8391C73.8131 61.4145 73.5173 61.2463 73.1524 61.4634Z" fill="#333333"/>
<path d="M71.2207 59.73L59.3932 66.7666C58.9649 67.0214 58.6177 67.5722 58.6177 67.9968C58.6177 68.4214 58.9649 68.559 59.3932 68.3041L71.2207 61.2675C71.649 61.0127 71.9963 60.4619 71.9963 60.0374C71.9963 59.6128 71.649 59.4752 71.2207 59.73Z" fill="#333333"/>
<path d="M97.597 46.9204L92.8072 49.77C92.4423 49.9871 92.1465 50.5073 92.1465 50.9318C92.1465 51.3564 92.4423 51.5246 92.8072 51.3075L97.597 48.4579C97.9619 48.2408 98.2577 47.7206 98.2577 47.2961C98.2577 46.8715 97.9619 46.7033 97.597 46.9204Z" fill="#333333"/>
<path d="M58.5352 81.8262C58.5352 81.2739 58.9199 80.5973 59.3946 80.3149L76.8352 69.9388C77.3099 69.6564 77.6946 69.8752 77.6946 70.4275V75.3463C77.6946 75.8986 77.3099 76.5752 76.8352 76.8576L59.3946 87.2337C58.9199 87.516 58.5352 87.2972 58.5352 86.745V81.8262Z" fill="#E6E6E6"/>
<path d="M79.0161 69.6416C79.0161 69.0893 79.4009 68.4127 79.8755 68.1303L97.3162 57.7542C97.7908 57.4718 98.1756 57.6906 98.1756 58.2429V63.1617C98.1756 63.714 97.7908 64.3906 97.3162 64.673L79.8755 75.0491C79.4009 75.3315 79.0161 75.1127 79.0161 74.5604V69.6416Z" fill="#E6E6E6"/>
<path d="M81.0038 34.1529C81.0256 34.1399 81.044 34.1476 81.0466 34.1704L81.0802 34.4199C81.1333 34.4137 81.1818 34.4186 81.2271 34.4322L81.4444 34.2013C81.4636 34.1818 81.4876 34.175 81.4982 34.1908L81.6727 34.4385C81.6832 34.4546 81.6784 34.4853 81.6618 34.5104L81.478 34.7868C81.4815 34.8171 81.4839 34.8485 81.4839 34.8829C81.4839 34.9173 81.4815 34.9516 81.478 34.986L81.6618 35.0446C81.6784 35.05 81.6832 35.075 81.6727 35.1036L81.4982 35.558C81.4877 35.5866 81.4645 35.6096 81.4444 35.6124L81.2271 35.6402C81.1818 35.7066 81.1333 35.7702 81.0802 35.8272L81.0466 36.1167C81.0439 36.1425 81.0256 36.1712 81.0038 36.1841L80.6547 36.3918C80.633 36.4047 80.6146 36.3979 80.6119 36.3753L80.5792 36.1253C80.5259 36.1315 80.4768 36.1272 80.4315 36.1135L80.2141 36.3444C80.1949 36.364 80.1717 36.3695 80.1612 36.3534L79.9866 36.1067C79.9762 36.0906 79.9801 36.0604 79.9967 36.0353L80.1805 35.7579C80.177 35.7276 80.1746 35.6952 80.1746 35.6618C80.1747 35.6284 80.177 35.5932 80.1805 35.5587L79.9967 35.5011C79.9801 35.4957 79.9753 35.4707 79.9866 35.4416L80.1612 34.9862C80.1718 34.958 80.1942 34.9361 80.2141 34.9333L80.4315 34.9055C80.4768 34.8389 80.5259 34.7751 80.5792 34.718L80.6119 34.429C80.6145 34.4032 80.6329 34.3736 80.6547 34.3606L81.0038 34.1529ZM80.8293 34.9169C80.661 35.0171 80.5239 35.2582 80.5238 35.4541C80.5238 35.6501 80.6609 35.728 80.8293 35.6278C80.9977 35.5276 81.1348 35.2866 81.1348 35.0906C81.1346 34.8949 80.9976 34.8167 80.8293 34.9169Z" fill="#999999"/>
<path d="M77.9488 35.9411C78.0447 35.8841 78.1232 35.929 78.1233 36.0404V37.4623C78.1233 37.574 78.0448 37.7121 77.9488 37.7692L77.5996 37.977L77.3991 38.3297C77.365 38.3893 77.3097 38.4224 77.2757 38.4031L77.0759 38.2885L76.7268 38.4962C76.6309 38.5531 76.5522 38.5086 76.5522 38.397V36.9751C76.5524 36.8635 76.6302 36.7258 76.7268 36.6681L77.9488 35.9411ZM77.2505 37.9825L77.4251 37.8787V37.6755L77.2505 37.7794V37.9825ZM77.3378 36.5077C77.179 36.6023 77.0457 36.805 77.0029 36.999C76.989 37.064 77.0238 37.0997 77.0743 37.0698L77.1003 37.0543C77.1343 37.0341 77.1619 36.9907 77.1733 36.9464C77.1968 36.8533 77.262 36.7561 77.3378 36.7109C77.4337 36.6538 77.5122 36.6987 77.5124 36.8101C77.5124 36.866 77.4934 36.9284 77.462 36.9837L77.3537 37.176C77.3006 37.2705 77.2635 37.3747 77.2539 37.4727C77.2478 37.5292 77.2832 37.5549 77.3286 37.5279L77.3554 37.5119C77.3938 37.4891 77.424 37.4376 77.4293 37.3908C77.4407 37.2867 77.4769 37.2134 77.5275 37.1234L77.6064 36.9827C77.6559 36.8954 77.6869 36.7954 77.6869 36.7063C77.6868 36.4821 77.5306 36.393 77.3378 36.5077Z" fill="#999999"/>
</svg>
